<svg width="39" height="50" viewBox="0 0 39 50" fill="none" xmlns="http://www.w3.org/2000/svg">
<g id="2022-12_career-open-policy.svg" clip-path="url(#clip0_18_157)">
<g id="Group 6184">
<g id="Group 109">
<g id="Clip path group">
<mask id="mask0_18_157" style="mask-type:luminance" maskUnits="userSpaceOnUse" x="5" y="5" width="34" height="45">
<g id="a">
<path id="Rectangle 733" d="M5.64893 5.007H38.6589V50H5.64893V5.007Z" fill="white"/>
</g>
</mask>
<g mask="url(#mask0_18_157)">
<g id="Group 108">
<path id="Path 1298" d="M38.6569 27.768C38.6937 27.1336 38.596 26.4985 38.3701 25.9045C38.1442 25.3105 37.7952 24.771 37.3461 24.3214C36.897 23.8718 36.3578 23.5223 35.7641 23.2958C35.1703 23.0692 34.5354 22.9708 33.9009 23.007H32.6579V22.427C32.6579 20.21 32.6729 17.993 32.6489 15.777C32.6533 15.0334 32.5897 14.291 32.4589 13.559C31.9525 10.9106 30.4482 8.55786 28.2566 6.98694C26.0651 5.41602 23.3539 4.74693 20.6831 5.11792C18.0124 5.48891 15.5862 6.87163 13.9058 8.9804C12.2254 11.0892 11.4193 13.7628 11.6539 16.449C11.6487 16.5241 11.6601 16.5995 11.6873 16.6697C11.7146 16.7399 11.757 16.8033 11.8115 16.8553C11.866 16.9072 11.9314 16.9465 12.0028 16.9703C12.0743 16.9941 12.1501 17.0019 12.2249 16.993H14.0989C14.1739 17.0018 14.25 16.9935 14.3213 16.9688C14.3927 16.944 14.4575 16.9034 14.5109 16.85C14.5643 16.7966 14.6049 16.7318 14.6297 16.6604C14.6544 16.589 14.6627 16.513 14.6539 16.438C14.6589 16.111 14.6539 15.783 14.6539 15.456C14.6673 13.484 15.4568 11.5966 16.8515 10.2025C18.2462 8.80832 20.1339 8.01957 22.1059 8.007C23.932 7.9827 25.7028 8.63383 27.0782 9.83536C28.4536 11.0369 29.3367 12.7041 29.5579 14.517C29.6604 15.9255 29.6908 17.3384 29.6489 18.75C29.6609 20.15 29.6489 21.55 29.6489 23.006H10.5389C10.1374 22.994 9.73567 23.0194 9.3389 23.082C8.27369 23.2761 7.31418 23.8478 6.6364 24.6922C5.95862 25.5366 5.60802 26.597 5.6489 27.679V45.22C5.61125 45.8582 5.70937 46.4972 5.93678 47.0947C6.16419 47.6923 6.51573 48.2348 6.96819 48.6865C7.42066 49.1382 7.96376 49.4888 8.56168 49.7153C9.1596 49.9417 9.79873 50.0387 10.4369 50H33.8689C34.507 50.0387 35.146 49.9417 35.7439 49.7153C36.3417 49.489 36.8848 49.1384 37.3372 48.6868C37.7897 48.2352 38.1412 47.6928 38.3687 47.0954C38.5962 46.498 38.6944 45.8592 38.6569 45.221V27.768Z" fill="#F2F2F2"/>
</g>
</g>
</g>
</g>
<g id="Group 107">
<g id="Clip path group_2">
<mask id="mask1_18_157" style="mask-type:luminance" maskUnits="userSpaceOnUse" x="0" y="0" width="33" height="44">
<g id="b">
<path id="Rectangle 732" d="M0.781921 0H32.8179V43.667H0.781921V0Z" fill="white"/>
</g>
</mask>
<g mask="url(#mask1_18_157)">
<g id="Group 106">
<path id="Path 1296" d="M24.0819 17.469C24.0819 16.051 24.0909 14.695 24.0819 13.338C24.122 11.9677 24.092 10.5962 23.9919 9.229C23.7769 7.46987 22.9197 5.85213 21.585 4.68626C20.2503 3.5204 18.532 2.88855 16.7599 2.912C14.8466 2.92353 13.0149 3.68842 11.6617 5.04095C10.3084 6.39348 9.54249 8.22474 9.5299 10.138V11.091C9.538 11.1636 9.52966 11.2371 9.50548 11.3061C9.48131 11.3751 9.44193 11.4377 9.39026 11.4894C9.33859 11.541 9.27595 11.5804 9.20699 11.6046C9.13803 11.6288 9.06452 11.6371 8.9919 11.629H7.17289C7.10042 11.637 7.02707 11.6291 6.95799 11.6058C6.8889 11.5824 6.82576 11.5443 6.77297 11.494C6.72019 11.4437 6.67905 11.3824 6.65243 11.3145C6.62582 11.2467 6.61437 11.1738 6.6189 11.101C6.41387 8.50654 7.20775 5.93176 8.83817 3.90322C10.4686 1.87468 12.8124 0.545638 15.3902 0.187885C17.9681 -0.169869 20.5852 0.470697 22.7064 1.97859C24.8276 3.48647 26.2927 5.74776 26.8019 8.3C26.9287 9.01023 26.9903 9.73056 26.9859 10.452C27.0089 12.603 26.9939 14.752 26.9939 16.906V17.469H28.1999C28.8157 17.4338 29.432 17.5293 30.0083 17.7492C30.5846 17.969 31.1079 18.3083 31.5438 18.7447C31.9798 19.1811 32.3185 19.7047 32.5377 20.2813C32.7569 20.8578 32.8517 21.4742 32.8159 22.09V39.028C32.8522 39.6473 32.7568 40.2673 32.536 40.8471C32.3152 41.4269 31.974 41.9533 31.5349 42.3915C31.0958 42.8298 30.5688 43.17 29.9886 43.3897C29.4083 43.6094 28.7882 43.7035 28.1689 43.666H5.4319C4.8123 43.704 4.19169 43.6101 3.61105 43.3906C3.03041 43.171 2.50294 42.8308 2.06348 42.3924C1.62401 41.954 1.28255 41.4273 1.06163 40.8472C0.840718 40.2671 0.745373 39.6467 0.781895 39.027V22C0.741938 20.9503 1.08216 19.9214 1.74003 19.1024C2.3979 18.2834 3.32924 17.7293 4.3629 17.542C4.74779 17.4816 5.13747 17.4571 5.5269 17.469C11.5036 17.465 17.4806 17.465 23.4579 17.469H24.0819ZM16.8049 40.749H28.2809C28.4904 40.7756 28.7032 40.7556 28.9042 40.6905C29.1051 40.6254 29.2892 40.5168 29.4433 40.3724C29.5974 40.228 29.7178 40.0514 29.7959 39.8551C29.8739 39.6589 29.9078 39.4478 29.8949 39.237C29.8996 33.4477 29.8996 27.658 29.8949 21.868C29.9025 21.6721 29.8702 21.4767 29.7998 21.2937C29.7295 21.1107 29.6226 20.944 29.4857 20.8036C29.3488 20.6633 29.1848 20.5523 29.0036 20.4774C28.8225 20.4025 28.6279 20.3653 28.4319 20.368H5.1719C4.976 20.3654 4.78162 20.4027 4.60061 20.4777C4.4196 20.5527 4.25576 20.6637 4.11906 20.804C3.98236 20.9444 3.87567 21.1111 3.8055 21.294C3.73533 21.4769 3.70314 21.6722 3.7109 21.868C3.70623 27.672 3.70623 33.476 3.7109 39.28C3.69887 39.5933 3.79237 39.9016 3.97641 40.1554C4.16045 40.4093 4.42438 40.594 4.7259 40.68C4.96502 40.7333 5.2101 40.7552 5.4549 40.745C9.23689 40.749 13.0189 40.749 16.8009 40.745" fill="black"/>
<path id="Path 1297" d="M16.7909 34.889H15.5069C15.1489 34.889 15.0799 34.795 15.1269 34.432C15.2589 33.405 15.3829 32.378 15.5159 31.351C15.5338 31.2786 15.5269 31.2023 15.4965 31.1341C15.4661 31.066 15.4138 31.01 15.3479 30.975C14.8701 30.6566 14.5132 30.1867 14.3348 29.6409C14.1563 29.0952 14.1666 28.5052 14.3639 27.966C14.5561 27.4248 14.9231 26.9631 15.4069 26.6537C15.8908 26.3443 16.4639 26.2049 17.0358 26.2576C17.6077 26.3102 18.1457 26.5518 18.565 26.9444C18.9842 27.3369 19.2608 27.8578 19.3509 28.425C19.4399 28.9093 19.384 29.409 19.1901 29.8616C18.9962 30.3142 18.6729 30.6994 18.2609 30.969C18.1916 31.0071 18.1367 31.0668 18.1046 31.1391C18.0724 31.2113 18.0648 31.292 18.0829 31.369C18.2189 32.395 18.3419 33.423 18.4739 34.449C18.5179 34.794 18.4449 34.89 18.1019 34.892H16.7919" fill="#22438A"/>
</g>
</g>
</g>
</g>
</g>
</g>
<defs>
<clipPath id="clip0_18_157">
<rect width="37.876" height="50" fill="white" transform="translate(0.781921)"/>
</clipPath>
</defs>
</svg>
