<svg width="61" height="62" viewBox="0 0 61 62" fill="none" xmlns="http://www.w3.org/2000/svg">
<g id="2022-12_Flexible_WOrking_hOURS.svg" clip-path="url(#clip0_18_223)">
<g id="Group">
<g id="Group 7489">
<path id="Path 3084" d="M4.35986 55.5583C4.49681 55.2903 4.71333 55.0711 4.97972 54.9309C5.24611 54.7908 5.54936 54.7365 5.84785 54.7754C8.44776 54.8054 11.0577 54.7874 13.7097 54.7874C13.1727 52.3775 12.6436 50.0066 12.1177 47.6347C11.539 45.0247 10.9627 42.4138 10.3887 39.8019C10.2933 39.4456 10.2828 39.0718 10.3582 38.7106C10.4336 38.3495 10.5927 38.0112 10.8228 37.7229C11.0529 37.4345 11.3475 37.2041 11.6829 37.0504C12.0182 36.8967 12.385 36.824 12.7536 36.838C19.8201 36.83 26.8864 36.83 33.9529 36.838C34.4994 36.8206 35.0347 36.9958 35.4652 37.333C35.8956 37.6702 36.194 38.1481 36.3079 38.6829C36.4379 39.1979 36.5389 39.7188 36.6569 40.2368C36.7689 40.7288 36.8849 41.2199 37.0169 41.7859C37.778 41.0747 38.6024 40.4343 39.4798 39.8728C40.3397 39.3471 41.2514 38.9116 42.2006 38.5729C42.1447 38.367 41.9546 38.3069 41.8226 38.1939C40.9654 37.4972 40.2724 36.6199 39.7929 35.6247C39.3134 34.6295 39.0594 33.5407 39.0488 32.4361C39.0168 30.8581 39.0218 29.2792 39.0488 27.7003C39.0826 25.7939 39.8157 23.9664 41.1089 22.5652C42.402 21.164 44.1649 20.2869 46.0625 20.1005C48.0376 19.8977 50.0149 20.4658 51.5812 21.6861C53.1475 22.9063 54.1818 24.6845 54.4682 26.6493C54.758 28.9454 54.758 31.2689 54.4682 33.5651C54.2231 35.3886 53.2773 37.0451 51.8313 38.1829C51.7203 38.2779 51.6074 38.3689 51.4964 38.4649C51.4844 38.4749 51.4844 38.4979 51.4604 38.5649C51.7143 38.6649 51.9793 38.7579 52.2313 38.8769C57.6511 41.4208 60.543 45.6707 60.731 51.6675C60.818 54.4544 60.7471 57.2473 60.7451 60.0372C60.7451 61.0172 60.359 61.4021 59.3731 61.4021C41.4943 61.4021 23.6156 61.4055 5.73689 61.4122C5.45564 61.4299 5.17526 61.3655 4.92991 61.2269C4.68456 61.0882 4.48474 60.8813 4.35486 60.6312L4.35986 55.5583ZM37.6008 54.7874C37.6092 54.7362 37.6122 54.6842 37.6099 54.6324C36.4939 49.6095 35.3698 44.5897 34.2709 39.5629C34.1709 39.1209 33.9929 39.0279 33.5769 39.0289C26.7678 39.0409 19.9587 39.0439 13.1496 39.0379C13.0766 39.0379 13.0026 39.0429 12.9296 39.0379C12.5907 39.0099 12.4547 39.1189 12.5597 39.4849C12.6822 39.9071 12.7764 40.3371 12.8416 40.7718C12.8966 41.1508 13.0586 41.2538 13.4476 41.2518C17.1735 41.2328 20.8993 41.2408 24.6252 41.2408C24.7722 41.2408 24.9192 41.2358 25.0652 41.2408C25.2097 41.2392 25.353 41.266 25.4871 41.3198C25.6212 41.3736 25.7434 41.4532 25.8467 41.5542C25.95 41.6552 26.0323 41.7755 26.0891 41.9083C26.1459 42.0411 26.176 42.1839 26.1776 42.3283C26.1793 42.4728 26.1525 42.6161 26.0988 42.7502C26.045 42.8843 25.9654 43.0065 25.8644 43.1098C25.7634 43.2131 25.643 43.2954 25.5102 43.3522C25.3773 43.409 25.2347 43.4391 25.0903 43.4407C24.9443 43.4497 24.7962 43.4407 24.6502 43.4407C21.0893 43.4407 17.5294 43.4478 13.9686 43.4318C13.5526 43.4318 13.4446 43.4928 13.5446 43.9318C14.3226 47.3603 15.0829 50.7935 15.8255 54.2314C15.9185 54.6634 16.0675 54.8003 16.5255 54.7993C23.3712 54.78 30.217 54.7757 37.0628 54.7864L37.6008 54.7874ZM49.1565 54.7874H57.6302C58.5482 54.7874 58.5491 54.7874 58.5481 53.8874C58.6737 52.0932 58.5257 50.2904 58.1092 48.5406C57.529 46.4973 56.4054 44.6495 54.8582 43.1941C53.311 41.7388 51.398 40.7303 49.323 40.2761C47.248 39.822 45.0886 39.9391 43.0749 40.6151C41.0612 41.2911 39.2685 42.5006 37.8878 44.1148C37.7918 44.1962 37.7204 44.3027 37.6815 44.4225C37.6427 44.5422 37.638 44.6704 37.6678 44.7927C38.3888 47.9496 39.0997 51.1085 39.7757 54.2754C39.8757 54.7334 40.0587 54.7963 40.4636 54.7943C43.3615 54.7793 46.2596 54.7874 49.1565 54.7874ZM32.611 56.9873C24.4613 56.9873 16.3115 56.9889 8.16174 56.9923C7.63776 56.9923 6.93781 56.7574 6.63982 57.0924C6.38283 57.3843 6.60378 58.0722 6.55278 58.5802C6.50179 59.0882 6.67087 59.2002 7.16885 59.1992C23.7436 59.1852 40.3184 59.1796 56.8932 59.1823C57.4351 59.1823 58.1611 59.4213 58.4681 59.0773C58.735 58.7773 58.5072 58.0633 58.5572 57.5373C58.6012 57.0753 58.4571 56.9723 57.9961 56.9733C49.5351 56.9927 41.0734 56.9983 32.611 56.9903V56.9873ZM52.4103 28.5562C52.3377 28.5766 52.2672 28.6035 52.1993 28.6363C50.4356 29.8174 48.3425 30.4084 46.2215 30.3242C44.7216 30.3032 43.2127 30.3352 41.7087 30.3102C41.3087 30.3032 41.2087 30.4192 41.2357 30.7972C41.2697 31.3272 41.2357 31.8601 41.2477 32.3971C41.2997 33.7514 41.8427 35.0406 42.7753 36.024C43.708 37.0074 44.9665 37.6178 46.3161 37.7414C47.6658 37.8651 49.0143 37.4935 50.1101 36.6959C51.2058 35.8984 51.9741 34.7294 52.2714 33.4071C52.4348 31.7966 52.4812 30.1764 52.4103 28.5592V28.5562ZM44.3966 28.1172V28.1122C45.2396 28.1122 46.0835 28.1342 46.9264 28.1122C48.7208 28.0811 50.4424 27.3968 51.7683 26.1874C51.8672 26.1272 51.9389 26.0312 51.9688 25.9194C51.9986 25.8077 51.9841 25.6887 51.9284 25.5873C51.4154 24.4296 50.5241 23.4806 49.4009 22.896C48.2776 22.3114 46.9891 22.1261 45.7466 22.3702C44.504 22.6144 43.3814 23.2735 42.5628 24.2397C41.7443 25.2058 41.2784 26.4216 41.2417 27.6873C41.2347 28.0733 41.3636 28.1362 41.7026 28.1292C42.6006 28.1062 43.4986 28.1203 44.3976 28.1203L44.3966 28.1172Z" fill="#F2F2F2"/>
<path id="Path 3085" d="M19.89 5.00513C20.575 5.15013 21.261 5.28721 21.943 5.44421C22.7262 5.63125 23.4892 5.89439 24.2211 6.2301C24.3736 6.2746 24.5146 6.35131 24.635 6.45496C24.7554 6.5586 24.8522 6.68687 24.9188 6.83105C24.9855 6.97524 25.0205 7.13205 25.0215 7.29089C25.0225 7.44974 24.9893 7.60684 24.9244 7.75183C24.8596 7.89682 24.7644 8.02624 24.6453 8.13135C24.5262 8.23646 24.3859 8.31485 24.234 8.36121C24.0821 8.40757 23.922 8.42086 23.7645 8.40015C23.607 8.37944 23.4558 8.32527 23.321 8.24121C18.821 6.40721 14.568 6.89313 10.845 10.0051C9.11916 11.4514 7.84053 13.359 7.15845 15.5049C6.47636 17.6508 6.41901 19.9465 6.99304 22.1238C7.56707 24.3011 8.74887 26.2701 10.4003 27.8008C12.0517 29.3315 14.1044 30.3607 16.319 30.7682C17.8862 31.0684 19.4981 31.0476 21.057 30.7072C22.6159 30.3667 24.0896 29.7136 25.3889 28.7874C26.6882 27.8611 27.7863 26.6809 28.6165 25.3182C29.4467 23.9555 29.9918 22.4386 30.219 20.8591C30.573 18.5787 30.2435 16.2444 29.272 14.1511C29.1565 13.9511 29.1043 13.721 29.1222 13.4907C29.14 13.2605 29.2271 13.041 29.3721 12.8612C29.4982 12.7014 29.6677 12.5815 29.8604 12.5159C30.053 12.4502 30.2606 12.4417 30.458 12.4912C30.951 12.5842 31.1711 12.9582 31.3461 13.3782C32.303 15.4843 32.7161 17.7969 32.5477 20.1041C32.3793 22.4113 31.6347 24.6393 30.3821 26.5841C28.8854 29.0048 26.6857 30.9114 24.0769 32.0491C21.4681 33.1868 18.5743 33.5015 15.782 32.9512C13.0119 32.4098 10.4672 31.0521 8.47485 29.0529C6.48254 27.0536 5.13381 24.5041 4.60205 21.7322C4.5891 21.3574 4.50601 20.9883 4.35706 20.6442V17.4502C4.57906 17.2852 4.516 17.0212 4.552 16.8062C5.00973 14.0019 6.30625 11.4021 8.27075 9.34924C10.2353 7.29638 12.7756 5.88674 15.557 5.30615C16.0235 5.28219 16.4825 5.17867 16.9141 5.00012L19.89 5.00513Z" fill="#F2F2F2"/>
<path id="Path 3086" d="M19.5595 14.5548C19.5595 15.7828 19.5694 17.0108 19.5524 18.2388C19.5454 18.364 19.5678 18.4891 19.6176 18.6042C19.6674 18.7193 19.7433 18.8212 19.8394 18.9018C20.4834 19.5018 21.1184 20.1102 21.7444 20.7268C21.8717 20.8211 21.9774 20.9415 22.0544 21.08C22.1313 21.2185 22.1777 21.3718 22.1905 21.5297C22.2033 21.6876 22.1823 21.8463 22.1287 21.9954C22.0751 22.1445 21.9902 22.2804 21.8798 22.394C21.7694 22.5075 21.6359 22.5962 21.4884 22.654C21.3409 22.7118 21.1828 22.7374 21.0246 22.729C20.8664 22.7207 20.7118 22.6786 20.5712 22.6056C20.4306 22.5326 20.3072 22.4304 20.2094 22.3058C19.3964 21.5378 18.5954 20.7589 17.7864 19.9869C17.6442 19.8575 17.5317 19.6988 17.4565 19.5219C17.3812 19.345 17.345 19.154 17.3504 18.9618C17.3594 16.2678 17.3505 13.5728 17.3615 10.8788C17.3615 10.0788 17.8024 9.60376 18.4894 9.61576C19.1554 9.62676 19.5594 10.0928 19.5624 10.8708C19.5624 12.0988 19.5624 13.3268 19.5624 14.5548H19.5595Z" fill="#F2F2F2"/>
<path id="Path 3087" d="M9.59873 20.1866C9.43459 20.1977 9.26984 20.1977 9.10569 20.1866C8.83099 20.1517 8.57875 20.0169 8.39707 19.8079C8.2154 19.5989 8.11703 19.3304 8.1207 19.0535C8.13448 18.7774 8.25119 18.5163 8.44773 18.3218C8.64427 18.1273 8.90642 18.0135 9.18272 18.0026C9.43772 17.9866 9.69478 17.9906 9.95078 18.0026C10.1016 17.9911 10.2531 18.0113 10.3956 18.0621C10.5381 18.1129 10.6683 18.1932 10.7778 18.2975C10.8873 18.4019 10.9736 18.5281 11.0311 18.668C11.0886 18.8079 11.1162 18.9583 11.1118 19.1096C11.1122 19.2562 11.0829 19.4015 11.0259 19.5367C10.9688 19.6718 10.885 19.794 10.7796 19.8961C10.6742 19.9981 10.5494 20.0779 10.4125 20.1305C10.2755 20.1832 10.1294 20.2077 9.98277 20.2026C9.85477 20.2096 9.72673 20.2026 9.59873 20.2026V20.1866Z" fill="#F2F2F2"/>
<path id="Path 3088" d="M19.5524 27.9202C19.5524 28.0482 19.5584 28.1762 19.5524 28.3042C19.5525 28.6001 19.4369 28.8843 19.2303 29.096C19.0236 29.3077 18.7422 29.4301 18.4464 29.4372C18.1512 29.4301 17.8708 29.3067 17.6663 29.0937C17.4617 28.8807 17.3496 28.5955 17.3544 28.3002C17.3454 28.0632 17.3464 27.8252 17.3544 27.5872C17.3459 27.4408 17.3672 27.2943 17.417 27.1564C17.4669 27.0185 17.5443 26.8922 17.6444 26.7851C17.7446 26.678 17.8655 26.5924 17.9998 26.5335C18.1341 26.4746 18.2788 26.4434 18.4254 26.4422C18.5767 26.4379 18.7272 26.4649 18.8676 26.5214C19.008 26.5779 19.1352 26.6629 19.2412 26.7708C19.3473 26.8787 19.43 27.0074 19.484 27.1487C19.5381 27.2901 19.5624 27.441 19.5555 27.5922C19.5575 27.7002 19.5534 27.8132 19.5524 27.9202Z" fill="#F2F2F2"/>
<path id="Path 3089" d="M27.3061 20.2035C27.1421 20.2035 26.9761 20.2155 26.8131 20.2035C26.546 20.1879 26.2944 20.0729 26.1077 19.8812C25.9209 19.6895 25.8126 19.435 25.8041 19.1675C25.7821 18.8997 25.863 18.6335 26.0301 18.4231C26.1973 18.2127 26.4382 18.0738 26.7041 18.0346C27.0851 17.9855 27.4708 17.9838 27.8522 18.0296C28.1175 18.0675 28.3597 18.201 28.5336 18.405C28.7074 18.6091 28.8008 18.8695 28.7961 19.1375C28.7847 19.414 28.6709 19.6764 28.4769 19.8738C28.2829 20.0712 28.0224 20.1893 27.7461 20.2055C27.5991 20.2135 27.4521 20.2035 27.3061 20.2035Z" fill="#F2F2F2"/>
<path id="Path 3090" d="M28.7372 9.8888C28.741 10.0351 28.7152 10.1807 28.6615 10.3168C28.6078 10.4529 28.5271 10.5767 28.4245 10.6809C28.3218 10.7852 28.1991 10.8678 28.0639 10.9236C27.9286 10.9794 27.7835 11.0073 27.6372 11.0057C27.4907 11.0093 27.3449 10.9835 27.2086 10.9297C27.0723 10.8759 26.9482 10.7953 26.8436 10.6926C26.7391 10.59 26.6562 10.4674 26.5999 10.3322C26.5435 10.1969 26.5148 10.0517 26.5156 9.90516C26.5164 9.75862 26.5467 9.61366 26.6045 9.47901C26.6623 9.34436 26.7466 9.22271 26.8523 9.12122C26.958 9.01974 27.083 8.94049 27.2199 8.88819C27.3568 8.83589 27.5027 8.81162 27.6492 8.81678C27.9355 8.81492 28.2109 8.92671 28.4149 9.12769C28.6189 9.32868 28.7348 9.60245 28.7372 9.8888Z" fill="#F2F2F2"/>
<path id="Path 3091" d="M37.6015 54.7858H37.0686C30.2226 54.7858 23.3766 54.7902 16.5306 54.7989C16.0676 54.7989 15.9185 54.6629 15.8305 54.2309C15.0872 50.7949 14.3269 47.3615 13.5495 43.9308C13.4495 43.4898 13.5576 43.4308 13.9736 43.4308C17.5336 43.4468 21.0946 43.4399 24.6556 43.4399C24.8026 43.4399 24.9496 43.4459 25.0956 43.4399C25.24 43.4382 25.3828 43.4082 25.5156 43.3514C25.6484 43.2946 25.7687 43.2121 25.8697 43.1088C25.9707 43.0055 26.0503 42.8834 26.1041 42.7493C26.1579 42.6152 26.1847 42.4718 26.1831 42.3273C26.1814 42.1829 26.1514 42.0402 26.0946 41.9074C26.0378 41.7746 25.9553 41.6541 25.852 41.5532C25.7487 41.4522 25.6266 41.3726 25.4925 41.3188C25.3584 41.265 25.215 41.2383 25.0705 41.2399C24.9245 41.2329 24.7766 41.2399 24.6306 41.2399C20.9046 41.2399 17.1786 41.2319 13.4536 41.2509C13.0646 41.2509 12.9026 41.1509 12.8476 40.7709C12.7823 40.3361 12.688 39.9061 12.5655 39.4838C12.4655 39.1178 12.5955 39.0089 12.9355 39.0369C13.0085 39.0429 13.0826 39.0369 13.1556 39.0369C19.965 39.0369 26.7743 39.0339 33.5836 39.0279C33.9996 39.0279 34.1836 39.1198 34.2776 39.5618C35.3776 44.5878 36.5006 49.6089 37.6166 54.6319C37.6168 54.6836 37.6117 54.7351 37.6015 54.7858ZM30.5826 42.3809C30.5893 42.2348 30.5665 42.0889 30.5156 41.9518C30.4647 41.8148 30.3868 41.6892 30.2864 41.5829C30.1859 41.4767 30.0651 41.3917 29.9311 41.3331C29.7972 41.2745 29.6528 41.2435 29.5066 41.2419C29.2148 41.2384 28.9337 41.351 28.725 41.5549C28.5162 41.7587 28.397 42.0372 28.3935 42.3289C28.3901 42.6207 28.5027 42.9018 28.7065 43.1105C28.9104 43.3193 29.1888 43.4384 29.4806 43.4418C29.7661 43.4456 30.0416 43.337 30.2478 43.1395C30.4539 42.9419 30.5742 42.6713 30.5826 42.3859V42.3809Z" fill="#F2F2F2"/>
<path id="Path 3092" d="M49.1577 54.7867C46.2577 54.7867 43.3577 54.7788 40.4647 54.7958C40.0597 54.7958 39.8747 54.7348 39.7767 54.2768C39.1017 51.1098 38.3896 47.9508 37.6686 44.7938C37.6388 44.6715 37.6436 44.5433 37.6824 44.4236C37.7213 44.3038 37.7927 44.1973 37.8887 44.1158C39.2695 42.5016 41.0622 41.2921 43.076 40.6161C45.0898 39.9401 47.2492 39.8229 49.3243 40.2771C51.3994 40.7313 53.3124 41.7398 54.8597 43.1952C56.407 44.6506 57.5305 46.4983 58.1107 48.5417C58.5271 50.2915 58.6751 52.0945 58.5496 53.8888C58.5496 54.7888 58.5497 54.7888 57.6317 54.7888L49.1577 54.7867Z" fill="#F2F2F2"/>
<path id="Path 3093" d="M32.612 56.9893C41.0737 56.9893 49.5354 56.9856 57.9971 56.9783C58.4551 56.9783 58.5971 57.0783 58.5581 57.5423C58.5081 58.0682 58.7361 58.7823 58.4692 59.0822C58.1622 59.4262 57.4361 59.1822 56.8941 59.1872C40.3193 59.1932 23.7446 59.1989 7.16983 59.2042C6.66984 59.2042 6.50288 59.0873 6.55388 58.5853C6.60488 58.0833 6.3828 57.3853 6.64079 57.0973C6.94078 56.7593 7.64085 56.9974 8.16283 56.9974C16.3126 56.988 24.4622 56.9853 32.612 56.9893Z" fill="#F2F2F2"/>
<path id="Path 3094" d="M52.4107 28.5592C52.482 30.1758 52.4358 31.7953 52.2726 33.4052C51.9754 34.7275 51.2072 35.8967 50.1114 36.6942C49.0155 37.4918 47.667 37.8634 46.3173 37.7398C44.9676 37.6161 43.7089 37.0056 42.7763 36.0221C41.8436 35.0387 41.3007 33.7495 41.2487 32.3952C41.2387 31.8632 41.2707 31.3292 41.2367 30.7952C41.2117 30.4162 41.3126 30.3013 41.7096 30.3083C43.2096 30.3343 44.7187 30.3012 46.2227 30.3222C48.3438 30.4063 50.4369 29.8153 52.2007 28.6342C52.2685 28.6033 52.3387 28.5782 52.4107 28.5592Z" fill="#F2F2F2"/>
<path id="Path 3095" d="M44.3966 28.1205C43.4966 28.1205 42.5967 28.1065 41.7017 28.1275C41.3617 28.1355 41.2336 28.0715 41.2406 27.6855C41.2774 26.4197 41.7432 25.204 42.5618 24.2378C43.3804 23.2717 44.5031 22.6124 45.7456 22.3682C46.9882 22.124 48.2769 22.3095 49.4002 22.8941C50.5235 23.4787 51.4147 24.4277 51.9276 25.5855C51.9834 25.6869 51.998 25.8057 51.9682 25.9175C51.9384 26.0293 51.8666 26.1253 51.7677 26.1855C50.4417 27.3949 48.7201 28.0794 46.9257 28.1105C46.0837 28.1365 45.2397 28.1105 44.3957 28.1105L44.3966 28.1205Z" fill="#F2F2F2"/>
<path id="Path 3096" d="M30.582 42.3818C30.5739 42.6671 30.4541 42.9378 30.2484 43.1357C30.0426 43.3335 29.7674 43.4427 29.482 43.4397C29.3376 43.438 29.1949 43.4079 29.0621 43.351C28.9293 43.2941 28.809 43.2117 28.7081 43.1083C28.6071 43.005 28.5275 42.8828 28.4738 42.7487C28.4201 42.6146 28.3934 42.4712 28.3951 42.3267C28.3968 42.1823 28.4269 42.0396 28.4837 41.9068C28.5406 41.774 28.623 41.6536 28.7264 41.5527C28.8297 41.4517 28.952 41.3722 29.0861 41.3185C29.2202 41.2648 29.3636 41.238 29.508 41.2397C29.6543 41.2415 29.7987 41.2728 29.9327 41.3317C30.0666 41.3906 30.1874 41.476 30.2877 41.5826C30.3879 41.6892 30.4656 41.8149 30.5162 41.9522C30.5668 42.0895 30.5891 42.2356 30.582 42.3818Z" fill="#F2F2F2"/>
</g>
<g id="Group 7486">
<path id="Path 3084_2" d="M0.359985 50.5585C0.496928 50.2905 0.713448 50.0713 0.979838 49.9311C1.24623 49.7909 1.54948 49.7367 1.84797 49.7756C4.44789 49.8056 7.05786 49.7876 9.70977 49.7876C9.17279 47.3776 8.64377 45.0068 8.11778 42.6348C7.53914 40.0249 6.96282 37.414 6.38884 34.8021C6.29337 34.4458 6.28292 34.0719 6.35832 33.7108C6.43373 33.3497 6.59282 33.0114 6.82291 32.7231C7.05299 32.4347 7.34762 32.2043 7.68298 32.0506C8.01835 31.8969 8.38511 31.8242 8.75375 31.8382C15.8202 31.8302 22.8866 31.8302 29.953 31.8382C30.4996 31.8208 31.0348 31.9959 31.4653 32.3332C31.8957 32.6704 32.1941 33.1483 32.308 33.6831C32.438 34.1981 32.539 34.719 32.657 35.237C32.769 35.729 32.885 36.2201 33.017 36.786C33.7781 36.0748 34.6025 35.4345 35.4799 34.873C36.3398 34.3473 37.2515 33.9117 38.2008 33.5731C38.1448 33.3671 37.9547 33.3071 37.8227 33.1941C36.9655 32.4974 36.2725 31.6201 35.793 30.6249C35.3136 29.6296 35.0595 28.5409 35.0489 27.4362C35.0169 25.8583 35.0219 24.2794 35.0489 22.7004C35.0827 20.794 35.8159 18.9665 37.109 17.5654C38.4022 16.1642 40.165 15.287 42.0626 15.1007C44.0378 14.8979 46.015 15.466 47.5813 16.6862C49.1476 17.9065 50.1819 19.6847 50.4683 21.6495C50.7581 23.9456 50.7581 26.2691 50.4683 28.5652C50.2232 30.3888 49.2774 32.0452 47.8314 33.1831C47.7204 33.2781 47.6075 33.3691 47.4965 33.4651C47.4845 33.4751 47.4845 33.4981 47.4605 33.5651C47.7145 33.6651 47.9795 33.7581 48.2314 33.8771C53.6513 36.421 56.5432 40.6709 56.7312 46.6677C56.8182 49.4546 56.7472 52.2475 56.7452 55.0374C56.7452 56.0174 56.3591 56.4023 55.3732 56.4023C37.4944 56.4023 19.6158 56.4057 1.73701 56.4123C1.45576 56.4301 1.17538 56.3657 0.930035 56.227C0.684686 56.0884 0.484862 55.8815 0.35498 55.6314L0.359985 50.5585ZM33.6009 49.7876C33.6093 49.7363 33.6123 49.6844 33.61 49.6325C32.494 44.6097 31.3699 39.5899 30.271 34.5631C30.171 34.1211 29.993 34.028 29.577 34.029C22.7679 34.041 15.9588 34.0441 9.14973 34.0381C9.07674 34.0381 9.00277 34.0431 8.92977 34.0381C8.59078 34.0101 8.45479 34.1191 8.55979 34.4851C8.68229 34.9073 8.77647 35.3373 8.84176 35.772C8.89676 36.151 9.05871 36.254 9.4477 36.252C13.1736 36.233 16.8994 36.241 20.6253 36.241C20.7723 36.241 20.9194 36.236 21.0654 36.241C21.2098 36.2394 21.3531 36.2662 21.4872 36.32C21.6213 36.3737 21.7435 36.4534 21.8468 36.5544C21.9501 36.6553 22.0324 36.7756 22.0892 36.9085C22.146 37.0413 22.1761 37.184 22.1777 37.3285C22.1794 37.4729 22.1527 37.6163 22.0989 37.7504C22.0451 37.8844 21.9655 38.0067 21.8645 38.11C21.7635 38.2133 21.6431 38.2956 21.5103 38.3524C21.3775 38.4092 21.2348 38.4392 21.0904 38.4409C20.9444 38.4499 20.7963 38.4409 20.6503 38.4409C17.0894 38.4409 13.5296 38.448 9.96868 38.432C9.55269 38.432 9.44474 38.493 9.54474 38.932C10.3227 42.3605 11.083 45.7937 11.8257 49.2315C11.9187 49.6635 12.0676 49.8005 12.5256 49.7995C19.3714 49.7802 26.2171 49.7759 33.0629 49.7866L33.6009 49.7876ZM45.1566 49.7876H53.6303C54.5483 49.7876 54.5493 49.7875 54.5483 48.8876C54.6738 47.0933 54.5258 45.2905 54.1093 43.5408C53.5291 41.4974 52.4055 39.6497 50.8583 38.1943C49.3111 36.739 47.3981 35.7305 45.3231 35.2763C43.2481 34.8222 41.0887 34.9393 39.075 35.6153C37.0613 36.2913 35.2686 37.5008 33.8879 39.1149C33.7919 39.1964 33.7205 39.3029 33.6816 39.4227C33.6428 39.5424 33.6381 39.6706 33.668 39.7929C34.3889 42.9498 35.0998 46.1087 35.7758 49.2756C35.8758 49.7336 36.0588 49.7965 36.4638 49.7945C39.3617 49.7795 42.2597 49.7876 45.1566 49.7876ZM28.6111 51.9874C20.4614 51.9874 12.3116 51.9891 4.16186 51.9924C3.63788 51.9924 2.93793 51.7575 2.63994 52.0925C2.38295 52.3845 2.6039 53.0724 2.55291 53.5804C2.50191 54.0884 2.67099 54.2004 3.16897 54.1994C19.7438 54.1854 36.3185 54.1798 52.8933 54.1824C53.4353 54.1824 54.1612 54.4214 54.4682 54.0775C54.7352 53.7775 54.5073 53.0635 54.5573 52.5375C54.6013 52.0755 54.4573 51.9725 53.9963 51.9735C45.5352 51.9929 37.0735 51.9985 28.6111 51.9905V51.9874ZM48.4104 23.5564C48.3379 23.5768 48.2673 23.6037 48.1995 23.6364C46.4357 24.8176 44.3427 25.4086 42.2216 25.3244C40.7217 25.3034 39.2128 25.3353 37.7088 25.3103C37.3089 25.3033 37.2088 25.4194 37.2358 25.7974C37.2698 26.3274 37.2358 26.8603 37.2478 27.3973C37.2998 28.7516 37.8428 30.0407 38.7755 31.0241C39.7081 32.0075 40.9666 32.618 42.3162 32.7416C43.6659 32.8653 45.0144 32.4937 46.1102 31.6961C47.206 30.8986 47.9743 29.7296 48.2715 28.4073C48.4349 26.7968 48.4813 25.1766 48.4104 23.5594V23.5564ZM40.3967 23.1174V23.1124C41.2397 23.1124 42.0836 23.1344 42.9266 23.1124C44.721 23.0813 46.4425 22.397 47.7684 21.1876C47.8673 21.1274 47.9391 21.0314 47.9689 20.9196C47.9987 20.8078 47.9842 20.6888 47.9285 20.5875C47.4155 19.4297 46.5242 18.4807 45.401 17.8962C44.2777 17.3116 42.9892 17.1263 41.7467 17.3704C40.5042 17.6146 39.3815 18.2737 38.5629 19.2399C37.7444 20.206 37.2785 21.4218 37.2418 22.6875C37.2348 23.0735 37.3638 23.1364 37.7027 23.1294C38.6007 23.1064 39.4987 23.1205 40.3977 23.1205L40.3967 23.1174Z" fill="#010101"/>
<path id="Path 3085_2" d="M15.89 0.00512695C16.575 0.150127 17.261 0.287214 17.943 0.444214C18.7262 0.631248 19.4892 0.894392 20.2211 1.2301C20.3736 1.2746 20.5146 1.35131 20.635 1.45496C20.7554 1.5586 20.8522 1.68687 20.9188 1.83105C20.9855 1.97524 21.0205 2.13205 21.0215 2.29089C21.0225 2.44974 20.9893 2.60684 20.9244 2.75183C20.8596 2.89682 20.7644 3.02624 20.6453 3.13135C20.5262 3.23646 20.3859 3.31485 20.234 3.36121C20.0821 3.40757 19.922 3.42086 19.7645 3.40015C19.607 3.37944 19.4558 3.32527 19.321 3.24121C14.821 1.40721 10.568 1.89313 6.84497 5.00513C5.11916 6.45142 3.84053 8.35897 3.15845 10.5049C2.47636 12.6508 2.41901 14.9465 2.99304 17.1238C3.56707 19.3011 4.74887 21.2701 6.40027 22.8008C8.05167 24.3315 10.1044 25.3607 12.319 25.7682C13.8862 26.0684 15.4981 26.0476 17.057 25.7072C18.6159 25.3667 20.0896 24.7136 21.3889 23.7874C22.6882 22.8611 23.7863 21.6809 24.6165 20.3182C25.4467 18.9555 25.9918 17.4386 26.219 15.8591C26.573 13.5787 26.2435 11.2444 25.272 9.15112C25.1565 8.95113 25.1043 8.72097 25.1222 8.49072C25.14 8.26048 25.2271 8.04101 25.3721 7.86121C25.4982 7.70143 25.6677 7.58151 25.8604 7.51587C26.053 7.45023 26.2606 7.44166 26.458 7.49121C26.951 7.58421 27.1711 7.95817 27.3461 8.37817C28.303 10.4843 28.7161 12.7969 28.5477 15.1041C28.3793 17.4113 27.6347 19.6393 26.3821 21.5841C24.8854 24.0048 22.6857 25.9114 20.0769 27.0491C17.4681 28.1868 14.5743 28.5015 11.782 27.9512C9.01192 27.4098 6.46717 26.0521 4.47485 24.0529C2.48254 22.0536 1.13381 19.5041 0.602051 16.7322C0.589105 16.3574 0.506007 15.9883 0.357056 15.6442V12.4502C0.579056 12.2852 0.516002 12.0212 0.552002 11.8062C1.00973 9.00187 2.30625 6.4021 4.27075 4.34924C6.23525 2.29638 8.77557 0.886743 11.557 0.306152C12.0235 0.282192 12.4825 0.178673 12.9141 0.00012207L15.89 0.00512695Z" fill="#030303"/>
<path id="Path 3086_2" d="M15.5596 9.555C15.5596 10.783 15.5695 12.011 15.5525 13.239C15.5456 13.3642 15.5679 13.4892 15.6177 13.6043C15.6675 13.7194 15.7435 13.8213 15.8395 13.9019C16.4835 14.5019 17.1185 15.1103 17.7445 15.727C17.8718 15.8213 17.9775 15.9417 18.0545 16.0801C18.1314 16.2186 18.1778 16.372 18.1906 16.5299C18.2034 16.6877 18.1824 16.8465 18.1288 16.9956C18.0752 17.1446 17.9903 17.2805 17.8799 17.3941C17.7695 17.5077 17.6361 17.5963 17.4886 17.6541C17.3411 17.7119 17.1829 17.7375 17.0247 17.7292C16.8665 17.7208 16.7119 17.6788 16.5713 17.6058C16.4307 17.5328 16.3074 17.4306 16.2095 17.306C15.3965 16.538 14.5955 15.759 13.7865 14.987C13.6443 14.8576 13.5318 14.6989 13.4566 14.522C13.3813 14.3451 13.3451 14.1542 13.3505 13.962C13.3595 11.268 13.3506 8.57298 13.3616 5.87898C13.3616 5.07898 13.8025 4.60391 14.4895 4.61591C15.1555 4.62691 15.5595 5.09292 15.5625 5.87092C15.5625 7.09892 15.5625 8.327 15.5625 9.555H15.5596Z" fill="#22438A"/>
<path id="Path 3087_2" d="M5.59885 15.1868C5.43471 15.1979 5.26996 15.1979 5.10581 15.1868C4.83111 15.1519 4.57887 15.0171 4.39719 14.8081C4.21552 14.5991 4.11715 14.3306 4.12083 14.0537C4.1346 13.7775 4.25131 13.5165 4.44785 13.322C4.64439 13.1275 4.90654 13.0137 5.18284 13.0028C5.43784 12.9868 5.69491 12.9908 5.95091 13.0028C6.10173 12.9912 6.25325 13.0114 6.39573 13.0622C6.53821 13.1131 6.66845 13.1933 6.77793 13.2977C6.88741 13.4021 6.97369 13.5283 7.03123 13.6682C7.08876 13.8081 7.11628 13.9585 7.11192 14.1097C7.11227 14.2564 7.08305 14.4017 7.02598 14.5369C6.96891 14.672 6.88516 14.7942 6.77976 14.8962C6.67437 14.9983 6.54949 15.0781 6.41258 15.1307C6.27566 15.1834 6.12949 15.2079 5.98289 15.2028C5.85489 15.2098 5.72685 15.2028 5.59885 15.2028V15.1868Z" fill="#030303"/>
<path id="Path 3088_2" d="M15.5525 22.9204C15.5525 23.0484 15.5585 23.1764 15.5525 23.3044C15.5526 23.6003 15.4371 23.8845 15.2304 24.0962C15.0237 24.3079 14.7424 24.4303 14.4466 24.4374C14.1514 24.4303 13.871 24.3068 13.6664 24.0939C13.4619 23.8809 13.3497 23.5957 13.3545 23.3004C13.3455 23.0634 13.3465 22.8254 13.3545 22.5874C13.346 22.441 13.3673 22.2945 13.4171 22.1566C13.467 22.0187 13.5444 21.8923 13.6446 21.7853C13.7447 21.6782 13.8656 21.5926 13.9999 21.5337C14.1342 21.4747 14.2789 21.4436 14.4256 21.4424C14.5768 21.4381 14.7273 21.4651 14.8677 21.5216C15.0081 21.5781 15.1353 21.663 15.2414 21.771C15.3474 21.8789 15.4301 22.0076 15.4842 22.1489C15.5382 22.2902 15.5625 22.4412 15.5556 22.5924C15.5576 22.7004 15.5535 22.8134 15.5525 22.9204Z" fill="#030303"/>
<path id="Path 3089_2" d="M23.3063 15.2037C23.1423 15.2037 22.9762 15.2157 22.8132 15.2037C22.5461 15.1881 22.2945 15.0731 22.1078 14.8814C21.9211 14.6897 21.8127 14.4351 21.8042 14.1677C21.7823 13.8998 21.8631 13.6337 22.0303 13.4233C22.1974 13.2129 22.4384 13.074 22.7042 13.0347C23.0852 12.9857 23.4709 12.984 23.8523 13.0297C24.1176 13.0677 24.3599 13.2012 24.5337 13.4052C24.7075 13.6092 24.8009 13.8697 24.7963 14.1377C24.7848 14.4142 24.6711 14.6766 24.477 14.874C24.283 15.0713 24.0225 15.1895 23.7462 15.2056C23.5992 15.2136 23.4523 15.2037 23.3063 15.2037Z" fill="#030303"/>
<path id="Path 3090_2" d="M24.7373 4.88898C24.7411 5.03526 24.7154 5.18086 24.6616 5.31696C24.6079 5.45307 24.5272 5.57684 24.4246 5.6811C24.3219 5.78536 24.1992 5.86796 24.064 5.92377C23.9287 5.97958 23.7837 6.00745 23.6373 6.00593C23.4909 6.00948 23.3451 5.98367 23.2088 5.92988C23.0725 5.87608 22.9484 5.79546 22.8438 5.69282C22.7392 5.59018 22.6563 5.46762 22.6 5.33234C22.5437 5.19707 22.515 5.05188 22.5158 4.90534C22.5166 4.75881 22.5468 4.61384 22.6046 4.47919C22.6625 4.34455 22.7467 4.22289 22.8524 4.12141C22.9581 4.01992 23.0831 3.94067 23.22 3.88837C23.3569 3.83608 23.5029 3.81181 23.6493 3.81696C23.9357 3.8151 24.2111 3.92689 24.4151 4.12788C24.619 4.32886 24.7349 4.60263 24.7373 4.88898Z" fill="#030303"/>
<path id="Path 3091_2" d="M33.6017 49.786H33.0687C26.2227 49.786 19.3767 49.7904 12.5307 49.799C12.0677 49.799 11.9187 49.663 11.8307 49.231C11.0873 45.795 10.327 42.3617 9.54966 38.931C9.44966 38.49 9.55774 38.431 9.97374 38.431C13.5337 38.447 17.0947 38.44 20.6557 38.44C20.8027 38.44 20.9497 38.446 21.0957 38.44C21.2401 38.4384 21.3829 38.4083 21.5157 38.3515C21.6486 38.2947 21.7689 38.2123 21.8699 38.109C21.9708 38.0057 22.0505 37.8836 22.1042 37.7495C22.158 37.6154 22.1848 37.4719 22.1832 37.3275C22.1816 37.183 22.1515 37.0404 22.0947 36.9076C22.0379 36.7747 21.9555 36.6543 21.8522 36.5533C21.7488 36.4523 21.6267 36.3727 21.4927 36.3189C21.3586 36.2652 21.2151 36.2384 21.0707 36.2401C20.9247 36.2331 20.7767 36.2401 20.6307 36.2401C16.9047 36.2401 13.1787 36.2321 9.45372 36.2511C9.06472 36.2511 8.90276 36.1511 8.84776 35.7711C8.78247 35.3363 8.68816 34.9062 8.56565 34.484C8.46565 34.118 8.59565 34.0091 8.93565 34.0371C9.00865 34.0431 9.08274 34.0371 9.15574 34.0371C15.9651 34.0371 22.7744 34.034 29.5837 34.028C29.9997 34.028 30.1837 34.12 30.2777 34.562C31.3777 39.588 32.5007 44.609 33.6167 49.632C33.6169 49.6838 33.6119 49.7353 33.6017 49.786ZM26.5827 37.3811C26.5895 37.235 26.5666 37.0891 26.5157 36.952C26.4648 36.8149 26.3869 36.6894 26.2865 36.5831C26.1861 36.4768 26.0652 36.3918 25.9313 36.3332C25.7973 36.2746 25.6529 36.2436 25.5067 36.242C25.215 36.2386 24.9338 36.3512 24.7251 36.555C24.5164 36.7589 24.3971 37.0373 24.3937 37.3291C24.3902 37.6208 24.5028 37.902 24.7066 38.1107C24.9105 38.3194 25.189 38.4385 25.4807 38.442C25.7662 38.4458 26.0417 38.3372 26.2479 38.1396C26.4541 37.9421 26.5744 37.6715 26.5827 37.3861V37.3811Z" fill="black"/>
<path id="Path 3092_2" d="M45.1578 49.7869C42.2578 49.7869 39.3578 49.7789 36.4648 49.7959C36.0598 49.7959 35.8748 49.735 35.7768 49.277C35.1018 46.11 34.3898 42.951 33.6688 39.794C33.6389 39.6717 33.6437 39.5435 33.6826 39.4237C33.7214 39.304 33.7929 39.1974 33.8889 39.116C35.2696 37.5017 37.0623 36.2922 39.0761 35.6162C41.0899 34.9402 43.2493 34.8231 45.3244 35.2772C47.3995 35.7314 49.3125 36.7399 50.8598 38.1953C52.4071 39.6507 53.5306 41.4985 54.1108 43.5419C54.5273 45.2917 54.6752 47.0947 54.5498 48.8889C54.5498 49.7889 54.5498 49.789 53.6318 49.789L45.1578 49.7869Z" fill="#FDFDFD"/>
<path id="Path 3093_2" d="M28.6121 51.9895C37.0738 51.9895 45.5355 51.9858 53.9972 51.9785C54.4552 51.9785 54.5973 52.0785 54.5583 52.5424C54.5083 53.0684 54.7363 53.7824 54.4693 54.0824C54.1623 54.4264 53.4362 54.1824 52.8943 54.1874C36.3195 54.1934 19.7447 54.199 3.16995 54.2044C2.66996 54.2044 2.503 54.0875 2.554 53.5855C2.605 53.0835 2.38292 52.3855 2.64091 52.0975C2.9409 51.7595 3.64097 51.9975 4.16296 51.9975C12.3127 51.9882 20.4624 51.9855 28.6121 51.9895Z" fill="black"/>
<path id="Path 3094_2" d="M48.4108 23.5594C48.4821 25.1759 48.4359 26.7955 48.2727 28.4053C47.9755 29.7277 47.2073 30.8968 46.1115 31.6944C45.0157 32.492 43.6671 32.8636 42.3174 32.7399C40.9677 32.6163 39.7091 32.0057 38.7764 31.0223C37.8437 30.0388 37.3008 28.7497 37.2488 27.3953C37.2388 26.8633 37.2708 26.3293 37.2368 25.7953C37.2118 25.4163 37.3127 25.3014 37.7097 25.3084C39.2097 25.3344 40.7188 25.3013 42.2228 25.3223C44.3439 25.4065 46.437 24.8155 48.2008 23.6343C48.2686 23.6034 48.3388 23.5784 48.4108 23.5594Z" fill="#22438A"/>
<path id="Path 3095_2" d="M40.3968 23.1207C39.4968 23.1207 38.5968 23.1066 37.7018 23.1276C37.3618 23.1356 37.2337 23.0716 37.2407 22.6856C37.2775 21.4198 37.7433 20.2042 38.5619 19.238C39.3805 18.2718 40.5032 17.6125 41.7458 17.3684C42.9883 17.1242 44.277 17.3097 45.4003 17.8942C46.5236 18.4788 47.4148 19.4279 47.9278 20.5856C47.9835 20.687 47.9981 20.8059 47.9683 20.9177C47.9385 21.0295 47.8667 21.1255 47.7678 21.1856C46.4418 22.3951 44.7203 23.0795 42.9258 23.1107C42.0838 23.1367 41.2398 23.1107 40.3958 23.1107L40.3968 23.1207Z" fill="#22438A"/>
<path id="Path 3096_2" d="M26.5821 37.3819C26.574 37.6673 26.4542 37.938 26.2485 38.1358C26.0428 38.3337 25.7676 38.4429 25.4821 38.4399C25.3377 38.4382 25.195 38.408 25.0622 38.3512C24.9294 38.2943 24.8091 38.2119 24.7082 38.1085C24.6073 38.0052 24.5277 37.883 24.474 37.7489C24.4203 37.6148 24.3935 37.4713 24.3952 37.3269C24.3969 37.1824 24.427 37.0398 24.4838 36.907C24.5407 36.7742 24.6232 36.6538 24.7265 36.5528C24.8299 36.4519 24.9521 36.3724 25.0863 36.3187C25.2204 36.265 25.3637 36.2381 25.5081 36.2399C25.6544 36.2417 25.7989 36.273 25.9328 36.3319C26.0668 36.3908 26.1876 36.4762 26.2878 36.5827C26.388 36.6893 26.4657 36.8151 26.5163 36.9524C26.5669 37.0897 26.5892 37.2358 26.5821 37.3819Z" fill="#030303"/>
</g>
</g>
</g>
<defs>
<clipPath id="clip0_18_223">
<rect width="60.42" height="61.4" fill="white" transform="translate(0.359985 0.00500488)"/>
</clipPath>
</defs>
</svg>
