<svg width="63" height="65" viewBox="0 0 63 65" fill="none" xmlns="http://www.w3.org/2000/svg">
<g id="2022-12_Learning_Development.svg" clip-path="url(#clip0_18_103)">
<g id="Group">
<g id="Group_2">
<path id="Path 1242" d="M60.7459 57.039C60.7459 56.863 60.7259 56.686 60.7139 56.486H45.7059C45.6929 56.693 45.6739 56.853 45.6739 57.013C45.6739 59.362 45.6879 61.713 45.6629 64.061C45.6579 64.561 45.8369 64.661 46.2939 64.661C50.9186 64.647 55.5433 64.647 60.1679 64.661C60.6799 64.661 60.7609 64.478 60.7579 64.028C60.7379 61.697 60.7489 59.366 60.7459 57.035" fill="#F2F2F2"/>
<path id="Path 1243" d="M40.1349 41.601C37.6223 41.5904 35.1093 41.5904 32.5959 41.601C31.7311 41.6206 30.8901 41.3172 30.2369 40.75C29.5313 40.1817 28.9617 39.4628 28.5696 38.646C28.1776 37.8292 27.973 36.9351 27.9709 36.029C27.9399 31.858 27.9759 27.686 27.9519 23.515C27.9285 22.0049 27.3223 20.5623 26.26 19.4887C25.1978 18.4151 23.7617 17.7936 22.2519 17.754C20.6686 17.726 19.0846 17.726 17.4999 17.754C16.7238 17.7781 15.9603 17.9564 15.2537 18.2785C14.5472 18.6005 13.9118 19.06 13.3846 19.63C12.8574 20.2001 12.4488 20.8693 12.1828 21.5988C11.9167 22.3283 11.7985 23.1034 11.8349 23.879C12.0279 26.822 12.2749 29.761 12.5019 32.7C12.8199 36.82 13.1549 40.938 13.4539 45.059C13.448 45.5026 13.5344 45.9425 13.7076 46.3508C13.8807 46.7592 14.1369 47.1271 14.4598 47.4312C14.7827 47.7353 15.1653 47.9689 15.5833 48.1173C16.0013 48.2657 16.4456 48.3255 16.8879 48.293H33.4429C35.6649 48.293 37.8869 48.313 40.1079 48.286C40.5552 48.3011 41.0009 48.2263 41.4187 48.066C41.8365 47.9057 42.2178 47.6631 42.5402 47.3527C42.8625 47.0423 43.1193 46.6704 43.2953 46.259C43.4712 45.8475 43.5628 45.4049 43.5647 44.9574C43.5665 44.51 43.4784 44.0667 43.3058 43.6538C43.1331 43.241 42.8794 42.867 42.5596 42.554C42.2397 42.241 41.8604 41.9954 41.4439 41.8317C41.0274 41.668 40.5823 41.5896 40.1349 41.601Z" fill="#F2F2F2"/>
<path id="Path 1244" d="M36.476 25.039C43.304 25.039 50.1323 25.039 56.961 25.039C57.153 25.039 57.345 25.018 57.571 25.004C57.571 24.504 57.587 24.073 57.571 23.639C57.552 23.239 57.657 22.912 58.09 22.89C58.572 22.866 58.676 23.235 58.678 23.636C58.678 24.085 58.678 24.536 58.678 25.042H59.508C59.8182 25.0755 60.1319 25.0393 60.4264 24.9363C60.7209 24.8333 60.9887 24.6659 61.2104 24.4464C61.4321 24.2269 61.6021 23.9608 61.7081 23.6674C61.8141 23.3739 61.8533 23.0605 61.823 22.75C61.8297 17.9414 61.8297 13.1327 61.823 8.32404C61.8582 8.00818 61.8213 7.68844 61.715 7.38892C61.6087 7.0894 61.4358 6.81792 61.2094 6.59493C60.9829 6.37193 60.7088 6.20325 60.4077 6.10159C60.1065 5.99993 59.7863 5.96794 59.471 6.00804H39.914C38.73 6.00804 37.546 5.98704 36.363 6.01804C36.0874 6.00681 35.8125 6.05321 35.5559 6.15429C35.2993 6.25537 35.0666 6.4089 34.8727 6.60505C34.6788 6.8012 34.528 7.03566 34.4299 7.29343C34.3318 7.5512 34.2886 7.82661 34.303 8.10204C34.2883 13.0354 34.2883 17.9717 34.303 22.911C34.2829 23.1997 34.3257 23.4893 34.4284 23.7598C34.5311 24.0303 34.6912 24.2753 34.8978 24.4779C35.1044 24.6805 35.3525 24.8359 35.625 24.9333C35.8974 25.0306 36.1878 25.0678 36.476 25.042" fill="#F2F2F2"/>
<path id="Path 1245" d="M45.675 46.104H60.711V37.99C60.531 37.976 60.389 37.955 60.246 37.955C55.566 37.955 50.887 37.955 46.208 37.942C45.751 37.942 45.666 38.116 45.669 38.518C45.684 40.23 45.675 41.942 45.674 43.654V46.105" fill="#F2F2F2"/>
<path id="Path 1246" d="M46.334 55.355C50.922 55.337 55.51 55.344 60.097 55.344H60.713V47.306C60.544 47.292 60.403 47.27 60.262 47.27C55.583 47.27 50.904 47.275 46.225 47.257C45.736 47.257 45.661 47.442 45.664 47.864C45.68 50.14 45.688 52.417 45.659 54.693C45.653 55.226 45.818 55.363 46.334 55.36M53.065 49.751C53.538 49.751 54.011 49.751 54.485 49.751C54.012 49.751 53.539 49.751 53.065 49.751Z" fill="#F2F2F2"/>
<path id="Path 1247" d="M37.99 59.11C37.504 58.828 37.005 58.566 36.499 58.321C34.552 57.376 32.606 56.426 30.643 55.513C30.4633 55.4578 30.3102 55.3384 30.2129 55.1776C30.1155 55.0168 30.0807 54.8258 30.115 54.641C30.15 54.248 30.122 53.85 30.122 53.386H28.762C27.423 53.386 27.41 53.386 27.414 54.709C27.4358 54.8688 27.4017 55.0313 27.3175 55.1688C27.2333 55.3064 27.1042 55.4107 26.952 55.464C26.319 55.74 25.701 56.051 25.081 56.356C23.2857 57.238 21.4923 58.1227 19.701 59.01C19.2318 59.2198 18.8301 59.5559 18.5408 59.9808C18.2516 60.4056 18.0861 60.9026 18.063 61.416C18.0262 61.9917 18.1627 62.5651 18.4548 63.0625C18.7469 63.5599 19.1812 63.9584 19.7019 64.2068C20.2225 64.4551 20.8055 64.5418 21.3759 64.4558C21.9463 64.3697 22.4778 64.1149 22.902 63.724C23.3325 63.3382 23.633 62.8285 23.7623 62.2651C23.8916 61.7016 23.8433 61.1119 23.624 60.577C23.494 60.24 23.551 60.098 23.867 59.952C24.89 59.479 25.901 58.978 26.918 58.491C27.042 58.432 27.176 58.396 27.418 58.31C27.418 59.11 27.401 59.829 27.423 60.55C27.4193 60.8345 27.5127 61.1116 27.6878 61.3358C27.8628 61.56 28.1091 61.7178 28.386 61.783C28.5923 61.8448 28.8103 61.8563 29.0219 61.8164C29.2335 61.7765 29.4325 61.6865 29.6021 61.5539C29.7717 61.4213 29.9071 61.2499 29.9969 61.0542C30.0866 60.8585 30.1282 60.6441 30.118 60.429C30.142 59.747 30.118 59.063 30.118 58.269L34.026 60.153C33.956 60.347 33.914 60.466 33.87 60.585C33.6034 61.271 33.611 62.0332 33.8912 62.7136C34.1714 63.3941 34.7027 63.9407 35.375 64.24C36.0577 64.5398 36.8293 64.5668 37.5313 64.3156C38.2333 64.0643 38.8125 63.5539 39.15 62.889C39.4803 62.2304 39.5436 61.4696 39.3267 60.7654C39.1099 60.0612 38.6296 59.4678 37.986 59.109" fill="#F2F2F2"/>
<path id="Path 1248" d="M62.619 35.307C62.527 34.68 62.064 34.34 61.258 34.34C50.7294 34.34 40.201 34.34 29.673 34.34C29.496 34.34 29.319 34.361 29.084 34.377C29.084 35.055 29.099 35.656 29.079 36.256C29.064 36.692 29.212 36.847 29.679 36.846C40.189 36.8334 50.6994 36.8294 61.21 36.834C61.3913 36.8417 61.5728 36.8259 61.75 36.787C61.9059 36.7485 62.0525 36.6793 62.1812 36.5834C62.3099 36.4875 62.4182 36.3668 62.4997 36.2285C62.5812 36.0902 62.6343 35.937 62.6558 35.7779C62.6773 35.6188 62.6669 35.457 62.625 35.302" fill="#F2F2F2"/>
<path id="Path 1249" d="M11.846 38.423C11.829 38.187 11.817 37.943 11.463 37.951C10.809 37.965 10.154 37.951 9.45203 37.951V64.651C10.152 64.651 10.809 64.614 11.459 64.663C12.004 64.704 12.123 64.505 12.122 63.989C12.106 56.738 12.122 49.489 12.098 42.236C12.098 40.964 11.938 39.693 11.846 38.423Z" fill="#F2F2F2"/>
<path id="Path 1250" d="M43.3661 29.689C45.6421 29.665 47.9181 29.676 50.1941 29.684C50.8601 29.684 51.002 29.833 51.012 30.484C51.023 31.249 51.0051 32.015 51.0331 32.779C51.0391 32.93 51.194 33.201 51.2871 33.204C52.2801 33.235 53.275 33.223 54.262 33.223V26.192H42.7351C42.7351 27.186 42.7621 28.114 42.7251 29.041C42.7051 29.541 42.8621 29.694 43.3661 29.689Z" fill="#F2F2F2"/>
<path id="Path 1251" d="M21.874 52.268C26.299 52.268 30.725 52.232 35.149 52.289C35.4662 52.3235 35.787 52.2855 36.0874 52.178C36.3877 52.0704 36.6597 51.896 36.8828 51.668C37.1059 51.4399 37.2744 51.1642 37.3754 50.8616C37.4764 50.559 37.5074 50.2374 37.466 49.921C37.447 49.493 37.329 49.367 36.9 49.37C34.132 49.388 31.364 49.379 28.6 49.379H24.774C23.263 49.379 21.751 49.369 20.24 49.392C20.064 49.392 19.761 49.554 19.734 49.685C19.6445 50.0026 19.6334 50.3371 19.7018 50.6599C19.7701 50.9827 19.9157 51.284 20.1262 51.5381C20.3367 51.7921 20.6057 51.9913 20.9102 52.1184C21.2146 52.2456 21.5454 52.2969 21.874 52.268Z" fill="#F2F2F2"/>
<path id="Path 1252" d="M32.807 33.237C38.302 33.22 43.797 33.226 49.291 33.227H49.891V30.784H42.973C39.552 30.784 36.132 30.79 32.711 30.776C32.311 30.776 32.148 30.876 32.176 31.296C32.2136 31.7316 32.2136 32.1695 32.176 32.605C32.122 33.12 32.313 33.239 32.81 33.238" fill="#F2F2F2"/>
<path id="Path 1253" d="M11.706 36.832C11.651 36.037 11.616 35.313 11.535 34.594C11.524 34.494 11.286 34.351 11.152 34.35C9.88 34.334 8.606 34.327 7.334 34.35C7.17826 34.3487 7.02398 34.3802 6.88119 34.4424C6.73841 34.5046 6.61032 34.5962 6.50525 34.7112C6.40018 34.8262 6.32048 34.962 6.27134 35.1098C6.22219 35.2576 6.2047 35.414 6.22 35.569C6.20491 35.7238 6.22153 35.8799 6.26885 36.028C6.31618 36.1761 6.39321 36.3129 6.49523 36.4302C6.59726 36.5475 6.72214 36.6427 6.86223 36.7101C7.00232 36.7775 7.15469 36.8156 7.31 36.822C8.743 36.851 10.177 36.831 11.71 36.831" fill="#F2F2F2"/>
<path id="Path 1254" d="M56.627 30.464C56.1786 30.6933 55.82 31.0662 55.6085 31.5232C55.3969 31.9801 55.3447 32.4949 55.46 32.985C55.4855 33.0441 55.5251 33.0959 55.5753 33.136C55.6255 33.1761 55.6848 33.2033 55.748 33.215C57.033 33.231 58.318 33.225 59.635 33.225C59.7969 32.5108 59.686 31.7618 59.324 31.125C59.0158 30.7248 58.5809 30.441 58.0904 30.3202C57.5999 30.1994 57.0829 30.2487 56.624 30.46" fill="#F2F2F2"/>
</g>
<g id="Group_3">
<path id="Path 1229" d="M22.345 42.052H10.829C10.3892 42.0839 9.94764 42.0241 9.53219 41.8764C9.11674 41.7287 8.73649 41.4963 8.41554 41.194C8.09459 40.8917 7.83994 40.526 7.66771 40.1201C7.49548 39.7142 7.40943 39.2769 7.41502 38.836C7.11502 34.736 6.78402 30.644 6.46802 26.548C6.24302 23.625 5.99702 20.703 5.80502 17.777C5.7691 17.0064 5.88676 16.2364 6.15116 15.5117C6.41555 14.787 6.82141 14.1221 7.34512 13.5557C7.86882 12.9893 8.49992 12.5326 9.20172 12.2123C9.90351 11.8921 10.662 11.7145 11.433 11.69C13.0077 11.66 14.583 11.66 16.159 11.69C17.6604 11.7291 19.0886 12.3469 20.1451 13.4144C21.2015 14.4818 21.8045 15.9163 21.828 17.418C21.851 21.566 21.816 25.718 21.846 29.861C21.8485 30.7622 22.0524 31.6514 22.4429 32.4636C22.8335 33.2758 23.4007 33.9904 24.103 34.555C24.7523 35.1189 25.5883 35.4205 26.448 35.401C28.9467 35.3857 31.4467 35.3857 33.948 35.401C34.3928 35.3896 34.8354 35.4676 35.2496 35.6303C35.6637 35.7931 36.041 36.0373 36.359 36.3485C36.677 36.6597 36.9294 37.0316 37.101 37.4421C37.2727 37.8527 37.3602 38.2935 37.3584 38.7384C37.3566 39.1834 37.2655 39.6235 37.0905 40.0326C36.9155 40.4417 36.6602 40.8115 36.3396 41.1202C36.0191 41.4288 35.6399 41.6699 35.2244 41.8293C34.809 41.9887 34.3657 42.0631 33.921 42.048C31.713 42.074 29.503 42.054 27.294 42.054H22.345" fill="black"/>
<path id="Path 1230" d="M52.381 18.933C52.381 18.428 52.381 17.982 52.381 17.533C52.381 17.133 52.275 16.768 51.796 16.792C51.366 16.813 51.261 17.141 51.28 17.537C51.3 17.969 51.28 18.402 51.28 18.895C51.056 18.908 50.865 18.929 50.674 18.929C43.8847 18.929 37.095 18.929 30.305 18.929C30.0183 18.955 29.7294 18.9183 29.4583 18.8215C29.1871 18.7247 28.9403 18.5702 28.7348 18.3685C28.5294 18.1668 28.3702 17.9229 28.2684 17.6536C28.1665 17.3844 28.1244 17.0962 28.145 16.809C28.1304 11.901 28.1304 6.99303 28.145 2.08503C28.1316 1.8117 28.1753 1.53858 28.2732 1.28305C28.3711 1.02752 28.5212 0.795181 28.7139 0.600833C28.9065 0.406485 29.1375 0.254385 29.3922 0.154217C29.6469 0.0540488 29.9196 0.00800873 30.193 0.0190283C31.369 -0.0119717 32.547 0.00902832 33.723 0.00902832H53.169C53.4819 -0.030005 53.7996 0.00232404 54.0981 0.10359C54.3967 0.204856 54.6685 0.372428 54.8931 0.593734C55.1177 0.81504 55.2892 1.08433 55.3948 1.38141C55.5005 1.67848 55.5375 1.99562 55.503 2.30903C55.511 7.09036 55.511 11.8717 55.503 16.653C55.5337 16.9617 55.4951 17.2734 55.3901 17.5653C55.285 17.8572 55.1162 18.1219 54.8958 18.3403C54.6754 18.5586 54.4091 18.7251 54.1163 18.8274C53.8234 18.9298 53.5114 18.9655 53.203 18.932L52.381 18.933Z" fill="#22438A"/>
<path id="Path 1231" d="M39.4819 50.198H54.4039C54.4159 50.398 54.4349 50.572 54.4359 50.748C54.4359 53.066 54.4279 55.384 54.4479 57.702C54.4479 58.15 54.3709 58.334 53.8619 58.331C49.2619 58.311 44.6636 58.311 40.0669 58.331C39.6129 58.331 39.4339 58.231 39.4389 57.731C39.4639 55.395 39.4489 53.059 39.4499 50.723C39.4499 50.564 39.4689 50.404 39.4819 50.198ZM46.8279 52.625C46.3407 52.5941 45.8519 52.6022 45.3659 52.649C45.1509 52.684 44.9779 52.98 44.7859 53.158C44.9719 53.344 45.1489 53.681 45.3449 53.692C46.3189 53.748 47.2989 53.731 48.2749 53.712C48.3532 53.7196 48.4321 53.7091 48.5056 53.6814C48.5792 53.6537 48.6455 53.6096 48.6993 53.5523C48.7532 53.4951 48.7932 53.4263 48.8164 53.3512C48.8395 53.2761 48.8452 53.1967 48.8329 53.119C48.8069 52.765 48.5739 52.625 48.2389 52.625H46.8279Z" fill="black"/>
<path id="Path 1232" d="M39.451 39.876V37.439C39.451 35.739 39.461 34.039 39.446 32.332C39.446 31.932 39.527 31.758 39.982 31.76C44.635 31.776 49.287 31.77 53.941 31.773C54.082 31.773 54.224 31.794 54.403 31.808V39.876H39.451ZM46.845 34.254H45.43C45.073 34.254 44.812 34.407 44.798 34.778C44.7913 34.8561 44.8019 34.9347 44.829 35.0082C44.8562 35.0817 44.8992 35.1484 44.9551 35.2033C45.011 35.2582 45.0784 35.3001 45.1523 35.326C45.2263 35.3519 45.3051 35.3611 45.383 35.353C46.343 35.366 47.303 35.368 48.263 35.353C48.341 35.3623 48.4201 35.3536 48.4941 35.3276C48.5682 35.3016 48.6353 35.2589 48.6904 35.2029C48.7454 35.1469 48.7869 35.0791 48.8116 35.0045C48.8363 34.93 48.8437 34.8508 48.833 34.773C48.81 34.389 48.555 34.254 48.2 34.255C47.747 34.255 47.294 34.255 46.842 34.255" fill="black"/>
<path id="Path 1233" d="M54.404 41.071V49.071H53.792C49.23 49.071 44.668 49.064 40.107 49.082C39.594 49.082 39.4299 48.949 39.4359 48.419C39.4649 46.156 39.4569 43.892 39.4359 41.629C39.4359 41.21 39.508 41.024 39.994 41.029C44.646 41.047 49.2939 41.04 53.9509 41.042C54.0909 41.042 54.231 41.064 54.399 41.078M46.7989 43.509C46.3459 43.509 45.899 43.509 45.442 43.509C45.085 43.509 44.82 43.653 44.8 44.021C44.779 44.421 45.057 44.606 45.428 44.611C46.3686 44.6217 47.3096 44.6217 48.251 44.611C48.3288 44.6203 48.4078 44.6119 48.482 44.5865C48.5562 44.5611 48.6237 44.5194 48.6796 44.4644C48.7355 44.4094 48.7783 44.3425 48.8049 44.2687C48.8314 44.1949 48.841 44.116 48.833 44.038C48.82 43.658 48.57 43.511 48.211 43.512C47.74 43.512 47.2699 43.512 46.7989 43.512" fill="black"/>
<path id="Path 1234" d="M23.987 47.121C23.987 47.582 24.014 47.978 23.98 48.369C23.9458 48.5528 23.9804 48.7427 24.0772 48.9026C24.174 49.0626 24.3263 49.1812 24.505 49.236C26.456 50.144 28.391 51.088 30.327 52.028C30.827 52.272 31.327 52.528 31.809 52.813C32.449 53.1699 32.9265 53.76 33.142 54.4603C33.3576 55.1606 33.2945 55.9171 32.966 56.572C32.6306 57.2332 32.0548 57.7408 31.3568 57.9905C30.6588 58.2403 29.8917 58.2133 29.213 57.915C28.5436 57.6182 28.0143 57.0749 27.735 56.398C27.4557 55.7211 27.4478 54.9626 27.713 54.28C27.756 54.162 27.798 54.043 27.868 53.85L23.983 51.977C23.983 52.767 24.002 53.447 23.983 54.125C23.9929 54.3388 23.9515 54.5518 23.8622 54.7463C23.7729 54.9408 23.6383 55.111 23.4697 55.2428C23.3011 55.3746 23.1034 55.4641 22.8931 55.5038C22.6828 55.5435 22.4661 55.5323 22.261 55.471C21.9857 55.4062 21.7407 55.2494 21.5665 55.0265C21.3923 54.8036 21.2994 54.5279 21.303 54.245C21.281 53.528 21.303 52.811 21.303 52.018C21.064 52.104 20.931 52.139 20.803 52.198C19.791 52.682 18.786 53.18 17.769 53.651C17.456 53.797 17.398 53.938 17.528 54.273C17.7454 54.805 17.7931 55.3911 17.6646 55.9512C17.5361 56.5114 17.2376 57.0181 16.81 57.402C16.388 57.7915 15.8589 58.0456 15.2911 58.1312C14.7232 58.2169 14.1427 58.1304 13.6246 57.8827C13.1065 57.6351 12.6745 57.2377 12.3845 56.742C12.0946 56.2463 11.9599 55.675 11.998 55.102C12.0211 54.5915 12.1856 54.0974 12.4733 53.675C12.761 53.2526 13.1604 52.9185 13.627 52.71C15.407 51.824 17.1904 50.9444 18.977 50.071C19.593 49.771 20.208 49.458 20.837 49.184C20.9879 49.1303 21.1158 49.0264 21.1993 48.8897C21.2829 48.753 21.317 48.5918 21.296 48.433C21.296 47.118 21.305 47.118 22.636 47.118H23.989" fill="black"/>
<path id="Path 1235" d="M22.953 28.219C23.187 28.204 23.363 28.182 23.539 28.182C34.0057 28.182 44.4744 28.182 54.945 28.182C55.745 28.182 56.207 28.52 56.299 29.143C56.3404 29.2971 56.3507 29.4579 56.3292 29.616C56.3077 29.774 56.2549 29.9262 56.1739 30.0637C56.0929 30.2011 55.9853 30.321 55.8574 30.4164C55.7295 30.5117 55.5839 30.5806 55.429 30.619C55.2528 30.6575 55.0723 30.6733 54.892 30.666C44.4414 30.666 33.991 30.67 23.541 30.678C23.081 30.678 22.935 30.525 22.949 30.091C22.969 29.491 22.949 28.897 22.949 28.223" fill="black"/>
<path id="Path 1236" d="M3.43503 31.773C4.13503 31.773 4.78403 31.783 5.43503 31.773C5.78703 31.766 5.79903 32.008 5.81603 32.243C5.90703 33.507 6.06203 34.771 6.06603 36.035C6.09103 43.244 6.07403 50.454 6.09003 57.664C6.09003 58.177 5.97303 58.375 5.43103 58.334C4.78403 58.285 4.13103 58.322 3.43103 58.322L3.43503 31.773Z" fill="black"/>
<path id="Path 1237" d="M36.527 20.078H47.989V27.07C47.008 27.07 46.019 27.082 45.031 27.05C44.938 27.05 44.784 26.778 44.778 26.628C44.749 25.868 44.767 25.107 44.757 24.347C44.747 23.697 44.606 23.547 43.944 23.547C41.681 23.54 39.417 23.529 37.154 23.553C36.654 23.553 36.496 23.407 36.517 22.909C36.554 21.988 36.527 21.066 36.527 20.078Z" fill="#22438A"/>
<path id="Path 1238" d="M22.469 43.135C25.221 43.135 27.969 43.144 30.726 43.126C31.153 43.126 31.271 43.249 31.289 43.674C31.3291 43.9881 31.2977 44.3071 31.1972 44.6073C31.0966 44.9075 30.9295 45.1811 30.7083 45.4075C30.4871 45.634 30.2176 45.8076 29.9198 45.9152C29.6221 46.0228 29.3039 46.0617 28.989 46.029C24.589 45.972 20.189 46.01 15.789 46.009C15.4617 46.0385 15.1322 45.9879 14.8289 45.8617C14.5255 45.7355 14.2574 45.5373 14.0477 45.2844C13.838 45.0315 13.6929 44.7313 13.625 44.4098C13.5571 44.0883 13.5684 43.7552 13.658 43.439C13.685 43.309 13.986 43.15 14.158 43.147C15.658 43.124 17.164 43.134 18.667 43.134H22.467" fill="black"/>
<path id="Path 1239" d="M43.645 24.643V27.072H43.045C37.581 27.072 32.118 27.065 26.654 27.082C26.16 27.082 25.97 26.965 26.023 26.453C26.0603 26.0205 26.0603 25.5856 26.023 25.153C25.994 24.739 26.156 24.634 26.554 24.636C29.954 24.65 33.354 24.644 36.754 24.644H43.636" fill="#22438A"/>
<path id="Path 1240" d="M5.675 30.657C4.154 30.657 2.728 30.677 1.303 30.648C1.14855 30.6414 0.997079 30.6034 0.85783 30.5363C0.71858 30.4691 0.594482 30.3743 0.493118 30.2576C0.391754 30.1409 0.315255 30.0047 0.268296 29.8575C0.221336 29.7102 0.204902 29.5549 0.219999 29.401C0.204509 29.247 0.2217 29.0915 0.270447 28.9445C0.319194 28.7976 0.398399 28.6627 0.502885 28.5485C0.60737 28.4342 0.734783 28.3434 0.876794 28.2818C1.01881 28.2202 1.17222 28.1893 1.327 28.191C2.592 28.165 3.858 28.171 5.127 28.191C5.261 28.191 5.497 28.336 5.508 28.434C5.589 29.149 5.624 29.869 5.678 30.66" fill="black"/>
<path id="Path 1241" d="M53.331 27.074C52.022 27.074 50.744 27.079 49.466 27.064C49.403 27.0524 49.3439 27.0254 49.2939 26.9854C49.2438 26.9455 49.2044 26.8938 49.179 26.835C49.0517 26.3476 49.0978 25.831 49.3096 25.3738C49.5214 24.9167 49.8856 24.5474 50.3397 24.3293C50.7939 24.1112 51.3098 24.0579 51.7989 24.1784C52.2881 24.299 52.7202 24.5859 53.021 24.99C53.3798 25.622 53.491 26.3651 53.331 27.074Z" fill="#22438A"/>
</g>
</g>
</g>
<defs>
<clipPath id="clip0_18_103">
<rect width="62.42" height="64.666" fill="white" transform="translate(0.219971 0.0019989)"/>
</clipPath>
</defs>
</svg>
