<svg width="57" height="57" viewBox="0 0 57 57" fill="none" xmlns="http://www.w3.org/2000/svg">
<g id="2022-12_Healthy_Culture.svg" clip-path="url(#clip0_18_194)">
<g id="Group">
<g id="Group 7493">
<path id="Path 3110" d="M56.7399 13.5418C56.3865 14.4356 56.0816 15.3479 55.8269 16.2746C54.0672 21.4196 51.4374 26.2243 48.0517 30.4793C46.2992 32.776 44.1037 34.6977 41.5952 36.1308C39.8802 37.1397 37.8908 37.5828 35.9097 37.3968C35.5097 37.3488 35.4438 37.4827 35.4378 37.8536C35.4605 41.504 34.8794 45.133 33.718 48.5938C33.0075 50.8079 31.7506 52.8072 30.0633 54.4072C28.8112 55.5532 27.2435 56.2962 25.5637 56.54C25.4727 56.554 25.3526 56.4991 25.3086 56.6401H23.1589C22.5955 56.4302 22.0156 56.2678 21.4251 56.155C19.22 55.3634 17.2209 54.0864 15.5756 52.4184C11.6585 48.4834 8.567 43.8056 6.48238 38.6596C5.6716 36.7685 4.9829 34.8273 4.42055 32.8481C4.32936 32.6003 4.31802 32.3302 4.38833 32.0757C4.45863 31.8212 4.60714 31.5951 4.8126 31.4293C6.73713 29.7168 8.91629 28.3141 11.272 27.2716C14.6753 25.6615 18.2874 24.5363 22.003 23.9288C23.1799 23.7379 24.3687 23.6159 25.5556 23.5099C25.9286 23.4769 25.9557 23.331 25.9147 23.039C25.5968 20.3273 25.5281 17.592 25.7097 14.8677C25.8842 11.7533 26.3618 8.6633 27.1356 5.64151C27.1899 5.40971 27.3131 5.19974 27.4888 5.03915C27.6646 4.87855 27.8846 4.7748 28.1204 4.74157C30.5934 4.21402 33.1346 4.08312 35.6487 4.35366C38.6746 4.58028 41.6639 5.15708 44.5569 6.0725C48.25 7.16877 51.7358 8.86996 54.8721 11.107C55.3882 11.4987 55.8819 11.919 56.351 12.3659C56.4967 12.5429 56.6255 12.733 56.736 12.9338L56.7399 13.5418ZM28.6994 8.02729C29.4373 7.95429 30.1613 7.86536 30.8872 7.81637C31.0303 7.78736 31.1779 7.78964 31.32 7.82308C31.4621 7.85652 31.5952 7.92031 31.7104 8.01008C31.8255 8.09984 31.9199 8.21339 31.987 8.34306C32.054 8.47272 32.0923 8.6154 32.099 8.76123C32.128 9.37818 31.7212 9.78612 31.0093 9.86111C30.2803 9.9331 29.5524 10.0281 28.8215 10.0701C28.3825 10.0951 28.2344 10.2861 28.1804 10.71C27.9804 12.2829 27.8026 13.8568 27.7266 15.4417C27.4957 18.984 27.7542 22.5412 28.4953 26.0128C28.9457 28.3235 29.8691 30.5161 31.2072 32.4531C32.1147 33.8055 33.4829 34.7817 35.057 35.1997C36.6311 35.6177 38.3035 35.449 39.7624 34.725C42.2775 33.5182 44.4749 31.7392 46.1788 29.5304C49.9398 24.9131 52.7505 19.5976 54.4491 13.8898C54.5012 13.7691 54.5076 13.6336 54.4669 13.5086C54.4262 13.3836 54.3413 13.2777 54.2282 13.2108C53.0933 12.2844 51.8675 11.4754 50.5695 10.7961C46.2686 8.49522 41.5659 7.04171 36.7168 6.51448C34.5673 6.2344 32.3919 6.21326 30.2374 6.4515C28.9315 6.61348 28.9344 6.63641 28.6994 8.02729ZM7.00138 34.243L8.78125 32.9741C8.91028 32.8617 9.06381 32.7813 9.22969 32.7392C9.39558 32.6972 9.569 32.6947 9.736 32.7321C9.92052 32.7735 10.0891 32.8679 10.2206 33.0038C10.3521 33.1398 10.4407 33.3113 10.4759 33.4971C10.5243 33.6981 10.5098 33.9092 10.4342 34.1016C10.3585 34.2941 10.2255 34.4586 10.0531 34.5729C9.36717 35.0779 8.68014 35.5818 7.9842 36.0728C7.93975 36.0939 7.90016 36.124 7.868 36.1613C7.83584 36.1985 7.81184 36.242 7.79745 36.2891C7.78305 36.3361 7.77869 36.3856 7.78451 36.4344C7.79033 36.4833 7.8061 36.5304 7.83114 36.5727C9.7484 41.6151 12.6104 46.2452 16.2635 50.2146C17.7483 51.8205 19.5447 53.1072 21.5431 53.9962C22.7935 54.5621 24.1886 54.726 25.5361 54.4654C26.8836 54.2049 28.117 53.5326 29.0663 52.5414C30.3562 51.1515 31.3136 49.4868 31.8661 47.6728C32.9043 44.3855 33.4224 40.956 33.4019 37.5087C33.4109 37.0237 33.366 36.6748 32.825 36.5088C32.522 36.3922 32.2422 36.223 31.9982 36.0088C31.7382 35.8088 31.5912 35.8648 31.3632 36.0828C30.643 36.8443 29.7081 37.3687 28.6828 37.5864C27.6575 37.8041 26.5903 37.7048 25.6228 37.3017C24.5253 36.8924 23.6038 36.1149 23.0158 35.1019C22.8624 34.882 22.8023 34.6102 22.8486 34.346C22.8949 34.0818 23.0438 33.8467 23.2629 33.692C23.3696 33.6141 23.4907 33.5583 23.6193 33.5277C23.7478 33.4972 23.8812 33.4926 24.0116 33.5142C24.1419 33.5358 24.2667 33.5832 24.3785 33.6536C24.4903 33.7239 24.5868 33.8159 24.6627 33.924C24.7626 34.041 24.8397 34.174 24.9307 34.2969C25.212 34.6786 25.5729 34.9947 25.9882 35.2232C26.4036 35.4518 26.8636 35.5875 27.3365 35.6209C27.8094 35.6543 28.2839 35.5846 28.7272 35.4166C29.1706 35.2486 29.5723 34.9864 29.9044 34.648C30.1044 34.436 30.0912 34.321 29.9132 34.118C29.4029 33.5227 28.9575 32.8748 28.5844 32.1852C27.5267 30.2203 26.7798 28.1034 26.3705 25.9097C26.3055 25.5938 26.2147 25.4738 25.8847 25.5178C25.4128 25.5818 24.9328 25.5927 24.4588 25.6467C20.1206 26.1256 15.8936 27.3303 11.9548 29.2105C10.1118 30.0557 8.38193 31.1283 6.80535 32.4032C6.65036 32.5322 6.47647 32.6342 6.57246 32.9031C6.73045 33.3321 6.85439 33.774 7.00138 34.243Z" fill="#F2F2F2"/>
<path id="Path 3111" d="M28.6987 8.03133C28.9337 6.64045 28.9305 6.61755 30.2374 6.44956C32.3916 6.2114 34.5666 6.23254 36.7158 6.51254C41.5649 7.03977 46.2677 8.49328 50.5686 10.7941C51.8666 11.4737 53.0926 12.2831 54.2274 13.21C54.3406 13.2768 54.4253 13.3827 54.4659 13.5077C54.5066 13.6326 54.5005 13.7682 54.4484 13.8888C52.7495 19.5968 49.9385 24.9123 46.1771 29.5294C44.4734 31.7384 42.2759 33.5175 39.7607 34.724C38.3019 35.4483 36.6294 35.6171 35.0553 35.1991C33.4812 34.7811 32.1126 33.8048 31.2053 32.4523C29.8671 30.5153 28.9439 28.3226 28.4936 26.0118C27.7524 22.5402 27.4936 18.983 27.7246 15.4407C27.8006 13.8569 27.9797 12.2821 28.1787 10.7092C28.2317 10.2852 28.3786 10.0952 28.8195 10.0692C29.5495 10.0272 30.2784 9.93227 31.0073 9.86027C31.7183 9.79028 32.1263 9.38122 32.0973 8.76027C32.0907 8.61438 32.0525 8.47172 31.9855 8.34197C31.9185 8.21222 31.8241 8.09855 31.7089 8.00875C31.5937 7.91895 31.4605 7.85512 31.3183 7.82176C31.1761 7.78839 31.0286 7.78622 30.8855 7.81541C30.1606 7.8664 29.4366 7.95534 28.6987 8.03133ZM45.6401 17.4386C44.7031 17.4092 43.7744 17.6212 42.943 18.0542C42.1116 18.4873 41.4054 19.1268 40.8924 19.9114C40.799 20.0227 40.7297 20.152 40.6886 20.2914C40.6475 20.4307 40.6354 20.577 40.6534 20.7211C40.6715 20.8653 40.7192 21.0042 40.7933 21.1292C40.8675 21.2541 40.9666 21.3623 41.0845 21.4471C41.2037 21.5329 41.3402 21.5915 41.4844 21.6186C41.6287 21.6457 41.7771 21.6407 41.9192 21.604C42.0613 21.5672 42.1936 21.4996 42.3066 21.406C42.4197 21.3124 42.5108 21.1951 42.5734 21.0623C42.87 20.5819 43.2847 20.1856 43.7782 19.9114C44.2716 19.6372 44.827 19.4941 45.3915 19.4959C45.9561 19.4977 46.5108 19.6444 47.0025 19.9218C47.4942 20.1991 47.9064 20.598 48.1999 21.0802C48.2628 21.2072 48.3518 21.3195 48.4613 21.4094C48.5709 21.4994 48.6983 21.5649 48.8351 21.6019C48.9719 21.6389 49.1151 21.6463 49.255 21.6238C49.3949 21.6012 49.5285 21.5492 49.6468 21.4712C49.7687 21.3916 49.8724 21.2872 49.9514 21.1649C50.0305 21.0426 50.083 20.9052 50.1055 20.7613C50.1279 20.6174 50.1198 20.4704 50.0818 20.3298C50.0438 20.1892 49.9767 20.0583 49.8848 19.9453C49.4394 19.2087 48.8189 18.5936 48.0783 18.1548C47.3378 17.7161 46.5001 17.4673 45.6401 17.4305V17.4386ZM37.7687 30.4524C38.9915 30.4492 40.1759 30.0254 41.1234 29.2525C41.8353 28.6685 41.9893 28.0806 41.5703 27.5527C41.1514 27.0247 40.5706 27.0577 39.8356 27.6526C39.4252 27.9938 38.9376 28.2295 38.4154 28.3395C37.8931 28.4494 37.3518 28.4303 36.8386 28.2836C36.3254 28.1369 35.8558 27.867 35.4705 27.4976C35.0853 27.1282 34.7962 26.6703 34.6281 26.1638C34.3531 25.3928 33.8582 25.0889 33.2613 25.3039C32.6373 25.5278 32.4382 26.0888 32.7052 26.8707C33.0739 27.9187 33.7595 28.826 34.6667 29.4672C35.5739 30.1084 36.6578 30.4516 37.7687 30.4494V30.4524ZM32.1474 13.7319C31.2754 13.7206 30.4151 13.932 29.6476 14.3458C29.513 14.3954 29.3902 14.4725 29.2873 14.5724C29.1843 14.6722 29.1034 14.7925 29.0497 14.9255C28.9961 15.0585 28.9709 15.2013 28.9758 15.3447C28.9806 15.488 29.0154 15.6287 29.078 15.7577C29.1406 15.8867 29.2295 16.0013 29.339 16.0939C29.4485 16.1864 29.5763 16.2552 29.714 16.2954C29.8516 16.3356 29.9963 16.3464 30.1385 16.3274C30.2807 16.3083 30.4171 16.2597 30.5393 16.1847C30.6333 16.1447 30.7195 16.0847 30.8125 16.0477C31.4729 15.7553 32.2123 15.6933 32.9122 15.8717C34.389 16.2427 35.174 17.2486 35.43 19.0794C35.4351 19.2153 35.4675 19.3488 35.5255 19.4718C35.5834 19.5949 35.6657 19.705 35.7671 19.7956C35.8686 19.8861 35.9874 19.9553 36.1162 19.9989C36.2451 20.0425 36.3812 20.0596 36.5168 20.0493C36.7912 20.0237 37.0443 19.8904 37.2206 19.6786C37.397 19.4669 37.4824 19.1939 37.4579 18.9194C37.4233 17.5331 36.8486 16.2151 35.8567 15.246C34.8649 14.2769 33.5341 13.7343 32.1474 13.7319ZM35.0531 8.88331C35.0633 8.67689 35.0113 8.47216 34.9039 8.29559C34.7966 8.11902 34.6386 7.97868 34.4506 7.89279C34.2626 7.80691 34.0531 7.77943 33.8493 7.81382C33.6456 7.84822 33.457 7.94295 33.3076 8.08577C33.1583 8.22859 33.055 8.41298 33.0115 8.61502C32.968 8.81706 32.9861 9.02746 33.0635 9.21909C33.1409 9.41072 33.274 9.57469 33.4456 9.68988C33.6172 9.80506 33.8194 9.86622 34.0261 9.86528C34.1583 9.86873 34.2899 9.84591 34.4133 9.79814C34.5366 9.75038 34.6494 9.67859 34.7448 9.58698C34.8402 9.49537 34.9164 9.38568 34.9691 9.26438C35.0219 9.14308 35.0502 9.01251 35.0521 8.88026L35.0531 8.88331Z" fill="#F2F2F2"/>
<path id="Path 3112" d="M7.00144 34.2431C6.85445 33.7741 6.73044 33.3332 6.57545 32.9042C6.47546 32.6383 6.65338 32.5373 6.80736 32.4043C8.38428 31.129 10.1147 30.056 11.958 29.2105C15.8969 27.3303 20.1236 26.1257 24.4618 25.6468C24.9358 25.5928 25.4158 25.5818 25.8877 25.5178C26.2177 25.4728 26.3088 25.5939 26.3738 25.9099C26.7829 28.1034 27.5293 30.2203 28.5864 32.1853C28.9596 32.8749 29.4052 33.5228 29.9154 34.1181C30.0934 34.3181 30.1154 34.436 29.9064 34.648C29.5743 34.9864 29.1728 35.2487 28.7295 35.4167C28.2861 35.5847 27.8114 35.6544 27.3385 35.621C26.8656 35.5877 26.4056 35.4519 25.9902 35.2234C25.5749 34.9948 25.2142 34.6787 24.933 34.2971C24.842 34.1741 24.7629 34.041 24.6649 33.924C24.5891 33.8159 24.4923 33.7239 24.3805 33.6536C24.2687 33.5832 24.1439 33.5359 24.0136 33.5143C23.8833 33.4927 23.7498 33.4973 23.6213 33.5278C23.4928 33.5584 23.3716 33.6142 23.2649 33.6921C23.0458 33.8468 22.8969 34.0819 22.8506 34.3461C22.8043 34.6103 22.8646 34.8821 23.0181 35.102C23.6063 36.1149 24.5275 36.8923 25.6248 37.3018C26.5925 37.705 27.6598 37.8043 28.6853 37.5866C29.7108 37.3689 30.6458 36.8445 31.3662 36.0829C31.5932 35.8649 31.7402 35.807 32.0002 36.0089C32.2443 36.2229 32.5244 36.3921 32.8273 36.5089C33.3682 36.6749 33.4141 37.0238 33.4041 37.5088C33.4247 40.9562 32.9063 44.3855 31.8681 47.6728C31.3157 49.4868 30.3586 51.1516 29.0686 52.5414C28.1193 53.5326 26.8856 54.205 25.5381 54.4656C24.1906 54.7261 22.7955 54.5622 21.5451 53.9964C19.5466 53.1075 17.7502 51.8207 16.2655 50.2146C12.6121 46.2453 9.74998 41.6152 7.83242 36.5729C7.80738 36.5305 7.79136 36.4834 7.78555 36.4346C7.77973 36.3857 7.78409 36.3362 7.79849 36.2892C7.81288 36.2421 7.83712 36.1986 7.86928 36.1614C7.90144 36.1242 7.94079 36.094 7.98524 36.0729C8.68518 35.5829 9.36918 35.08 10.0551 34.573C10.2273 34.4585 10.3603 34.294 10.4359 34.1016C10.5116 33.9092 10.5263 33.6981 10.4782 33.4971C10.443 33.3113 10.3541 33.1399 10.2226 33.004C10.0911 32.868 9.92278 32.7736 9.73826 32.7323C9.57126 32.6949 9.39784 32.6972 9.23195 32.7392C9.06607 32.7812 8.9123 32.8618 8.78326 32.9742L7.00144 34.2431ZM24.9339 49.1788C22.6591 49.1228 21.5192 48.3589 20.8423 50.5597C20.6343 51.2346 21.2792 45.3671 21.8422 45.5671C22.4051 45.767 21.8971 48.3448 22.1471 47.6728C22.2961 47.2729 22.1632 48.8357 22.4351 48.5008C23.635 47.0169 28.6845 45.147 30.2203 46.4179C30.8043 46.9009 28.3836 48.6308 28.7886 48.1789C29.2095 47.7079 29.1104 47.0929 28.5344 46.5789C27.5445 45.688 26.2598 49.2188 24.9339 49.1788ZM13.7338 41.3985C14.1035 41.3968 14.4721 41.3572 14.8338 41.2804C17.1785 40.8175 16.6456 40.1016 16.5836 37.7378C16.5686 37.1508 18.8514 37.3738 18.3024 37.3008C17.6615 37.2148 19.7772 36.6528 19.7022 37.5058C19.5922 38.8146 19.2674 41.1914 18.0905 41.7184C17.1556 42.1374 16.9236 43.0043 15.9906 42.5563C15.3017 42.2244 16.5326 41.6874 16.2616 42.2424C15.9906 42.7973 15.3257 42.2134 15.9906 42.5563C16.7486 42.9483 12.8138 41.4075 13.7338 41.3985ZM11.992 33.2991C12.2671 33.3036 12.5338 33.2036 12.738 33.0191C12.9422 32.8346 13.0687 32.5795 13.092 32.3053C13.096 32.1688 13.0726 32.0328 13.0234 31.9054C12.9741 31.7781 12.8997 31.6618 12.8049 31.5635C12.7101 31.4653 12.5967 31.387 12.4712 31.3332C12.3456 31.2794 12.2106 31.2512 12.074 31.2503C11.7986 31.2507 11.5338 31.3562 11.3338 31.5455C11.1338 31.7347 11.0137 31.9933 10.9982 32.2682C10.9992 32.5341 11.1024 32.7895 11.2865 32.9814C11.4705 33.1733 11.7214 33.287 11.9871 33.2991H11.992Z" fill="#F2F2F2"/>
<path id="Path 3113" d="M45.6415 17.4345C46.5009 17.4703 47.338 17.7179 48.0786 18.1553C48.8191 18.5927 49.4404 19.2063 49.8867 19.9416C49.9784 20.0545 50.0453 20.1854 50.0832 20.3258C50.1211 20.4663 50.1293 20.6132 50.1069 20.757C50.0844 20.9007 50.032 21.0382 49.9531 21.1604C49.8741 21.2827 49.7704 21.387 49.6486 21.4666C49.5303 21.5446 49.3967 21.5966 49.2568 21.6192C49.1169 21.6417 48.9737 21.6343 48.8369 21.5973C48.7 21.5603 48.5726 21.4946 48.4631 21.4047C48.3535 21.3147 48.2645 21.2025 48.2016 21.0755C47.9081 20.5932 47.4958 20.1943 47.0041 19.9169C46.5124 19.6395 45.9576 19.4929 45.393 19.4911C44.8285 19.4893 44.273 19.6324 43.7795 19.9066C43.286 20.1809 42.8712 20.5771 42.5747 21.0575C42.5121 21.1903 42.4209 21.3076 42.3078 21.4013C42.1947 21.4949 42.0625 21.5625 41.9204 21.5993C41.7782 21.636 41.6298 21.641 41.4855 21.6139C41.3413 21.5868 41.2048 21.5283 41.0856 21.4425C40.9677 21.3577 40.8685 21.2494 40.7944 21.1244C40.7202 20.9995 40.6725 20.8605 40.6545 20.7163C40.6365 20.5722 40.6485 20.4259 40.6896 20.2865C40.7308 20.1472 40.8001 20.0178 40.8935 19.9065C41.4067 19.122 42.1128 18.4827 42.9443 18.0498C43.7757 17.6169 44.7046 17.405 45.6415 17.4345Z" fill="#F2F2F2"/>
<path id="Path 3114" d="M37.7691 30.4498C36.6572 30.4517 35.5722 30.1074 34.6648 29.4649C33.7574 28.8223 33.0725 27.9132 32.7051 26.8638C32.4381 26.0818 32.637 25.5218 33.261 25.2968C33.861 25.0818 34.3532 25.3869 34.6282 26.1569C34.7963 26.6635 35.0854 27.1213 35.4707 27.4907C35.856 27.8602 36.3257 28.13 36.8389 28.2767C37.3521 28.4235 37.8935 28.4427 38.4158 28.3328C38.9381 28.2228 39.4257 27.9869 39.8362 27.6458C40.5702 27.0518 41.1491 27.0158 41.5711 27.5458C41.9931 28.0758 41.836 28.6609 41.124 29.2459C40.177 30.0203 38.9924 30.4454 37.7691 30.4498Z" fill="#F2F2F2"/>
<path id="Path 3115" d="M32.1474 13.7277C33.5339 13.7304 34.8647 14.2742 35.8564 15.2431C36.8482 16.2121 37.4226 17.5297 37.4575 18.9157C37.482 19.1902 37.3968 19.4634 37.2204 19.6751C37.0441 19.8869 36.791 20.0201 36.5166 20.0457C36.381 20.0561 36.2446 20.0389 36.1157 19.9953C35.9869 19.9517 35.8681 19.8826 35.7666 19.7921C35.6651 19.7015 35.5831 19.5913 35.5251 19.4682C35.4672 19.3452 35.4346 19.2117 35.4294 19.0758C35.1734 17.2448 34.3886 16.2378 32.9116 15.8678C32.2117 15.6893 31.472 15.7513 30.8115 16.0438C30.7175 16.0838 30.6316 16.1437 30.5376 16.1807C30.4154 16.2558 30.2786 16.3045 30.1365 16.3236C29.9943 16.3426 29.8498 16.3317 29.7121 16.2915C29.5745 16.2512 29.4467 16.1826 29.3371 16.0901C29.2276 15.9975 29.1388 15.8829 29.0762 15.7539C29.0136 15.6248 28.9785 15.484 28.9736 15.3407C28.9687 15.1973 28.9939 15.0545 29.0476 14.9215C29.1012 14.7884 29.1822 14.6682 29.2851 14.5683C29.3881 14.4685 29.5109 14.3913 29.6455 14.3418C30.4137 13.9275 31.2748 13.7162 32.1474 13.7277Z" fill="#F2F2F2"/>
<path id="Path 3116" d="M35.052 8.87928C35.0496 9.0113 35.0211 9.14155 34.9681 9.26246C34.915 9.38337 34.8384 9.49255 34.743 9.58375C34.6475 9.67495 34.5349 9.74637 34.4117 9.79383C34.2884 9.84129 34.1572 9.86395 34.0252 9.86036C33.8888 9.86223 33.7532 9.83672 33.6267 9.78553C33.5003 9.73434 33.3856 9.6585 33.2889 9.56226C33.1922 9.46603 33.1156 9.35143 33.0638 9.22523C33.012 9.09902 32.9859 8.96369 32.9871 8.82728C32.9879 8.68998 33.016 8.55428 33.0699 8.42799C33.1237 8.3017 33.2023 8.1874 33.3008 8.09181C33.3994 7.99621 33.516 7.92123 33.6438 7.87122C33.7717 7.82122 33.9084 7.79716 34.0457 7.80055C34.183 7.80394 34.3182 7.83463 34.4434 7.89088C34.5686 7.94713 34.6815 8.02784 34.7752 8.12818C34.8689 8.22853 34.9415 8.34655 34.9891 8.47535C35.0366 8.60415 35.058 8.74211 35.052 8.87928Z" fill="#F2F2F2"/>
<path id="Path 3117" d="M24.5223 50.0491C23.2317 50.0351 21.9905 49.5516 21.0303 48.6891C20.4553 48.1741 20.3554 47.559 20.7774 47.089C21.1774 46.637 21.7773 46.6561 22.3643 47.1391C22.6947 47.4423 23.084 47.6742 23.5079 47.8205C23.9317 47.9668 24.3811 48.0242 24.8282 47.9893C25.2752 47.9544 25.7102 47.828 26.1063 47.6177C26.5023 47.4074 26.8508 47.1179 27.1302 46.7671C27.3879 46.4288 27.5883 46.0505 27.7232 45.6471C27.7534 45.5049 27.8135 45.3707 27.8992 45.2533C27.985 45.136 28.0945 45.0381 28.2208 44.9661C28.347 44.8941 28.4872 44.8497 28.6319 44.8357C28.7766 44.8218 28.9226 44.8386 29.0604 44.885C29.1966 44.9364 29.3209 45.0153 29.4253 45.1167C29.5298 45.2182 29.6122 45.3401 29.6675 45.4748C29.7229 45.6095 29.7501 45.7541 29.7471 45.8997C29.7441 46.0453 29.711 46.1888 29.6502 46.3211C29.3024 47.4067 28.6179 48.3533 27.6959 49.0236C26.7738 49.6939 25.6622 50.0531 24.5223 50.0491Z" fill="#F2F2F2"/>
<path id="Path 3118" d="M17.3031 35.0749C18.1621 35.0597 19.0113 35.2587 19.7741 35.6539C20.4401 35.9969 20.682 36.5538 20.411 37.1038C20.3433 37.2378 20.2474 37.3557 20.13 37.4493C20.0126 37.5429 19.8763 37.61 19.7306 37.6461C19.5849 37.6821 19.433 37.6863 19.2855 37.6583C19.138 37.6303 18.9985 37.5708 18.8761 37.4838C18.4452 37.2547 17.9678 37.1267 17.4801 37.1093C16.9924 37.092 16.507 37.1859 16.0609 37.3839C15.5039 37.6092 15.0231 37.9893 14.6754 38.4793C14.3277 38.9693 14.1278 39.5487 14.099 40.1489C14.028 41.0019 13.584 41.4769 12.943 41.3909C12.6862 41.3639 12.4496 41.2392 12.2821 41.0427C12.1146 40.8461 12.0291 40.5928 12.0431 40.3349C12.0564 39.1342 12.4745 37.9731 13.2299 37.0397C13.9852 36.1064 15.0335 35.4553 16.205 35.1918C16.566 35.1156 16.9341 35.0764 17.3031 35.0749Z" fill="#F2F2F2"/>
<path id="Path 3119" d="M11.9871 33.2973C11.7205 33.2867 11.4683 33.1737 11.283 32.9819C11.0976 32.79 10.9933 32.534 10.9919 32.2673C11.007 31.9921 11.127 31.733 11.3271 31.5435C11.5273 31.354 11.7925 31.2483 12.0681 31.2482C12.2047 31.2491 12.3395 31.2773 12.4651 31.3311C12.5906 31.3849 12.7042 31.4632 12.7991 31.5615C12.8939 31.6597 12.9681 31.776 13.0173 31.9034C13.0666 32.0308 13.0899 32.1668 13.0859 32.3033C13.0624 32.5772 12.9361 32.8321 12.7322 33.0165C12.5282 33.201 12.262 33.3013 11.9871 33.2973Z" fill="#F2F2F2"/>
</g>
<g id="Group 7492">
<path id="Path 3110_2" d="M52.5172 9.31928C52.1638 10.213 51.859 11.1253 51.6042 12.0521C49.8446 17.1971 47.2147 22.0018 43.829 26.2568C42.0765 28.5534 39.881 30.4752 37.3726 31.9082C35.6575 32.9172 33.6682 33.3602 31.6871 33.1742C31.2871 33.1262 31.2212 33.2601 31.2152 33.6311C31.2378 37.2814 30.6567 40.9105 29.4954 44.3712C28.7849 46.5853 27.5279 48.5847 25.8406 50.1847C24.5885 51.3307 23.0208 52.0737 21.341 52.3174C21.2501 52.3314 21.1299 52.2765 21.0859 52.4175H18.9362C18.3729 52.2076 17.793 52.0453 17.2025 51.9325C14.9974 51.1408 12.9982 49.8639 11.3529 48.1959C7.43589 44.2609 4.34434 39.5831 2.25972 34.4371C1.44894 32.546 0.760242 30.6048 0.197894 28.6256C0.106699 28.3778 0.0953613 28.1077 0.16567 27.8532C0.235978 27.5987 0.384487 27.3726 0.589949 27.2067C2.51447 25.4943 4.69363 24.0916 7.04934 23.049C10.4526 21.439 14.0647 20.3138 17.7803 19.7063C18.9572 19.5153 20.1461 19.3934 21.333 19.2874C21.706 19.2544 21.7331 19.1085 21.6921 18.8165C21.3742 16.1047 21.3055 13.3695 21.487 10.6452C21.6615 7.53081 22.1391 4.44076 22.9129 1.41898C22.9672 1.18717 23.0904 0.977209 23.2662 0.816613C23.4419 0.656018 23.662 0.552266 23.8977 0.519032C26.3707 -0.00851369 28.9119 -0.13941 31.4261 0.131127C34.452 0.357745 37.4413 0.934543 40.3342 1.84997C44.0273 2.94624 47.5132 4.64743 50.6495 6.88444C51.1655 7.27618 51.6593 7.69649 52.1284 8.14336C52.274 8.32034 52.4029 8.51047 52.5133 8.7113L52.5172 9.31928ZM24.4768 3.80475C25.2147 3.73176 25.9386 3.64283 26.6645 3.59383C26.8076 3.56483 26.9553 3.56711 27.0974 3.60055C27.2395 3.63399 27.3726 3.69778 27.4877 3.78754C27.6028 3.87731 27.6972 3.99086 27.7643 4.12052C27.8314 4.25019 27.8696 4.39286 27.8764 4.5387C27.9054 5.15564 27.4985 5.56358 26.7866 5.63858C26.0577 5.71057 25.3297 5.80554 24.5988 5.84754C24.1599 5.87254 24.0118 6.06354 23.9578 6.4875C23.7578 8.06036 23.5799 9.63428 23.5039 11.2191C23.273 14.7614 23.5316 18.3186 24.2727 21.7902C24.7231 24.101 25.6465 26.2936 26.9846 28.2306C27.8921 29.583 29.2603 30.5592 30.8343 30.9772C32.4084 31.3951 34.0809 31.2265 35.5397 30.5025C38.0548 29.2957 40.2523 27.5166 41.9562 25.3079C45.7172 20.6906 48.5279 15.3751 50.2264 9.66727C50.2785 9.5466 50.2849 9.41107 50.2442 9.28608C50.2036 9.16109 50.1187 9.05513 50.0055 8.98825C48.8706 8.06182 47.6449 7.25284 46.3469 6.57355C42.046 4.27269 37.3432 2.81918 32.4941 2.29195C30.3446 2.01186 28.1693 1.99072 26.0147 2.22896C24.7088 2.39095 24.7117 2.41388 24.4768 3.80475ZM2.77872 30.0205L4.55859 28.7515C4.68763 28.6391 4.84115 28.5587 5.00704 28.5167C5.17292 28.4746 5.34635 28.4722 5.51334 28.5096C5.69787 28.551 5.86644 28.6454 5.99792 28.7813C6.1294 28.9172 6.21804 29.0887 6.25327 29.2745C6.30166 29.4756 6.28719 29.6866 6.21152 29.8791C6.13586 30.0716 6.00282 30.2361 5.83045 30.3504C5.14451 30.8553 4.45748 31.3593 3.76154 31.8503C3.7171 31.8713 3.6775 31.9015 3.64534 31.9387C3.61319 31.976 3.58919 32.0195 3.57479 32.0665C3.5604 32.1136 3.55604 32.1631 3.56185 32.2119C3.56767 32.2608 3.58344 32.3079 3.60848 32.3502C5.52574 37.3925 8.38779 42.0227 12.0408 45.9921C13.5257 47.598 15.322 48.8847 17.3204 49.7737C18.5708 50.3396 19.966 50.5035 21.3135 50.2429C22.661 49.9823 23.8944 49.3101 24.8437 48.3189C26.1335 46.929 27.0909 45.2642 27.6435 43.4503C28.6816 40.1629 29.1997 36.7335 29.1792 33.2862C29.1882 32.8012 29.1433 32.4522 28.6024 32.2862C28.2994 32.1697 28.0195 32.0004 27.7755 31.7863C27.5156 31.5863 27.3686 31.6423 27.1406 31.8603C26.4203 32.6217 25.4855 33.1462 24.4602 33.3639C23.4349 33.5816 22.3677 33.4823 21.4001 33.0791C20.3027 32.6698 19.3812 31.8924 18.7932 30.8794C18.6397 30.6594 18.5797 30.3877 18.626 30.1235C18.6722 29.8593 18.8211 29.6242 19.0402 29.4695C19.1469 29.3916 19.2681 29.3357 19.3966 29.3052C19.5252 29.2746 19.6586 29.27 19.7889 29.2916C19.9193 29.3132 20.044 29.3607 20.1558 29.431C20.2677 29.5014 20.3641 29.5933 20.44 29.7015C20.54 29.8185 20.6171 29.9514 20.708 30.0744C20.9893 30.4561 21.3502 30.7721 21.7656 31.0007C22.1809 31.2293 22.6409 31.365 23.1138 31.3984C23.5868 31.4318 24.0612 31.362 24.5046 31.1941C24.9479 31.0261 25.3497 30.7638 25.6817 30.4254C25.8817 30.2135 25.8685 30.0984 25.6905 29.8955C25.1802 29.3002 24.7349 28.6523 24.3618 27.9627C23.3041 25.9978 22.5572 23.8808 22.1479 21.6872C22.0829 21.3712 21.992 21.2513 21.6621 21.2953C21.1901 21.3593 20.7101 21.3702 20.2362 21.4242C15.898 21.903 11.671 23.1078 7.73214 24.9879C5.88914 25.8332 4.15927 26.9057 2.58269 28.1807C2.42771 28.3096 2.25381 28.4116 2.3498 28.6806C2.50779 29.1096 2.63173 29.5515 2.77872 30.0205Z" fill="#030303"/>
<path id="Path 3111_2" d="M24.476 3.8088C24.711 2.41792 24.7078 2.39501 26.0147 2.22703C28.1689 1.98887 30.344 2.01001 32.4931 2.29001C37.3422 2.81724 42.045 4.27075 46.3459 6.57161C47.644 7.25117 48.87 8.06059 50.0048 8.98742C50.1179 9.05429 50.2026 9.16013 50.2433 9.28512C50.284 9.41011 50.2778 9.54564 50.2257 9.66631C48.5269 15.3742 45.7159 20.6897 41.9545 25.3069C40.2508 27.5158 38.0532 29.295 35.538 30.5015C34.0792 31.2257 32.4068 31.3946 30.8326 30.9766C29.2585 30.5586 27.89 29.5823 26.9826 28.2297C25.6444 26.2928 24.7213 24.1001 24.271 21.7893C23.5298 18.3177 23.271 14.7605 23.502 11.2182C23.578 9.63432 23.7571 8.05952 23.9561 6.48666C24.009 6.0627 24.1559 5.8727 24.5969 5.8467C25.3268 5.80471 26.0557 5.70973 26.7847 5.63774C27.4956 5.56774 27.9036 5.15868 27.8747 4.53774C27.8681 4.39184 27.8299 4.24919 27.7628 4.11944C27.6958 3.98969 27.6014 3.87602 27.4863 3.78622C27.3711 3.69642 27.2378 3.63259 27.0957 3.59922C26.9535 3.56585 26.8059 3.56369 26.6628 3.59287C25.9379 3.64387 25.214 3.7328 24.476 3.8088ZM41.4174 13.216C40.4805 13.1867 39.5518 13.3987 38.7204 13.8317C37.889 14.2647 37.1828 14.9043 36.6698 15.6889C36.5764 15.8001 36.5071 15.9295 36.4659 16.0688C36.4248 16.2082 36.4128 16.3544 36.4308 16.4986C36.4488 16.6428 36.4965 16.7817 36.5707 16.9066C36.6448 17.0316 36.744 17.1397 36.8619 17.2246C36.981 17.3104 37.1175 17.369 37.2618 17.3961C37.406 17.4232 37.5544 17.4182 37.6965 17.3815C37.8386 17.3447 37.9709 17.2771 38.084 17.1835C38.197 17.0899 38.2882 16.9725 38.3508 16.8398C38.6473 16.3594 39.0621 15.9631 39.5555 15.6889C40.0489 15.4146 40.6044 15.2716 41.1689 15.2734C41.7334 15.2752 42.2882 15.4218 42.7798 15.6992C43.2715 15.9766 43.6838 16.3755 43.9772 16.8577C44.0401 16.9847 44.1292 17.0969 44.2387 17.1869C44.3482 17.2768 44.4756 17.3424 44.6124 17.3794C44.7492 17.4163 44.8924 17.4238 45.0323 17.4012C45.1722 17.3787 45.3058 17.3267 45.4241 17.2486C45.5461 17.1691 45.6498 17.0647 45.7288 16.9424C45.8078 16.8201 45.8604 16.6826 45.8828 16.5388C45.9053 16.3949 45.8972 16.2478 45.8591 16.1073C45.8211 15.9667 45.7541 15.8357 45.6621 15.7228C45.2168 14.9862 44.5962 14.371 43.8557 13.9323C43.1151 13.4935 42.2774 13.2447 41.4174 13.208V13.216ZM33.546 26.2299C34.7688 26.2266 35.9532 25.8029 36.9007 25.0299C37.6126 24.446 37.7667 23.8581 37.3477 23.3301C36.9287 22.8022 36.3479 22.8352 35.613 23.4301C35.2025 23.7713 34.715 24.007 34.1927 24.1169C33.6704 24.2269 33.1291 24.2078 32.6159 24.061C32.1028 23.9143 31.6331 23.6445 31.2479 23.2751C30.8627 22.9057 30.5735 22.4478 30.4054 21.9412C30.1305 21.1703 29.6356 20.8663 29.0386 21.0813C28.4147 21.3053 28.2155 21.8663 28.4825 22.6482C28.8512 23.6961 29.5368 24.6035 30.444 25.2446C31.3512 25.8858 32.4351 26.2291 33.546 26.2269V26.2299ZM27.9247 9.50934C27.0528 9.49811 26.1924 9.70943 25.4249 10.1233C25.2903 10.1728 25.1676 10.25 25.0646 10.3498C24.9616 10.4497 24.8807 10.5699 24.8271 10.703C24.7734 10.836 24.7482 10.9788 24.7531 11.1221C24.758 11.2655 24.7928 11.4061 24.8554 11.5352C24.918 11.6642 25.0068 11.7787 25.1163 11.8713C25.2259 11.9639 25.3536 12.0326 25.4913 12.0728C25.629 12.1131 25.7737 12.1239 25.9158 12.1048C26.058 12.0858 26.1945 12.0372 26.3167 11.9621C26.4107 11.9221 26.4969 11.8622 26.5899 11.8252C27.2503 11.5328 27.9896 11.4708 28.6895 11.6492C30.1664 12.0201 30.9514 13.0261 31.2074 14.8569C31.2125 14.9928 31.2449 15.1263 31.3028 15.2493C31.3607 15.3724 31.443 15.4825 31.5445 15.573C31.646 15.6636 31.7647 15.7328 31.8936 15.7764C32.0224 15.82 32.1586 15.8371 32.2942 15.8268C32.5686 15.8012 32.8216 15.6678 32.998 15.4561C33.1743 15.2443 33.2597 14.9714 33.2353 14.6969C33.2006 13.3106 32.626 11.9926 31.6341 11.0235C30.6422 10.0544 29.3114 9.51178 27.9247 9.50934ZM30.8304 4.66077C30.8406 4.45436 30.7887 4.24963 30.6813 4.07306C30.5739 3.89648 30.4159 3.75615 30.228 3.67026C30.04 3.58437 29.8305 3.55689 29.6267 3.59129C29.4229 3.62568 29.2344 3.72041 29.085 3.86324C28.9356 4.00606 28.8324 4.19045 28.7889 4.39249C28.7454 4.59452 28.7635 4.80493 28.8409 4.99656C28.9183 5.18819 29.0513 5.35215 29.2229 5.46734C29.3945 5.58253 29.5968 5.64369 29.8034 5.64274C29.9357 5.64619 30.0673 5.62337 30.1906 5.57561C30.314 5.52784 30.4267 5.45605 30.5221 5.36445C30.6175 5.27284 30.6937 5.16314 30.7465 5.04184C30.7992 4.92054 30.8275 4.78998 30.8295 4.65772L30.8304 4.66077Z" fill="#FDFDFD"/>
<path id="Path 3112_2" d="M2.77878 30.0206C2.63179 29.5516 2.50778 29.1107 2.35279 28.6817C2.2528 28.4157 2.43072 28.3147 2.58471 28.1817C4.16162 26.9065 5.89204 25.8335 7.73537 24.9879C11.6742 23.1078 15.9009 21.9031 20.2392 21.4243C20.7131 21.3703 21.1931 21.3593 21.6651 21.2953C21.995 21.2503 22.0861 21.3713 22.1511 21.6873C22.5603 23.8808 23.3066 25.9977 24.3638 27.9628C24.7369 28.6524 25.1825 29.3003 25.6928 29.8956C25.8708 30.0956 25.8927 30.2135 25.6837 30.4254C25.3517 30.7638 24.9502 31.0262 24.5068 31.1942C24.0635 31.3622 23.5888 31.4319 23.1159 31.3985C22.6429 31.3651 22.1829 31.2294 21.7676 31.0008C21.3522 30.7722 20.9916 30.4562 20.7103 30.0745C20.6193 29.9515 20.5403 29.8185 20.4423 29.7015C20.3664 29.5933 20.2697 29.5014 20.1579 29.431C20.046 29.3607 19.9213 29.3134 19.791 29.2918C19.6606 29.2702 19.5272 29.2748 19.3987 29.3053C19.2701 29.3358 19.1489 29.3917 19.0422 29.4696C18.8231 29.6243 18.6742 29.8594 18.628 30.1236C18.5817 30.3878 18.642 30.6596 18.7954 30.8795C19.3836 31.8923 20.3048 32.6697 21.4021 33.0793C22.3698 33.4825 23.4372 33.5817 24.4627 33.364C25.4881 33.1463 26.4232 32.6219 27.1436 31.8604C27.3706 31.6424 27.5176 31.5844 27.7775 31.7864C28.0217 32.0003 28.3018 32.1696 28.6046 32.2864C29.1456 32.4523 29.1915 32.8013 29.1815 33.2863C29.202 36.7336 28.6837 40.1629 27.6455 43.4503C27.0931 45.2643 26.1359 46.929 24.8459 48.3189C23.8966 49.3101 22.663 49.9824 21.3155 50.243C19.968 50.5036 18.5728 50.3397 17.3224 49.7738C15.324 48.885 13.5275 47.5982 12.0429 45.9921C8.38945 42.0228 5.52732 37.3927 3.60976 32.3503C3.58473 32.308 3.56871 32.2609 3.56289 32.212C3.55708 32.1632 3.56144 32.1137 3.57583 32.0667C3.59023 32.0196 3.61447 31.9761 3.64662 31.9389C3.67878 31.9016 3.71813 31.8714 3.76258 31.8504C4.46252 31.3604 5.14653 30.8575 5.83247 30.3505C6.00462 30.236 6.13765 30.0715 6.21329 29.8791C6.28893 29.6867 6.30363 29.4756 6.25552 29.2745C6.2203 29.0887 6.13141 28.9173 5.99993 28.7814C5.86845 28.6455 5.70013 28.5511 5.5156 28.5097C5.34861 28.4723 5.17518 28.4746 5.0093 28.5167C4.84341 28.5587 4.68964 28.6392 4.56061 28.7516L2.77878 30.0206ZM20.7113 44.9563C18.4365 44.9003 17.2965 44.1363 16.6196 46.3371C16.4116 47.0121 17.0566 41.1445 17.6195 41.3445C18.1825 41.5445 17.6744 44.1222 17.9244 43.4503C18.0734 43.0503 17.9405 44.6132 18.2125 44.2782C19.4124 42.7944 24.4618 40.9245 25.9977 42.1954C26.5816 42.6784 24.161 44.4083 24.5659 43.9564C24.9869 43.4854 24.8877 42.8703 24.3118 42.3564C23.3219 41.4655 22.0372 44.9963 20.7113 44.9563ZM9.5111 37.1759C9.8808 37.1743 10.2495 37.1347 10.6111 37.0579C12.9559 36.595 12.4229 35.879 12.3609 33.5153C12.3459 32.9283 14.6287 33.1513 14.0798 33.0783C13.4388 32.9923 15.5546 32.4303 15.4796 33.2832C15.3696 34.5921 15.0448 36.9689 13.8679 37.4959C12.933 37.9148 12.7009 38.7818 11.768 38.3338C11.079 38.0018 12.3099 37.4649 12.0389 38.0199C11.768 38.5748 11.103 37.9908 11.768 38.3338C12.5259 38.7258 8.59118 37.1849 9.5111 37.1759ZM7.76931 29.0766C8.04446 29.0811 8.31116 28.9811 8.51534 28.7966C8.71951 28.6121 8.84603 28.357 8.86931 28.0828C8.87331 27.9462 8.84998 27.8103 8.80071 27.6829C8.75144 27.5555 8.67705 27.4393 8.58222 27.341C8.48739 27.2427 8.37404 27.1645 8.24851 27.1107C8.12298 27.0569 7.9879 27.0287 7.85133 27.0278C7.57597 27.0281 7.31119 27.1337 7.11116 27.3229C6.91113 27.5122 6.79107 27.7707 6.7755 28.0456C6.77651 28.3116 6.87971 28.5669 7.0638 28.7588C7.24789 28.9507 7.49877 29.0645 7.76442 29.0766H7.76931Z" fill="#22438A"/>
<path id="Path 3113_2" d="M41.4189 13.2119C42.2782 13.2477 43.1153 13.4954 43.8559 13.9328C44.5965 14.3701 45.2177 14.9838 45.664 15.719C45.7558 15.8319 45.8226 15.9628 45.8605 16.1033C45.8985 16.2438 45.9067 16.3907 45.8842 16.5344C45.8618 16.6782 45.8094 16.8157 45.7304 16.9379C45.6515 17.0601 45.5478 17.1644 45.426 17.244C45.3077 17.3221 45.1741 17.3741 45.0341 17.3966C44.8942 17.4192 44.751 17.4118 44.6142 17.3748C44.4774 17.3378 44.35 17.2721 44.2404 17.1822C44.1309 17.0922 44.0418 16.98 43.979 16.8529C43.6855 16.3706 43.2732 15.9718 42.7814 15.6944C42.2897 15.417 41.7349 15.2704 41.1704 15.2686C40.6058 15.2668 40.0503 15.4099 39.5568 15.6841C39.0634 15.9584 38.6486 16.3546 38.352 16.835C38.2894 16.9678 38.1982 17.0851 38.0852 17.1787C37.9721 17.2724 37.8398 17.34 37.6977 17.3767C37.5556 17.4135 37.4072 17.4185 37.2629 17.3914C37.1186 17.3643 36.9821 17.3058 36.863 17.22C36.7451 17.1351 36.6459 17.0268 36.5717 16.9019C36.4976 16.7769 36.4499 16.638 36.4318 16.4938C36.4138 16.3496 36.4259 16.2033 36.467 16.064C36.5081 15.9246 36.5774 15.7953 36.6708 15.684C37.184 14.8995 37.8902 14.2602 38.7216 13.8273C39.5531 13.3944 40.482 13.1824 41.4189 13.2119Z" fill="#030303"/>
<path id="Path 3114_2" d="M33.5464 26.2273C32.4345 26.2292 31.3496 25.8849 30.4422 25.2423C29.5347 24.5998 28.8499 23.6907 28.4824 22.6412C28.2154 21.8592 28.4143 21.2992 29.0383 21.0742C29.6383 20.8592 30.1305 21.1643 30.4055 21.9343C30.5736 22.441 30.8628 22.8988 31.2481 23.2682C31.6333 23.6376 32.103 23.9075 32.6162 24.0542C33.1294 24.2009 33.6708 24.2202 34.1931 24.1102C34.7155 24.0003 35.203 23.7644 35.6135 23.4232C36.3475 22.8292 36.9264 22.7933 37.3484 23.3233C37.7704 23.8533 37.6134 24.4383 36.9014 25.0233C35.9543 25.7977 34.7698 26.2228 33.5464 26.2273Z" fill="#030303"/>
<path id="Path 3115_2" d="M27.9248 9.50521C29.3113 9.5079 30.6421 10.0517 31.6338 11.0206C32.6255 11.9895 33.1999 13.3071 33.2349 14.6932C33.2593 14.9677 33.1741 15.2408 32.9978 15.4526C32.8214 15.6644 32.5683 15.7976 32.2939 15.8232C32.1583 15.8335 32.0219 15.8164 31.8931 15.7728C31.7642 15.7292 31.6454 15.6601 31.5439 15.5695C31.4424 15.479 31.3604 15.3688 31.3025 15.2457C31.2445 15.1226 31.2119 14.9892 31.2068 14.8532C30.9508 13.0222 30.166 12.0152 28.689 11.6452C27.989 11.4668 27.2493 11.5288 26.5889 11.8213C26.4949 11.8613 26.4089 11.9212 26.3149 11.9582C26.1927 12.0333 26.056 12.082 25.9138 12.101C25.7716 12.1201 25.6272 12.1092 25.4895 12.0689C25.3518 12.0287 25.224 11.9601 25.1145 11.8675C25.0049 11.7749 24.9161 11.6604 24.8535 11.5313C24.7909 11.4023 24.7559 11.2615 24.751 11.1181C24.7461 10.9748 24.7713 10.832 24.8249 10.6989C24.8786 10.5659 24.9595 10.4456 25.0625 10.3458C25.1655 10.2459 25.2882 10.1687 25.4228 10.1192C26.191 9.70499 27.0521 9.49364 27.9248 9.50521Z" fill="#030303"/>
<path id="Path 3116_2" d="M30.8294 4.65675C30.8269 4.78877 30.7985 4.91901 30.7454 5.03993C30.6923 5.16084 30.6158 5.27001 30.5203 5.36122C30.4248 5.45242 30.3122 5.52384 30.189 5.5713C30.0658 5.61876 29.9345 5.64141 29.8025 5.63783C29.6661 5.6397 29.5305 5.61419 29.4041 5.563C29.2776 5.51181 29.1629 5.43596 29.0662 5.33973C28.9695 5.2435 28.8929 5.1289 28.8411 5.00269C28.7893 4.87649 28.7632 4.74116 28.7644 4.60475C28.7652 4.46745 28.7933 4.33175 28.8472 4.20545C28.9011 4.07916 28.9796 3.96487 29.0782 3.86927C29.1767 3.77367 29.2933 3.69869 29.4212 3.64869C29.5491 3.59869 29.6858 3.57462 29.823 3.57801C29.9603 3.5814 30.0955 3.61209 30.2207 3.66834C30.346 3.7246 30.4588 3.8053 30.5525 3.90565C30.6462 4.00599 30.7188 4.12402 30.7664 4.25282C30.814 4.38161 30.8354 4.51958 30.8294 4.65675Z" fill="#030303"/>
<path id="Path 3117_2" d="M20.2996 45.8266C19.009 45.8125 17.7678 45.3291 16.8077 44.4666C16.2327 43.9516 16.1327 43.3365 16.5547 42.8665C16.9547 42.4145 17.5547 42.4335 18.1417 42.9165C18.472 43.2197 18.8613 43.4517 19.2852 43.5979C19.7091 43.7442 20.1585 43.8017 20.6055 43.7668C21.0526 43.7319 21.4875 43.6055 21.8836 43.3952C22.2796 43.1849 22.6282 42.8954 22.9075 42.5446C23.1653 42.2063 23.3656 41.8279 23.5005 41.4246C23.5307 41.2824 23.5908 41.1482 23.6766 41.0308C23.7623 40.9134 23.8718 40.8155 23.9981 40.7436C24.1244 40.6716 24.2645 40.6272 24.4092 40.6132C24.5539 40.5992 24.7 40.616 24.8377 40.6625C24.974 40.7139 25.0982 40.7928 25.2027 40.8942C25.3072 40.9956 25.3895 41.1175 25.4449 41.2522C25.5002 41.3869 25.5275 41.5316 25.5245 41.6772C25.5215 41.8228 25.4884 41.9662 25.4275 42.0985C25.0797 43.1841 24.3952 44.1307 23.4732 44.8011C22.5512 45.4714 21.4396 45.8306 20.2996 45.8266Z" fill="#030303"/>
<path id="Path 3118_2" d="M13.0805 30.8524C13.9394 30.8372 14.7886 31.0362 15.5514 31.4313C16.2174 31.7743 16.4594 32.3313 16.1884 32.8813C16.1207 33.0153 16.0248 33.1332 15.9074 33.2268C15.79 33.3203 15.6537 33.3875 15.508 33.4235C15.3622 33.4596 15.2104 33.4637 15.0629 33.4357C14.9154 33.4078 14.7759 33.3483 14.6535 33.2613C14.2226 33.0321 13.7452 32.9041 13.2575 32.8868C12.7697 32.8695 12.2843 32.9633 11.8383 33.1613C11.2813 33.3866 10.8005 33.7668 10.4528 34.2568C10.1051 34.7468 9.90511 35.3262 9.87636 35.9263C9.80536 36.7793 9.36135 37.2544 8.72035 37.1684C8.46355 37.1414 8.22696 37.0167 8.05946 36.8201C7.89197 36.6236 7.80646 36.3702 7.82045 36.1124C7.83376 34.9117 8.25186 33.7506 9.00722 32.8172C9.76257 31.8838 10.8108 31.2327 11.9823 30.9693C12.3434 30.893 12.7114 30.8539 13.0805 30.8524Z" fill="#030303"/>
<path id="Path 3119_2" d="M7.7644 29.0748C7.49784 29.0642 7.24565 28.9512 7.0603 28.7593C6.87496 28.5675 6.77062 28.3115 6.76929 28.0447C6.78437 27.7695 6.90437 27.5105 7.10449 27.321C7.30462 27.1315 7.56984 27.0258 7.84546 27.0257C7.98204 27.0266 8.11689 27.0548 8.24243 27.1086C8.36797 27.1624 8.48158 27.2406 8.57642 27.3389C8.67125 27.4372 8.7454 27.5535 8.79468 27.6808C8.84396 27.8082 8.86728 27.9442 8.86328 28.0807C8.83979 28.3547 8.71345 28.6096 8.50952 28.794C8.30559 28.9785 8.03934 29.0788 7.7644 29.0748Z" fill="#030303"/>
</g>
</g>
</g>
<defs>
<clipPath id="clip0_18_194">
<rect width="56.61" height="56.636" fill="white" transform="translate(0.130005 0.00201416)"/>
</clipPath>
</defs>
</svg>
