<svg width="53" height="54" viewBox="0 0 53 54" fill="none" xmlns="http://www.w3.org/2000/svg">
<g id="2022-12_Paid_Holidays.svg" clip-path="url(#clip0_18_258)">
<g id="Group">
<g id="Group 7488">
<path id="Path 3097" d="M52.801 22.752C52.64 23.3895 52.5152 24.0355 52.4269 24.687C52.1179 25.9266 51.7256 27.1441 51.2529 28.331C50.0749 27.664 48.9239 27.019 47.7209 26.478C45.9476 25.6844 44.0877 25.1008 42.1789 24.739C41.8992 24.688 41.6385 24.5626 41.424 24.3759C40.5248 23.6119 39.5394 22.9555 38.488 22.42C38.228 22.287 38.1549 22.3389 38.0649 22.5849C36.0209 28.2189 33.9707 33.8523 31.914 39.485C31.794 39.813 31.9068 39.855 32.1808 39.885C36.5317 40.2966 40.7832 41.4333 44.759 43.248C46.1218 43.8655 47.446 44.5651 48.7241 45.343C47.6232 45.8806 46.5656 46.5027 45.561 47.2039C45.2717 47.3788 44.9392 47.4694 44.6013 47.4655C44.2633 47.4617 43.9331 47.3634 43.6479 47.182C43.1409 46.882 42.6628 46.535 42.1708 46.211C40.4509 45.1261 38.4577 44.5532 36.4243 44.5594C34.3908 44.5656 32.4012 45.1506 30.6879 46.2459C30.3433 46.4753 29.9999 46.7067 29.6579 46.94C29.2799 47.2687 28.7962 47.4503 28.2953 47.4518C27.7945 47.4532 27.3098 47.2744 26.9299 46.948C25.9182 46.1711 24.7922 45.5558 23.592 45.124C22.0802 44.6022 20.4701 44.4285 18.8818 44.6158C17.2935 44.8032 15.7678 45.3468 14.4189 46.206C13.9329 46.506 13.478 46.864 12.985 47.156C12.6817 47.3538 12.3276 47.4601 11.9655 47.462C11.6034 47.464 11.2485 47.3615 10.9431 47.167C9.96866 46.4735 8.93633 45.8649 7.85785 45.348C9.04405 44.6103 10.2758 43.9487 11.5458 43.367C15.7431 41.4192 20.2479 40.2181 24.8578 39.818C26.05 39.7102 27.2473 39.6684 28.444 39.693C28.5514 39.7097 28.661 39.6841 28.7499 39.6217C28.8389 39.5592 28.9001 39.4647 28.9208 39.358C31.0642 33.4553 33.2147 27.5553 35.372 21.6579C35.491 21.3329 35.408 21.275 35.103 21.208C34.0467 20.9598 32.9651 20.8366 31.8801 20.841C31.4688 20.8552 31.0616 20.7548 30.704 20.551C27.9736 19.0625 25.002 18.0669 21.926 17.61C21.671 17.568 21.573 17.5409 21.676 17.2409C22.3643 15.0141 23.479 12.9424 24.9579 11.141C27.352 8.3192 30.664 6.43167 34.312 5.81003C36.4051 5.4295 38.5551 5.49526 40.621 6.00302C40.909 6.07302 41.0778 6.04403 41.1708 5.71103C41.3148 5.19503 41.518 4.69603 41.696 4.19003H41.7958C41.8168 4.31903 41.94 4.298 42.017 4.327C42.687 4.577 43.3559 4.834 44.0349 5.056C44.3519 5.156 44.4081 5.29904 44.2761 5.59604C44.1151 5.95804 44.0179 6.34903 43.8549 6.71103C43.7259 6.99603 43.805 7.12304 44.072 7.25204C45.509 7.94753 46.8235 8.87185 47.9641 9.98898C50.2305 12.1665 51.7869 14.9775 52.4299 18.054C52.5679 18.695 52.6809 19.341 52.8049 19.985V20.368C52.6493 21.029 52.6493 21.7171 52.8049 22.378L52.801 22.752Z" fill="#F2F2F2"/>
<path id="Path 3098" d="M52.8009 50.32C51.7895 50.2584 50.7892 50.5587 49.9789 51.1671C48.9474 51.9974 47.756 52.6063 46.4789 52.956C45.4307 53.211 44.3409 53.2455 43.2787 53.057C42.2165 52.8685 41.2054 52.4612 40.309 51.861C39.993 51.646 39.664 51.448 39.361 51.217C38.5119 50.614 37.4963 50.2901 36.455 50.2901C35.4136 50.2901 34.398 50.614 33.549 51.217C32.5659 52.0344 31.4139 52.624 30.1759 52.9431C29.1296 53.2044 28.0403 53.2447 26.9774 53.0617C25.9146 52.8787 24.9015 52.4763 24.0028 51.8801C23.6858 51.6661 23.3549 51.471 23.0529 51.238C22.2015 50.6243 21.1793 50.2929 20.1298 50.2902C19.0803 50.2875 18.0563 50.6137 17.2018 51.223C16.2196 52.0416 15.0668 52.6304 13.8278 52.946C12.7808 53.2051 11.6915 53.2438 10.6288 53.0594C9.56611 52.875 8.55342 52.4717 7.65492 51.8751C7.14026 51.5284 6.61958 51.191 6.09291 50.863C5.50709 50.4995 4.8302 50.3092 4.14076 50.314C3.89476 50.314 3.76677 50.2751 3.77577 49.9791C3.79677 49.2301 3.79477 48.479 3.77577 47.731C3.76877 47.461 3.86888 47.431 4.10488 47.431C5.48247 47.4527 6.82483 47.8692 7.9728 48.6311C8.3728 48.8931 8.76478 49.166 9.16078 49.431C9.98569 49.9967 10.9633 50.298 11.9635 50.295C12.9638 50.292 13.9394 49.9847 14.7609 49.414C15.7214 48.6495 16.8141 48.0679 17.9848 47.6981C19.0847 47.3885 20.2393 47.3235 21.3671 47.5076C22.4948 47.6918 23.5685 48.1206 24.5128 48.764C25.2587 49.3891 26.1215 49.8595 27.0509 50.148C27.7399 50.3246 28.4587 50.3503 29.1586 50.2235C29.8584 50.0966 30.5227 49.8202 31.1059 49.413C32.1567 48.5539 33.3832 47.9357 34.6989 47.602C35.7184 47.3669 36.7749 47.34 37.8051 47.523C38.8352 47.706 39.8176 48.0952 40.6937 48.6671C41.0777 48.9241 41.4599 49.184 41.8429 49.441C42.6635 49.9999 43.6335 50.2982 44.6264 50.297C45.6192 50.2957 46.5887 49.995 47.4079 49.434C48.4662 48.5862 49.6881 47.9656 50.997 47.611C51.5874 47.4792 52.1922 47.424 52.7968 47.447L52.8009 50.32Z" fill="#F2F2F2"/>
<path id="Path 3099" d="M52.8 22.3686C52.6445 21.7077 52.6445 21.0196 52.8 20.3586V22.3686Z" fill="#F2F2F2"/>
<path id="Path 3100" d="M23.429 33.5416C22.168 33.4896 21.004 33.4577 19.842 33.3827C19.459 33.3577 19.418 33.4757 19.428 33.8247C19.459 34.9807 19.4399 36.1376 19.4399 37.3016L17.02 35.7777C16.185 35.2517 16.186 35.2516 15.731 36.1146C15.276 36.9776 14.813 37.8506 14.313 38.7966C13.785 37.7966 13.2899 36.8656 12.7969 35.9316C12.4409 35.2566 12.4419 35.2557 11.7969 35.6627L9.07202 37.3756C9.07202 37.0686 9.06402 36.8246 9.07202 36.5816C9.10802 35.6256 9.13602 34.6686 9.19702 33.7136C9.21602 33.4136 9.11691 33.3726 8.85791 33.3856C7.66391 33.4446 6.46988 33.4856 5.20288 33.5416C5.51788 33.0326 5.80303 32.5636 6.10303 32.0966C6.45803 31.5296 6.80296 30.9577 7.17896 30.4037C7.32696 30.1847 7.27901 30.1037 7.06201 29.9967C5.99001 29.4437 4.92697 28.8746 3.79297 28.2756C4.88697 27.6966 5.90888 27.1337 6.95288 26.6157C7.28588 26.4507 7.31399 26.3366 7.11499 26.0346C6.47799 25.0666 5.87101 24.0797 5.23901 23.0797C5.85501 23.0797 6.43894 23.0707 7.01294 23.0797C7.61894 23.0917 8.22586 23.1026 8.82886 23.1516C9.17286 23.1796 9.21085 23.0517 9.19385 22.7517C9.13385 21.7327 9.10394 20.7126 9.06494 19.6926C9.05894 19.5406 9.06494 19.3927 9.06494 19.1687C10.0969 19.8167 11.0868 20.4157 12.0498 21.0547C12.3668 21.2647 12.4979 21.2416 12.6689 20.9006C13.1859 19.8686 13.7369 18.8526 14.3169 17.7506C14.8869 18.8316 15.4309 19.8297 15.9399 20.8507C16.1179 21.2057 16.2399 21.3046 16.6179 21.0506C17.5609 20.4076 18.543 19.8226 19.447 19.2506C19.447 20.3936 19.4688 21.5506 19.4348 22.6976C19.4238 23.0746 19.4879 23.1716 19.8779 23.1616C21.0349 23.1296 22.193 23.1506 23.353 23.1506C22.771 24.0706 22.1658 25.0566 21.5278 26.0206C21.3188 26.3376 21.361 26.4647 21.699 26.6327C22.736 27.1497 23.7519 27.7056 24.8389 28.2796L21.2998 30.1506L23.429 33.5416ZM9.04785 28.2706C9.04429 29.3125 9.35009 30.3321 9.92627 31.2002C10.5024 32.0683 11.3232 32.7459 12.2847 33.1473C13.2462 33.5487 14.3053 33.6557 15.3276 33.4549C16.35 33.2541 17.2898 32.7546 18.0281 32.0194C18.7664 31.2842 19.2698 30.3465 19.4749 29.3249C19.6799 28.3034 19.5773 27.2439 19.1799 26.2807C18.7826 25.3176 18.1084 24.494 17.2427 23.9142C16.377 23.3343 15.3588 23.0244 14.3169 23.0237C12.9244 23.0273 11.5897 23.5806 10.603 24.5632C9.61632 25.5458 9.05734 26.8781 9.04785 28.2706Z" fill="#F2F2F2"/>
</g>
<g id="Group 7487">
<path id="Path 3097_2" d="M49.6669 18.5741C49.506 19.2115 49.3811 19.8575 49.2929 20.509C48.9839 21.7487 48.5916 22.9661 48.1188 24.153C46.9408 23.486 45.7899 22.841 44.5869 22.3C42.8136 21.5065 40.9536 20.9228 39.0449 20.561C38.7651 20.51 38.5045 20.3846 38.29 20.198C37.3908 19.4339 36.4054 18.7776 35.3539 18.242C35.0939 18.109 35.0208 18.161 34.9308 18.407C32.8868 24.041 30.8366 29.6743 28.78 35.307C28.66 35.635 28.7728 35.677 29.0468 35.707C33.3977 36.1186 37.6492 37.2553 41.6249 39.07C42.9878 39.6875 44.3119 40.3871 45.59 41.165C44.4892 41.7026 43.4316 42.3248 42.4269 43.026C42.1377 43.2008 41.8052 43.2915 41.4672 43.2876C41.1292 43.2837 40.799 43.1854 40.5139 43.004C40.0069 42.704 39.5288 42.3571 39.0368 42.0331C37.3169 40.9482 35.3237 40.3752 33.2902 40.3814C31.2568 40.3876 29.2671 40.9726 27.5539 42.068C27.2092 42.2973 26.8659 42.5287 26.5239 42.7621C26.1459 43.0907 25.6622 43.2723 25.1613 43.2738C24.6604 43.2752 24.1758 43.0964 23.7958 42.77C22.7841 41.9931 21.6582 41.3778 20.4579 40.946C18.9461 40.4242 17.3361 40.2505 15.7477 40.4378C14.1594 40.6252 12.6338 41.1688 11.2849 42.028C10.7989 42.328 10.344 42.686 9.85101 42.978C9.54766 43.1758 9.19361 43.2821 8.83148 43.284C8.46935 43.286 8.11448 43.1835 7.80902 42.989C6.83463 42.2955 5.8023 41.687 4.72382 41.17C5.91002 40.4324 7.14181 39.7707 8.4118 39.1891C12.6091 37.2412 17.1139 36.0401 21.7238 35.64C22.9159 35.5322 24.1133 35.4905 25.31 35.515C25.4174 35.5317 25.527 35.5062 25.6159 35.4437C25.7049 35.3812 25.7661 35.2867 25.7868 35.18C27.9301 29.2774 30.0806 23.3773 32.238 17.4799C32.357 17.1549 32.2739 17.097 31.9689 17.03C30.9127 16.7818 29.831 16.6587 28.746 16.6631C28.3347 16.6773 27.9275 16.5768 27.57 16.373C24.8396 14.8845 21.868 13.8889 18.7919 13.432C18.5369 13.39 18.4389 13.363 18.5419 13.063C19.2303 10.8362 20.345 8.76443 21.8239 6.96298C24.2179 4.14122 27.53 2.25369 31.1779 1.63205C33.2711 1.25152 35.421 1.31728 37.487 1.82504C37.775 1.89504 37.9438 1.86605 38.0368 1.53305C38.1808 1.01705 38.3839 0.518054 38.562 0.0120544H38.6618C38.6828 0.141054 38.806 0.120017 38.883 0.149017C39.553 0.399017 40.2218 0.656021 40.9008 0.878021C41.2178 0.978021 41.274 1.12106 41.142 1.41806C40.981 1.78006 40.8839 2.17105 40.7209 2.53305C40.5919 2.81805 40.6709 2.94507 40.9379 3.07407C42.375 3.76955 43.6895 4.69387 44.83 5.811C47.0965 7.98857 48.6528 10.7995 49.2958 13.8761C49.4338 14.5171 49.5468 15.163 49.6708 15.807V16.19C49.5152 16.851 49.5152 17.5391 49.6708 18.2L49.6669 18.5741Z" fill="#010101"/>
<path id="Path 3098_2" d="M49.6669 46.1421C48.6556 46.0805 47.6552 46.3808 46.8449 46.9892C45.8135 47.8195 44.622 48.4284 43.3449 48.7781C42.2968 49.0332 41.2069 49.0676 40.1447 48.8791C39.0826 48.6906 38.0714 48.2833 37.175 47.6832C36.859 47.4682 36.53 47.2701 36.227 47.0391C35.378 46.4362 34.3624 46.1122 33.321 46.1122C32.2796 46.1122 31.264 46.4362 30.415 47.0391C29.432 47.8565 28.28 48.4461 27.0419 48.7652C25.9956 49.0265 24.9063 49.0669 23.8435 48.8838C22.7806 48.7008 21.7675 48.2985 20.8689 47.7022C20.5519 47.4882 20.2209 47.2931 19.9189 47.0601C19.0675 46.4464 18.0453 46.115 16.9958 46.1123C15.9463 46.1097 14.9223 46.4358 14.0678 47.0451C13.0857 47.8638 11.9329 48.4525 10.6938 48.7681C9.64683 49.0272 8.55752 49.0659 7.49483 48.8815C6.43214 48.6971 5.41945 48.2938 4.52095 47.6972C4.00629 47.3505 3.48561 47.0131 2.95894 46.6851C2.37312 46.3216 1.69623 46.1313 1.00679 46.1362C0.760792 46.1362 0.632802 46.0972 0.641802 45.8012C0.662802 45.0522 0.660802 44.3011 0.641802 43.5531C0.634802 43.2831 0.734903 43.2531 0.970903 43.2531C2.34849 43.2748 3.69086 43.6913 4.83882 44.4532C5.23882 44.7152 5.63081 44.9881 6.02681 45.2531C6.85172 45.8188 7.8293 46.1201 8.82955 46.1171C9.82979 46.1141 10.8055 45.8068 11.6269 45.2361C12.5875 44.4716 13.6801 43.89 14.8508 43.5202C15.9508 43.2106 17.1054 43.1456 18.2331 43.3298C19.3609 43.5139 20.4345 43.9427 21.3789 44.5861C22.1247 45.2112 22.9875 45.6817 23.9169 45.9701C24.6059 46.1467 25.3248 46.1724 26.0246 46.0456C26.7245 45.9187 27.3887 45.6423 27.9719 45.2352C29.0227 44.376 30.2492 43.7578 31.5649 43.4241C32.5844 43.189 33.641 43.1621 34.6711 43.3451C35.7012 43.5281 36.6836 43.9173 37.5598 44.4892C37.9438 44.7462 38.3259 45.0061 38.7089 45.2631C39.5295 45.822 40.4995 46.1203 41.4924 46.1191C42.4852 46.1178 43.4547 45.8171 44.2739 45.2561C45.3322 44.4083 46.5541 43.7878 47.863 43.4332C48.4534 43.3013 49.0582 43.2461 49.6628 43.2691L49.6669 46.1421Z" fill="#22438A"/>
<path id="Path 3099_2" d="M49.6661 18.1907C49.5105 17.5297 49.5105 16.8417 49.6661 16.1807V18.1907Z" fill="#020202"/>
<path id="Path 3100_2" d="M20.295 29.3637C19.034 29.3117 17.8701 29.2798 16.7081 29.2048C16.3251 29.1798 16.284 29.2978 16.294 29.6468C16.325 30.8028 16.306 31.9597 16.306 33.1237L13.886 31.5998C13.051 31.0738 13.052 31.0737 12.597 31.9367C12.142 32.7997 11.679 33.6727 11.179 34.6187C10.651 33.6187 10.1559 32.6877 9.6629 31.7537C9.3069 31.0787 9.3079 31.0778 8.6629 31.4848L5.93805 33.1977C5.93805 32.8907 5.93005 32.6467 5.93805 32.4037C5.97405 31.4477 6.00205 30.4907 6.06305 29.5357C6.08205 29.2357 5.98294 29.1947 5.72394 29.2077C4.52994 29.2667 3.33591 29.3077 2.06891 29.3637C2.38391 28.8547 2.66906 28.3858 2.96906 27.9188C3.32406 27.3518 3.66898 26.7798 4.04498 26.2258C4.19298 26.0068 4.14504 25.9258 3.92804 25.8188C2.85604 25.2658 1.793 24.6967 0.658997 24.0977C1.753 23.5187 2.77491 22.9558 3.81891 22.4378C4.15191 22.2728 4.18002 22.1588 3.98102 21.8568C3.34402 20.8888 2.73704 19.9018 2.10504 18.9018C2.72104 18.9018 3.30497 18.8928 3.87897 18.9018C4.48497 18.9138 5.09189 18.9247 5.69489 18.9737C6.03889 19.0017 6.07688 18.8738 6.05988 18.5738C5.99988 17.5548 5.96997 16.5347 5.93097 15.5147C5.92497 15.3627 5.93097 15.2148 5.93097 14.9908C6.96297 15.6388 7.95283 16.2378 8.91583 16.8768C9.23283 17.0868 9.36397 17.0637 9.53497 16.7227C10.052 15.6907 10.6029 14.6747 11.1829 13.5727C11.7529 14.6537 12.297 15.6518 12.806 16.6728C12.984 17.0278 13.1059 17.1267 13.4839 16.8727C14.4269 16.2297 15.409 15.6447 16.313 15.0727C16.313 16.2157 16.3348 17.3727 16.3008 18.5197C16.2898 18.8967 16.354 18.9937 16.744 18.9837C17.901 18.9517 19.0591 18.9727 20.2191 18.9727C19.6371 19.8927 19.0319 20.8787 18.3939 21.8427C18.1849 22.1597 18.227 22.2868 18.565 22.4548C19.602 22.9718 20.6179 23.5277 21.7049 24.1017L18.1658 25.9727L20.295 29.3637ZM5.91388 24.0927C5.91032 25.1346 6.21612 26.1542 6.7923 27.0223C7.36848 27.8904 8.1892 28.568 9.1507 28.9694C10.1122 29.3708 11.1713 29.4778 12.1937 29.277C13.216 29.0762 14.1558 28.5767 14.8941 27.8415C15.6324 27.1063 16.1358 26.1686 16.3409 25.147C16.5459 24.1255 16.4433 23.066 16.046 22.1028C15.6486 21.1397 14.9744 20.3161 14.1087 19.7363C13.243 19.1565 12.2248 18.8466 11.1829 18.8458C9.79043 18.8494 8.45576 19.4027 7.46906 20.3853C6.48235 21.3679 5.92336 22.7002 5.91388 24.0927Z" fill="#22438A"/>
</g>
</g>
</g>
<defs>
<clipPath id="clip0_18_258">
<rect width="52.16" height="53.154" fill="white" transform="translate(0.639954 0.00302124)"/>
</clipPath>
</defs>
</svg>
