<svg width="41" height="74" viewBox="0 0 41 74" fill="none" xmlns="http://www.w3.org/2000/svg">
<g id="2022-12_Achivement.svg" clip-path="url(#clip0_18_177)">
<g id="Group">
<g id="Group 7483">
<path id="Path 3072" d="M19.0794 32.5221C17.7216 33.2749 16.3709 34.0138 15.0312 34.7737C14.4633 35.0956 13.9114 35.2626 13.3705 34.7637C13.1643 34.5562 13.0351 34.2845 13.0044 33.9936C12.9737 33.7027 13.0432 33.4099 13.2015 33.1639C14.5273 29.8826 15.834 26.5932 17.1697 23.3159C17.2179 23.245 17.2492 23.164 17.2611 23.0791C17.2731 22.9943 17.2654 22.9078 17.2386 22.8264C17.2119 22.7449 17.1668 22.6707 17.1068 22.6095C17.0468 22.5482 16.9736 22.5015 16.8928 22.473C14.3263 20.8944 11.7808 19.2808 9.21933 17.6951C8.69043 17.3681 8.26451 17.0012 8.38348 16.3194C8.50246 15.6375 9.01537 15.4345 9.62824 15.3015C12.5956 14.6576 15.5551 13.9747 18.5265 13.3399C18.7349 13.3081 18.9316 13.2234 19.0978 13.0937C19.264 12.964 19.394 12.7936 19.4753 12.599C20.775 9.96357 22.1017 7.34308 23.4075 4.71061C23.6694 4.18372 23.9684 3.74188 24.6322 3.75987C25.2551 3.77687 25.541 4.1978 25.791 4.7017C27.0967 7.33617 28.4265 9.95755 29.7222 12.6C29.8048 12.794 29.9358 12.9637 30.1026 13.0927C30.2694 13.2217 30.4665 13.3058 30.675 13.3369C33.6904 13.9878 36.6968 14.6787 39.7102 15.3365C39.9787 15.353 40.2337 15.4599 40.4338 15.6397C40.6339 15.8195 40.7673 16.0616 40.8122 16.3268C40.8572 16.592 40.8111 16.8648 40.6814 17.1005C40.5518 17.3362 40.3462 17.521 40.0981 17.625C37.5186 19.2247 34.9542 20.8564 32.3617 22.4391C31.9118 22.7141 31.8688 22.9209 32.0617 23.3899C33.4015 26.6642 34.7092 29.9526 36.0219 33.238C36.3399 34.0328 36.1839 34.6027 35.5931 34.9376C35.3887 35.0442 35.1586 35.0913 34.9289 35.0737C34.6991 35.056 34.4789 34.9742 34.2933 34.8376C32.9096 34.0598 31.5199 33.292 30.0652 32.4831C30.0956 33.0515 30.2174 33.6112 30.4261 34.1408C31.4179 37.74 32.4417 41.3303 33.4255 44.9325C33.5495 45.3875 33.7194 45.5625 34.1943 45.5275C34.7712 45.4845 35.3531 45.5135 35.933 45.5185C36.9328 45.5265 37.3477 45.9283 37.3557 46.9112C37.3627 47.733 37.4127 48.5588 37.3407 49.3737C37.2787 50.0735 37.5527 50.2335 38.1745 50.1645C38.5843 50.1373 38.9952 50.1347 39.4053 50.1566C40.4371 50.1666 40.831 50.5665 40.835 51.6203C40.8396 52.9734 40.8396 54.3264 40.835 55.6794C40.835 56.7152 40.4231 57.1671 39.3813 57.0961C38.6324 57.0451 38.4815 57.2831 38.4985 57.996C38.5485 60.2175 38.5334 62.4411 38.5045 64.6637C38.4985 65.1526 38.6474 65.2526 39.1043 65.2476C40.5431 65.2316 40.835 65.5474 40.835 66.9801C40.835 68.6228 40.835 70.2655 40.835 71.9092C40.835 72.942 40.4221 73.355 39.3843 73.355C29.5276 73.355 19.6712 73.355 9.8152 73.355C8.77641 73.355 8.36949 72.943 8.36649 71.9092C8.36115 70.1942 8.36115 68.4789 8.36649 66.7633C8.36649 65.6225 8.74841 65.2046 9.87719 65.2526C10.5161 65.2796 10.718 65.1276 10.704 64.4527C10.655 62.2071 10.673 59.9596 10.696 57.7121C10.696 57.2552 10.603 57.1031 10.1131 57.1121C8.63344 57.1311 8.3665 56.8322 8.3655 55.3295C8.3655 54.1218 8.3655 52.9137 8.3655 51.7052C8.3655 50.5335 8.74141 50.1696 9.93917 50.1666C9.96317 50.1666 9.98717 50.1666 10.0112 50.1666C10.606 50.1206 11.4179 50.4325 11.7358 50.0446C12.0358 49.6786 11.8358 48.8969 11.8358 48.297C11.8428 47.8381 11.8358 47.3791 11.8358 46.9202C11.8468 45.9364 12.2547 45.5365 13.2595 45.5285C13.8874 45.5285 14.5163 45.5115 15.1431 45.5345C15.4491 45.5455 15.622 45.4825 15.712 45.1545C16.8571 40.9974 18.0086 36.8422 19.1663 32.689C19.1793 32.66 19.1513 32.635 19.0794 32.5221ZM36.6548 17.0392C34.0813 16.4633 31.6858 15.9104 29.2813 15.3995C29.01 15.3514 28.7551 15.2361 28.54 15.064C28.3248 14.892 28.1562 14.6688 28.0495 14.4147C27.0098 12.2961 25.95 10.1886 24.8822 8.08201C24.8062 7.93204 24.8092 7.69 24.5273 7.669C23.3955 9.92755 22.2557 12.1832 21.1369 14.4507C21.0356 14.6949 20.8739 14.9092 20.667 15.0738C20.4601 15.2383 20.2149 15.3476 19.9542 15.3915C18.8894 15.5914 17.8356 15.8544 16.7768 16.0914C15.4151 16.3973 14.0544 16.7063 12.5567 17.0442C14.8152 18.4569 16.9388 19.7836 19.0553 21.1143C20.0321 21.7282 20.1341 22.0582 19.7012 23.1489C18.6441 25.8111 17.5843 28.4772 16.5219 31.1473C16.8438 31.2013 17.0218 31.0003 17.2217 30.8884C19.3923 29.6886 21.5669 28.4889 23.7204 27.2602C23.9816 27.0882 24.2875 26.9964 24.6003 26.9964C24.913 26.9964 25.2189 27.0882 25.4801 27.2602C26.7728 28.009 28.0855 28.7228 29.3903 29.4497C30.4281 30.0276 31.4679 30.6025 32.5306 31.1924C32.5613 31.087 32.5688 30.9763 32.5528 30.8677C32.5367 30.7592 32.4975 30.6554 32.4377 30.5635C31.4379 28.06 30.4381 25.5565 29.4383 23.053C29.0634 22.1142 29.1963 21.7033 30.0382 21.1724C31.038 20.5425 32.0377 19.9206 33.0435 19.2947L36.6548 17.0392ZM24.5313 65.2295C28.2305 65.2295 31.9228 65.2196 35.618 65.2416C36.0969 65.2416 36.2119 65.1115 36.2069 64.6416C36.1822 62.3227 36.1822 60.0039 36.2069 57.685C36.2129 57.2021 36.071 57.0982 35.6071 57.0992C28.2639 57.1138 20.921 57.1138 13.5785 57.0992C13.0996 57.0992 12.9846 57.2291 12.9896 57.699C13.0136 59.9986 13.0216 62.2891 12.9896 64.5836C12.9806 65.1365 13.1325 65.2495 13.6634 65.2455C17.2877 65.2185 20.911 65.2316 24.5333 65.2316L24.5313 65.2295ZM31.1439 45.4835C31.1109 45.3095 31.0949 45.1675 31.0569 45.0315C29.7872 40.4874 28.5075 35.9474 27.2577 31.3983C27.1302 31.0214 26.8762 30.7004 26.5389 30.4895C26.0188 29.9754 25.3159 29.6889 24.5847 29.693C23.8535 29.6972 23.1538 29.9916 22.6396 30.5115C22.3033 30.7239 22.0531 31.0488 21.9338 31.4283C21.0949 34.5177 20.2241 37.5981 19.3633 40.6814C18.9184 42.2731 18.4725 43.8649 18.0186 45.4805L31.1439 45.4835ZM24.6302 67.5501C20.1851 67.5501 15.741 67.56 11.2969 67.537C10.782 67.537 10.641 67.667 10.672 68.1719C10.7198 68.9193 10.7198 69.669 10.672 70.4165C10.638 70.9374 10.81 71.0414 11.3079 71.0404C20.1728 71.0244 29.0377 71.0204 37.9026 71.0284C37.9748 71.023 38.0473 71.023 38.1196 71.0284C38.4425 71.0774 38.5295 70.9354 38.5195 70.6235C38.4995 69.8026 38.4775 68.9788 38.5254 68.16C38.5564 67.6381 38.3865 67.5341 37.8886 67.5361C33.4765 67.56 29.0533 67.552 24.6322 67.552L24.6302 67.5501ZM24.6732 52.4731H12.2807C10.681 52.4731 10.712 52.4731 10.666 54.0648C10.649 54.6646 10.804 54.8087 11.4069 54.8067C19.8852 54.784 28.3635 54.779 36.8418 54.7917C38.5205 54.7917 38.4945 54.7916 38.5275 53.1269C38.5385 52.5851 38.4015 52.4551 37.8596 52.4591C33.4685 52.4851 29.0724 52.4741 24.6782 52.4741L24.6732 52.4731ZM24.5623 50.1526H33.4035C35.0412 50.1526 35.0142 50.1525 35.0521 48.5239C35.0651 47.957 34.9132 47.8181 34.3523 47.8241C28.1925 47.8461 22.0328 47.838 15.874 47.838C14.1553 47.838 14.1743 47.838 14.1533 49.5377C14.1463 50.0466 14.2753 50.1726 14.7842 50.1676C18.0426 50.1416 21.3039 50.1535 24.5643 50.1535L24.5623 50.1526Z" fill="#F2F2F2"/>
<path id="Path 3073" d="M36.6578 17.0381L33.0515 19.2946C32.0517 19.9205 31.046 20.5434 30.0462 21.1723C29.2023 21.7032 29.0693 22.1141 29.4463 23.0529C30.4461 25.5578 31.4459 28.0612 32.4457 30.5634C32.5055 30.6554 32.5447 30.7592 32.5608 30.8678C32.5768 30.9763 32.5693 31.0869 32.5386 31.1923C31.4758 30.6024 30.4391 30.0276 29.3983 29.4497C28.0925 28.7239 26.7798 28.0099 25.488 27.2601C25.2269 27.0881 24.921 26.9965 24.6082 26.9965C24.2955 26.9965 23.9896 27.0881 23.7284 27.2601C21.5738 28.4898 19.3983 29.6866 17.2297 30.8884C17.0298 31.0004 16.8538 31.2004 16.5298 31.1474C17.5963 28.4706 18.6561 25.8044 19.7092 23.149C20.1431 22.0572 20.0411 21.7272 19.0633 21.1143C16.9428 19.7836 14.8192 18.4568 12.5646 17.0441C14.0643 16.7062 15.4231 16.3982 16.7848 16.0913C17.8426 15.8533 18.8974 15.5915 19.9622 15.3915C20.2229 15.3477 20.4681 15.2384 20.675 15.0738C20.8819 14.9092 21.0436 14.6948 21.1449 14.4506C22.2637 12.1841 23.4035 9.92758 24.5352 7.66904C24.8172 7.69003 24.8142 7.93195 24.8902 8.08192C25.954 10.1885 27.0177 12.2961 28.0575 14.4146C28.1641 14.6687 28.3328 14.892 28.5479 15.064C28.7631 15.2361 29.018 15.3513 29.2893 15.3994C31.6888 15.9093 34.0843 16.4622 36.6578 17.0381Z" fill="#F2F2F2"/>
<path id="Path 3074" d="M24.5343 65.2344C20.911 65.2344 17.2877 65.2225 13.6654 65.2475C13.1346 65.2475 12.9836 65.1385 12.9916 64.5857C13.0276 62.2911 13.0206 59.9956 12.9916 57.701C12.9866 57.2341 13.1005 57.1011 13.5804 57.1011C20.9236 57.1171 28.2665 57.1171 35.6091 57.1011C36.072 57.1011 36.2089 57.2011 36.2089 57.687C36.1816 60.0059 36.1816 62.3248 36.2089 64.6436C36.2089 65.1095 36.0999 65.2435 35.62 65.2435C31.9248 65.2215 28.2255 65.2344 24.5343 65.2344Z" fill="#F2F2F2"/>
<path id="Path 3075" d="M24.6332 67.5511C29.0533 67.5511 33.4744 67.559 37.8945 67.539C38.3944 67.539 38.5624 67.639 38.5314 68.1629C38.4824 68.9817 38.5054 69.8056 38.5254 70.6264C38.5324 70.9393 38.4455 71.0803 38.1255 71.0313C38.0533 71.026 37.9808 71.026 37.9086 71.0313C29.0437 71.0313 20.1788 71.0353 11.3139 71.0433C10.814 71.0433 10.644 70.9433 10.678 70.4194C10.7257 69.672 10.7257 68.9223 10.678 68.1749C10.647 67.67 10.788 67.5371 11.3029 67.5401C15.744 67.5601 20.1861 67.5511 24.6332 67.5511Z" fill="#F2F2F2"/>
</g>
<g id="Group 7482">
<path id="Path 3072_2" d="M11.5759 28.7696C10.2181 29.5225 8.86741 30.2614 7.52768 31.0213C6.95979 31.3432 6.4079 31.5102 5.86701 31.0113C5.6608 30.8038 5.53163 30.5321 5.50091 30.2411C5.47018 29.9502 5.53973 29.6575 5.69804 29.4115C7.02377 26.1301 8.33052 22.8408 9.66625 19.5635C9.71444 19.4926 9.74571 19.4116 9.75765 19.3267C9.76959 19.2418 9.76189 19.1554 9.73513 19.0739C9.70838 18.9925 9.66328 18.9183 9.60332 18.8571C9.54337 18.7958 9.47014 18.7491 9.3893 18.7206C6.82282 17.1419 4.27734 15.5283 1.71585 13.9427C1.18696 13.6157 0.761027 13.2488 0.880003 12.5669C0.998979 11.8851 1.51189 11.6821 2.12476 11.5491C5.09217 10.9052 8.05157 10.2223 11.023 9.58744C11.2314 9.55572 11.4282 9.47102 11.5943 9.34128C11.7605 9.21153 11.8905 9.04113 11.9718 8.84663C13.2715 6.21115 14.5983 3.59066 15.904 0.958188C16.1659 0.431294 16.4649 -0.0105455 17.1288 0.00745094C17.7516 0.0244475 18.0376 0.44538 18.2875 0.949279C19.5933 3.58375 20.923 6.20513 22.2187 8.8476C22.3013 9.04161 22.4323 9.2113 22.5991 9.3403C22.7659 9.4693 22.963 9.55335 23.1715 9.58451C26.1869 10.2354 29.1933 10.9262 32.2067 11.5841C32.4752 11.6006 32.7303 11.7075 32.9303 11.8873C33.1304 12.0671 33.2638 12.3092 33.3087 12.5744C33.3537 12.8396 33.3076 13.1123 33.178 13.348C33.0483 13.5837 32.8427 13.7686 32.5947 13.8726C30.0152 15.4723 27.4507 17.104 24.8582 18.6867C24.4083 18.9616 24.3653 19.1685 24.5583 19.6374C25.898 22.9118 27.2057 26.2002 28.5185 29.4856C28.8364 30.2804 28.6805 30.8502 28.0896 31.1852C27.8853 31.2918 27.6552 31.3389 27.4254 31.3213C27.1956 31.3036 26.9754 31.2218 26.7898 31.0852C25.4061 30.3074 24.0164 29.5395 22.5617 28.7307C22.5921 29.2991 22.7139 29.8588 22.9226 30.3883C23.9144 33.9876 24.9382 37.5778 25.922 41.1801C26.046 41.635 26.2159 41.8101 26.6908 41.7751C27.2677 41.7321 27.8496 41.7611 28.4295 41.7661C29.4293 41.7741 29.8442 42.1759 29.8522 43.1587C29.8592 43.9806 29.9092 44.8064 29.8372 45.6213C29.7752 46.3211 30.0492 46.4811 30.6711 46.4121C31.0808 46.3849 31.4918 46.3822 31.9018 46.4042C32.9336 46.4142 33.3275 46.8141 33.3315 47.8679C33.3362 49.2209 33.3362 50.5739 33.3315 51.927C33.3315 52.9628 32.9196 53.4147 31.8778 53.3437C31.129 53.2927 30.978 53.5307 30.995 54.2435C31.045 56.4651 31.03 58.6887 31.001 60.9113C30.995 61.4002 31.144 61.5001 31.6009 61.4951C33.0396 61.4792 33.3315 61.795 33.3315 63.2277C33.3315 64.8704 33.3315 66.5131 33.3315 68.1568C33.3315 69.1896 32.9186 69.6025 31.8808 69.6025C22.0241 69.6025 12.1678 69.6025 2.31172 69.6025C1.27293 69.6025 0.866007 69.1906 0.863008 68.1568C0.857676 66.4418 0.857676 64.7265 0.863008 63.0108C0.863008 61.8701 1.24493 61.4522 2.37371 61.5002C3.01258 61.5271 3.21455 61.3751 3.20055 60.7003C3.15156 58.4547 3.16955 56.2072 3.19254 53.9597C3.19254 53.5028 3.09957 53.3507 2.60967 53.3597C1.12996 53.3787 0.863016 53.0798 0.862016 51.5771C0.862016 50.3693 0.862016 49.1612 0.862016 47.9528C0.862016 46.781 1.23793 46.4172 2.43569 46.4142C2.45969 46.4142 2.48369 46.4142 2.50768 46.4142C3.10256 46.3682 3.91441 46.6801 4.23234 46.2921C4.53228 45.9262 4.33232 45.1444 4.33232 44.5446C4.33931 44.0857 4.33232 43.6267 4.33232 43.1678C4.34331 42.184 4.75124 41.7841 5.75604 41.7761C6.38392 41.7761 7.01278 41.7591 7.63965 41.7821C7.94559 41.793 8.11856 41.7301 8.20854 41.4021C9.35364 37.245 10.5051 33.0898 11.6629 28.9366C11.6759 28.9076 11.6479 28.8826 11.5759 28.7696ZM29.1513 13.2868C26.5779 12.7109 24.1823 12.158 21.7778 11.6471C21.5065 11.599 21.2517 11.4836 21.0365 11.3116C20.8213 11.1395 20.6527 10.9163 20.5461 10.6623C19.5063 8.54373 18.4465 6.43616 17.3787 4.32958C17.3027 4.17961 17.3057 3.93758 17.0238 3.91658C15.892 6.17513 14.7522 8.43076 13.6334 10.6983C13.5321 10.9425 13.3704 11.1568 13.1635 11.3213C12.9567 11.4859 12.7114 11.5952 12.4507 11.639C11.3859 11.839 10.3321 12.102 9.27333 12.339C7.9116 12.6449 6.55088 12.9538 5.05318 13.2918C7.31173 14.7045 9.43529 16.0312 11.5519 17.3619C12.5287 17.9758 12.6306 18.3057 12.1977 19.3965C11.1406 22.0586 10.0808 24.7248 9.01839 27.3949C9.34033 27.4489 9.51829 27.2479 9.71825 27.1359C11.8888 25.9362 14.0634 24.7365 16.2169 23.5078C16.4781 23.3357 16.784 23.244 17.0968 23.244C17.4095 23.244 17.7154 23.3357 17.9766 23.5078C19.2693 24.2566 20.5821 24.9704 21.8868 25.6973C22.9246 26.2751 23.9644 26.8501 25.0272 27.4399C25.0578 27.3346 25.0654 27.2238 25.0493 27.1153C25.0333 27.0068 24.994 26.903 24.9342 26.811C23.9344 24.3075 22.9346 21.8041 21.9348 19.3006C21.5599 18.3618 21.6929 17.9509 22.5347 17.42C23.5345 16.7901 24.5343 16.1682 25.5401 15.5423L29.1513 13.2868ZM17.0278 61.4771C20.727 61.4771 24.4193 61.4672 28.1146 61.4892C28.5935 61.4892 28.7084 61.3591 28.7034 60.8892C28.6788 58.5703 28.6788 56.2514 28.7034 53.9326C28.7094 53.4497 28.5675 53.3458 28.1036 53.3468C20.7604 53.3614 13.4175 53.3614 6.07498 53.3468C5.59607 53.3468 5.48109 53.4767 5.48609 53.9466C5.51009 56.2462 5.51809 58.5367 5.48609 60.8312C5.47709 61.3841 5.62906 61.4971 6.15995 61.4931C9.78423 61.4661 13.4075 61.4792 17.0298 61.4792L17.0278 61.4771ZM23.6404 41.731C23.6075 41.5571 23.5915 41.4151 23.5535 41.2791C22.2837 36.735 21.004 32.1949 19.7542 27.6458C19.6267 27.269 19.3728 26.9479 19.0354 26.7371C18.5154 26.223 17.8124 25.9365 17.0812 25.9406C16.35 25.9447 15.6504 26.2391 15.1362 26.7591C14.7998 26.9715 14.5496 27.2963 14.4303 27.6759C13.5915 30.7652 12.7206 33.8456 11.8598 36.929C11.4149 38.5207 10.969 40.1124 10.5151 41.7281L23.6404 41.731ZM17.1268 63.7977C12.6817 63.7977 8.23753 63.8076 3.79342 63.7846C3.27852 63.7846 3.13755 63.9146 3.16855 64.4195C3.2163 65.1669 3.2163 65.9166 3.16855 66.664C3.13455 67.1849 3.30652 67.2889 3.80442 67.2879C12.6693 67.2719 21.5342 67.268 30.3991 67.276C30.4713 67.2706 30.5439 67.2706 30.6161 67.276C30.939 67.325 31.026 67.183 31.016 66.871C30.996 66.0502 30.974 65.2264 31.022 64.4075C31.053 63.8856 30.883 63.7816 30.3851 63.7836C25.973 63.8076 21.5499 63.7996 17.1288 63.7996L17.1268 63.7977ZM17.1698 48.7207H4.77723C3.17755 48.7207 3.20854 48.7206 3.16255 50.3123C3.14555 50.9122 3.30052 51.0562 3.9034 51.0542C12.3817 51.0316 20.86 51.0266 29.3383 51.0392C31.017 51.0392 30.991 51.0392 31.024 49.3745C31.035 48.8326 30.898 48.7027 30.3561 48.7067C25.965 48.7327 21.5689 48.7217 17.1748 48.7217L17.1698 48.7207ZM17.0588 46.4001H25.9C27.5377 46.4001 27.5107 46.4001 27.5487 44.7714C27.5617 44.2046 27.4097 44.0656 26.8488 44.0716C20.6891 44.0936 14.5293 44.0855 8.37051 44.0855C6.65185 44.0855 6.67086 44.0856 6.64986 45.7853C6.64286 46.2942 6.77183 46.4202 7.28073 46.4152C10.5391 46.3892 13.8004 46.4011 17.0608 46.4011L17.0588 46.4001Z" fill="#020202"/>
<path id="Path 3073_2" d="M29.1543 13.2857L25.5481 15.5422C24.5483 16.1681 23.5425 16.791 22.5427 17.4199C21.6988 17.9508 21.5659 18.3617 21.9428 19.3005C22.9426 21.8053 23.9424 24.3088 24.9422 26.811C25.002 26.9029 25.0413 27.0068 25.0573 27.1153C25.0734 27.2239 25.0658 27.3345 25.0352 27.4399C23.9724 26.85 22.9356 26.2752 21.8948 25.6973C20.5891 24.9714 19.2763 24.2575 17.9846 23.5077C17.7234 23.3357 17.4175 23.244 17.1047 23.244C16.792 23.244 16.4861 23.3357 16.2249 23.5077C14.0704 24.7374 11.8948 25.9342 9.72624 27.136C9.52628 27.2479 9.3503 27.4479 9.02637 27.3949C10.0928 24.7182 11.1526 22.052 12.2057 19.3965C12.6396 18.3048 12.5377 17.9748 11.5599 17.3619C9.43928 16.0312 7.31571 14.7044 5.06116 13.2917C6.56086 12.9538 7.91959 12.6458 9.28132 12.3389C10.3391 12.1009 11.3939 11.839 12.4587 11.6391C12.7194 11.5953 12.9647 11.4859 13.1715 11.3214C13.3784 11.1568 13.5401 10.9424 13.6414 10.6982C14.7602 8.43167 15.9 6.17516 17.0318 3.91661C17.3137 3.93761 17.3107 4.17953 17.3867 4.3295C18.4505 6.43607 19.5143 8.54364 20.5541 10.6622C20.6607 10.9163 20.8293 11.1396 21.0445 11.3116C21.2597 11.4837 21.5145 11.5989 21.7858 11.647C24.1853 12.1569 26.5808 12.7098 29.1543 13.2857Z" fill="#FCFCFC"/>
<path id="Path 3074_2" d="M17.0308 61.482C13.4075 61.482 9.78424 61.4701 6.16197 61.4951C5.63107 61.4951 5.48009 61.3861 5.48809 60.8332C5.52408 58.5387 5.51709 56.2432 5.48809 53.9486C5.48309 53.4817 5.59706 53.3486 6.07696 53.3486C13.4202 53.3646 20.763 53.3646 28.1056 53.3486C28.5685 53.3486 28.7054 53.4487 28.7054 53.9346C28.6781 56.2535 28.6781 58.5723 28.7054 60.8912C28.7054 61.3571 28.5965 61.4911 28.1166 61.4911C24.4213 61.4691 20.7221 61.482 17.0308 61.482Z" fill="#22438A"/>
<path id="Path 3075_2" d="M17.1297 63.7987C21.5498 63.7987 25.971 63.8066 30.3911 63.7866C30.891 63.7866 31.0589 63.8866 31.0279 64.4105C30.9789 65.2293 31.002 66.0531 31.022 66.874C31.029 67.1869 30.942 67.3279 30.622 67.2789C30.5498 67.2736 30.4773 67.2736 30.4051 67.2789C21.5402 67.2789 12.6753 67.2829 3.81039 67.2909C3.31049 67.2909 3.14054 67.1909 3.17453 66.667C3.22226 65.9196 3.22226 65.1699 3.17453 64.4224C3.14353 63.9175 3.28451 63.7847 3.7994 63.7877C8.24051 63.8077 12.6826 63.7987 17.1297 63.7987Z" fill="#22438A"/>
</g>
</g>
</g>
<defs>
<clipPath id="clip0_18_177">
<rect width="39.98" height="73.3393" fill="white" transform="translate(0.859985 0.0103378)"/>
</clipPath>
</defs>
</svg>
