<svg width="51" height="55" viewBox="0 0 51 55" fill="none" xmlns="http://www.w3.org/2000/svg">
<g id="2022-12_Increment_&#38;_Open.svg" clip-path="url(#clip0_18_138)">
<g id="Increment_&#38;_Open">
<g id="Group 7481">
<path id="Path 3066" d="M28.63 33.7881C28.63 27.8476 28.63 21.9072 28.63 15.9667C28.5903 15.5981 28.6335 15.2254 28.7565 14.8757C28.8794 14.5261 29.079 14.2083 29.3405 13.9457C29.6021 13.683 29.919 13.4822 30.2682 13.3579C30.6174 13.2335 30.99 13.1888 31.3586 13.227C32.8824 13.227 34.4062 13.227 35.93 13.227C36.2692 13.2107 36.6081 13.2651 36.9251 13.3868C37.2422 13.5085 37.5304 13.6949 37.7716 13.934C38.0127 14.1731 38.2014 14.4599 38.3257 14.7759C38.45 15.0919 38.5072 15.4303 38.4936 15.7697C38.4976 27.768 38.4976 39.769 38.4936 51.7726C38.5093 52.1119 38.4543 52.4508 38.3319 52.7676C38.2096 53.0845 38.0227 53.3724 37.7831 53.6131C37.5435 53.8539 37.2565 54.0421 36.9402 54.1659C36.6239 54.2897 36.2853 54.3464 35.946 54.3323C34.3542 54.3403 32.7621 54.3403 31.1697 54.3323C30.8304 54.3447 30.4922 54.2866 30.1766 54.1615C29.8609 54.0364 29.5747 53.8471 29.3361 53.6057C29.0974 53.3642 28.9115 53.0757 28.7901 52.7587C28.6688 52.4416 28.6146 52.1027 28.631 51.7636C28.627 45.7711 28.6267 39.7793 28.63 33.7881Z" fill="#F2F2F2" stroke="#F2F2F2" stroke-width="0.99986"/>
<path id="Path 3067" d="M15.4758 42.001C15.4758 45.2006 15.4758 48.4001 15.4758 51.5997C15.5146 51.9684 15.4704 52.341 15.3465 52.6904C15.2226 53.0398 15.0222 53.3571 14.7598 53.619C14.4974 53.8809 14.1798 54.0808 13.8302 54.204C13.4805 54.3273 13.1078 54.3708 12.7392 54.3313C11.2334 54.3313 9.7266 54.3313 8.22081 54.3313C7.87341 54.3528 7.52539 54.3004 7.19975 54.1775C6.8741 54.0546 6.57825 53.864 6.3317 53.6183C6.08516 53.3726 5.89353 53.0774 5.7695 52.7522C5.64547 52.427 5.59184 52.0791 5.61217 51.7316C5.61217 45.2452 5.61217 38.7584 5.61217 32.2714C5.5917 31.9239 5.64519 31.5761 5.7691 31.2509C5.89301 30.9257 6.08453 30.6305 6.331 30.3848C6.57747 30.1391 6.87329 29.9484 7.19889 29.8255C7.52449 29.7026 7.87245 29.6502 8.21981 29.6717C9.77759 29.6677 11.335 29.6677 12.8922 29.6717C13.2355 29.6532 13.579 29.7071 13.9002 29.8298C14.2215 29.9525 14.5133 30.1414 14.7569 30.3841C15.0005 30.6268 15.1904 30.9181 15.3142 31.2389C15.438 31.5597 15.4931 31.9029 15.4758 32.2464C15.4798 35.4973 15.4798 38.7488 15.4758 42.001Z" fill="#F2F2F2" stroke="#F2F2F2" stroke-width="0.99986"/>
<path id="Path 3068" d="M50.006 29.7207C50.006 36.9477 49.973 44.1757 50.029 51.4017C50.0683 51.8014 50.0179 52.2048 49.8815 52.5825C49.7451 52.9603 49.5262 53.3028 49.2406 53.5852C48.955 53.8676 48.6101 54.0827 48.2309 54.2149C47.8516 54.3471 47.4477 54.393 47.0484 54.3493C45.6146 54.2663 44.1719 54.3373 42.7341 54.3313C42.3906 54.3493 42.0471 54.2953 41.7258 54.1727C41.4044 54.05 41.1123 53.8615 40.8682 53.6192C40.6241 53.3769 40.4334 53.0862 40.3084 52.7657C40.1834 52.4453 40.1269 52.1022 40.1424 51.7586C40.1424 37.0274 40.1424 22.2991 40.1424 7.57381C40.127 7.23011 40.1837 6.88701 40.3089 6.56657C40.4342 6.24614 40.6252 5.95549 40.8697 5.71339C41.1141 5.47129 41.4066 5.28313 41.7282 5.16098C42.0498 5.03882 42.3935 4.98541 42.737 5.0042C44.2268 4.9992 45.7166 5.0042 47.2074 5.0042C47.5845 4.95702 47.9674 4.99623 48.3271 5.11887C48.6868 5.2415 49.0138 5.44434 49.2836 5.71205C49.5533 5.97975 49.7586 6.3053 49.8839 6.66406C50.0093 7.02282 50.0514 7.40537 50.007 7.7828C50.0064 15.0958 50.006 22.4084 50.006 29.7207ZM41.7842 29.6747C41.7842 36.9857 41.7842 44.2963 41.7842 51.6066C41.7842 52.4125 42.0571 52.6875 42.857 52.6885C44.3295 52.6885 45.802 52.6885 47.2744 52.6885C48.0833 52.6885 48.3613 52.4165 48.3613 51.6196C48.3613 36.981 48.3613 22.3424 48.3613 7.7038C48.3613 6.93191 48.0803 6.64996 47.3134 6.64896C45.8749 6.64896 44.4368 6.64896 42.999 6.64896C42.0122 6.64896 41.7842 6.87294 41.7842 7.8488C41.7842 15.1231 41.7842 22.3984 41.7842 29.6747Z" fill="#F2F2F2" stroke="#F2F2F2" stroke-width="0.99986"/>
<g id="Union 12">
<path d="M19.7686 54.3323C19.4168 54.3578 19.0634 54.3079 18.7326 54.1856C18.4018 54.0633 18.1015 53.8716 17.8509 53.6234C17.6003 53.3753 17.4052 53.0764 17.2797 52.7468C17.1541 52.4173 17.1004 52.0648 17.1225 51.7128C17.1225 42.4981 17.1225 33.2844 17.1225 24.0716C17.0997 23.7195 17.1526 23.3664 17.2777 23.0364C17.4028 22.7064 17.5975 22.4072 17.8479 22.1586C18.0984 21.91 18.3997 21.718 18.7306 21.5954C19.0616 21.4729 19.4146 21.4226 19.7666 21.448C21.2891 21.448 22.8125 21.448 24.3363 21.448C24.6928 21.4218 25.0502 21.473 25.385 21.5984C25.7198 21.7237 26.0238 21.9201 26.2755 22.174C26.5271 22.4278 26.7203 22.7333 26.8428 23.0691C26.9652 23.405 27.0136 23.7632 26.9844 24.1195C26.9844 28.7089 26.9844 33.2985 26.9844 37.8886C26.9844 42.4619 26.9844 47.0343 26.9844 51.6056C27.0213 51.9745 26.9758 52.3469 26.8506 52.6958C26.7254 53.0447 26.5238 53.3612 26.2608 53.6224C25.9978 53.8836 25.68 54.0831 25.3303 54.2059C24.9805 54.3286 24.6072 54.3718 24.2386 54.3323H22.0046H19.7686ZM19.9268 23.0928C19.0119 23.0928 18.7648 23.3336 18.7648 24.2354C18.7648 23.3356 19.0119 23.0928 19.9268 23.0928Z" fill="#F2F2F2"/>
<path d="M24.2943 23.0928C25.0602 23.0928 25.3401 23.3757 25.3401 24.1456C25.3401 28.7256 25.3401 33.305 25.3401 37.8837M19.7686 54.3323C19.4168 54.3578 19.0634 54.3079 18.7326 54.1856C18.4018 54.0633 18.1015 53.8716 17.8509 53.6234C17.6003 53.3753 17.4052 53.0764 17.2797 52.7468C17.1541 52.4173 17.1004 52.0648 17.1225 51.7128C17.1225 42.4981 17.1225 33.2844 17.1225 24.0716C17.0997 23.7195 17.1526 23.3664 17.2777 23.0364C17.4028 22.7064 17.5975 22.4072 17.8479 22.1586C18.0984 21.91 18.3997 21.718 18.7306 21.5954C19.0616 21.4729 19.4146 21.4226 19.7666 21.448C21.2891 21.448 22.8125 21.448 24.3363 21.448C24.6928 21.4218 25.0502 21.473 25.385 21.5984C25.7198 21.7237 26.0238 21.9201 26.2755 22.174C26.5271 22.4278 26.7203 22.7333 26.8428 23.0691C26.9652 23.405 27.0136 23.7632 26.9844 24.1195C26.9844 28.7089 26.9844 33.2985 26.9844 37.8886C26.9844 42.4619 26.9844 47.0343 26.9844 51.6056C27.0213 51.9745 26.9758 52.3469 26.8506 52.6958C26.7254 53.0447 26.5238 53.3612 26.2608 53.6224C25.9978 53.8836 25.68 54.0831 25.3303 54.2059C24.9805 54.3286 24.6072 54.3718 24.2386 54.3323H22.0046H19.7686ZM19.9268 23.0928C19.0119 23.0928 18.7648 23.3336 18.7648 24.2354C18.7648 23.3356 19.0119 23.0928 19.9268 23.0928Z" stroke="#F2F2F2" stroke-width="0.99986" stroke-miterlimit="10"/>
</g>
<path id="Path 3070" d="M41.7841 29.6757C41.7841 22.3994 41.7841 15.1228 41.7841 7.84577C41.7841 6.87291 42.011 6.64596 42.9989 6.64596C44.4373 6.64596 45.8755 6.64596 47.3133 6.64596C48.0802 6.64596 48.3611 6.92891 48.3611 7.7008C48.3611 22.3394 48.3611 36.978 48.3611 51.6166C48.3611 52.4165 48.0842 52.6845 47.2743 52.6855C45.8018 52.6855 44.3294 52.6855 42.8569 52.6855C42.057 52.6855 41.7841 52.4105 41.7841 51.6036C41.7841 44.2953 41.7841 36.986 41.7841 29.6757Z" fill="#F2F2F2" stroke="#F2F2F2" stroke-width="0.99986"/>
</g>
<g id="Group 7480">
<path id="Path 3066_2" d="M23.6307 28.7888C23.6307 22.8483 23.6307 16.9079 23.6307 10.9674C23.5911 10.5988 23.6343 10.2261 23.7572 9.87643C23.8801 9.52675 24.0797 9.20897 24.3412 8.94635C24.6028 8.68373 24.9198 8.48291 25.2689 8.35857C25.6181 8.23424 25.9907 8.18954 26.3594 8.22773C27.8832 8.22773 29.4069 8.22773 30.9307 8.22773C31.2699 8.21137 31.6088 8.26579 31.9259 8.3875C32.2429 8.50921 32.5312 8.69555 32.7723 8.9347C33.0134 9.17384 33.2021 9.46056 33.3264 9.77659C33.4508 10.0926 33.5079 10.431 33.4944 10.7704C33.4984 22.7687 33.4984 34.7697 33.4944 46.7733C33.51 47.1126 33.455 47.4515 33.3327 47.7683C33.2103 48.0852 33.0235 48.3731 32.7839 48.6138C32.5443 48.8546 32.2572 49.0428 31.9409 49.1666C31.6246 49.2904 31.2861 49.3471 30.9467 49.333C29.3549 49.341 27.7628 49.341 26.1704 49.333C25.8311 49.3454 25.4929 49.2873 25.1773 49.1622C24.8617 49.0371 24.5755 48.8478 24.3368 48.6063C24.0981 48.3649 23.9122 48.0764 23.7909 47.7594C23.6695 47.4423 23.6153 47.1034 23.6318 46.7643C23.6278 40.7718 23.6274 34.78 23.6307 28.7888Z" fill="black"/>
<path id="Path 3067_2" d="M10.4765 37.0017C10.4765 40.2013 10.4765 43.4008 10.4765 46.6004C10.5153 46.9691 10.4711 47.3417 10.3473 47.6911C10.2234 48.0405 10.0229 48.3578 9.76054 48.6197C9.49817 48.8816 9.18052 49.0815 8.8309 49.2047C8.48127 49.328 8.10853 49.3715 7.73992 49.332C6.23414 49.332 4.72733 49.332 3.22155 49.332C2.87415 49.3535 2.52612 49.3011 2.20048 49.1782C1.87483 49.0553 1.57898 48.8647 1.33244 48.619C1.08589 48.3733 0.894259 48.0781 0.770229 47.7529C0.646199 47.4277 0.592577 47.0798 0.612902 46.7323C0.612902 40.2459 0.612902 33.7591 0.612902 27.2721C0.592429 26.9246 0.645918 26.5768 0.769832 26.2516C0.893746 25.9264 1.08527 25.6312 1.33173 25.3855C1.5782 25.1398 1.87403 24.9491 2.19962 24.8262C2.52522 24.7033 2.87318 24.6509 3.22054 24.6724C4.77832 24.6684 6.33577 24.6684 7.89289 24.6724C8.23627 24.6539 8.57971 24.7078 8.90096 24.8305C9.2222 24.9532 9.51406 25.1421 9.75765 25.3848C10.0012 25.6275 10.1911 25.9188 10.3149 26.2396C10.4388 26.5604 10.4938 26.9036 10.4765 27.2471C10.4805 30.498 10.4805 33.7495 10.4765 37.0017Z" fill="black"/>
<path id="Path 3068_2" d="M45.0068 24.7214C45.0068 31.9484 44.9738 39.1764 45.0298 46.4024C45.069 46.8021 45.0186 47.2055 44.8823 47.5832C44.7459 47.961 44.5269 48.3035 44.2413 48.5859C43.9558 48.8683 43.6108 49.0834 43.2316 49.2156C42.8524 49.3478 42.4484 49.3937 42.0492 49.35C40.6154 49.267 39.1726 49.338 37.7348 49.332C37.3913 49.35 37.0479 49.296 36.7265 49.1734C36.4052 49.0508 36.113 48.8622 35.8689 48.6199C35.6248 48.3776 35.4341 48.0869 35.3092 47.7664C35.1842 47.446 35.1276 47.1029 35.1431 46.7593C35.1431 32.0281 35.1431 17.2998 35.1431 2.57452C35.1277 2.23082 35.1844 1.88771 35.3097 1.56727C35.4349 1.24684 35.6259 0.956188 35.8704 0.71409C36.1149 0.471992 36.4073 0.28383 36.729 0.161677C37.0506 0.0395243 37.3942 -0.0138863 37.7378 0.00489984C39.2276 -9.9455e-05 40.7174 0.00489984 42.2082 0.00489984C42.5852 -0.0422793 42.9681 -0.00306505 43.3278 0.119569C43.6875 0.242203 44.0146 0.445044 44.2843 0.712747C44.554 0.980451 44.7593 1.306 44.8847 1.66476C45.01 2.02352 45.0521 2.40608 45.0078 2.7835C45.0071 10.0965 45.0068 17.4091 45.0068 24.7214ZM36.7849 24.6754C36.7849 31.9864 36.7849 39.297 36.7849 46.6073C36.7849 47.4132 37.0579 47.6882 37.8578 47.6892C39.3302 47.6892 40.8027 47.6892 42.2752 47.6892C43.084 47.6892 43.362 47.4172 43.362 46.6203C43.362 31.9817 43.362 17.3431 43.362 2.7045C43.362 1.93261 43.081 1.65066 42.3141 1.64966C40.8757 1.64966 39.4376 1.64966 37.9998 1.64966C37.0129 1.64966 36.7849 1.87364 36.7849 2.8495C36.7849 10.1238 36.7849 17.3991 36.7849 24.6754Z" fill="#22438A"/>
<path id="Union 12_2" d="M14.7693 49.333C14.4176 49.3585 14.0641 49.3086 13.7333 49.1863C13.4025 49.064 13.1022 48.8723 12.8516 48.6241C12.601 48.376 12.4059 48.0771 12.2804 47.7475C12.1549 47.418 12.1012 47.0655 12.1232 46.7135C12.1232 37.4988 12.1232 28.2851 12.1232 19.0724C12.1004 18.7202 12.1534 18.3671 12.2784 18.0371C12.4035 17.7071 12.5982 17.4079 12.8487 17.1593C13.0992 16.9107 13.4004 16.7187 13.7314 16.5961C14.0623 16.4736 14.4154 16.4233 14.7674 16.4487C16.2898 16.4487 17.8132 16.4487 19.337 16.4487C19.6935 16.4225 20.0509 16.4737 20.3857 16.5991C20.7205 16.7244 21.0245 16.9208 21.2762 17.1747C21.5279 17.4285 21.7211 17.734 21.8435 18.0698C21.9659 18.4057 22.0143 18.7639 21.9851 19.1202C21.9851 23.7096 21.9851 28.2992 21.9851 32.8893C21.9851 37.4626 21.9851 42.035 21.9851 46.6063C22.022 46.9752 21.9765 47.3476 21.8513 47.6965C21.7261 48.0454 21.5246 48.3619 21.2616 48.6231C20.9985 48.8843 20.6808 49.0838 20.331 49.2066C19.9813 49.3293 19.608 49.3725 19.2394 49.333H17.0053H14.7693ZM14.9275 18.0935C14.0126 18.0935 13.7655 18.3343 13.7655 19.2361C13.7655 18.3363 14.0126 18.0935 14.9275 18.0935Z" fill="#22438A"/>
<path id="Path 3070_2" d="M36.7848 24.6764C36.7848 17.4001 36.7848 10.1235 36.7848 2.84647C36.7848 1.87361 37.0118 1.64666 37.9996 1.64666C39.4381 1.64666 40.8762 1.64666 42.314 1.64666C43.0809 1.64666 43.3619 1.92961 43.3619 2.7015C43.3619 17.3401 43.3619 31.9787 43.3619 46.6173C43.3619 47.4172 43.0849 47.6852 42.275 47.6862C40.8026 47.6862 39.3301 47.6862 37.8576 47.6862C37.0577 47.6862 36.7848 47.4112 36.7848 46.6043C36.7848 39.296 36.7848 31.9867 36.7848 24.6764Z" fill="#FEFEFE"/>
</g>
</g>
</g>
<defs>
<clipPath id="clip0_18_138">
<rect width="49.92" height="54.8543" fill="white" transform="translate(0.609985 0.00284576)"/>
</clipPath>
</defs>
</svg>
