<svg width="370" height="252" viewBox="0 0 370 252" fill="none" xmlns="http://www.w3.org/2000/svg" xmlns:xlink="http://www.w3.org/1999/xlink">
<g opacity="0.39">
<line x1="243.44" y1="1" x2="243.44" y2="11" stroke="#000000" stroke-width="1" stroke-miterlimit="3.999327"/>
<line x1="249.44" y1="5" x2="239.44" y2="5" stroke="#000000" stroke-width="1" stroke-miterlimit="3.999327"/>
<line x1="243.44" y1="25" x2="243.44" y2="35" stroke="#000000" stroke-width="1" stroke-miterlimit="3.999327"/>
<line x1="249.44" y1="29" x2="239.44" y2="29" stroke="#000000" stroke-width="1" stroke-miterlimit="3.999327"/>
<line x1="243.44" y1="49" x2="243.44" y2="59" stroke="#000000" stroke-width="1" stroke-miterlimit="3.999327"/>
<line x1="249.44" y1="53" x2="239.44" y2="53" stroke="#000000" stroke-width="1" stroke-miterlimit="3.999327"/>
<line x1="243.44" y1="73" x2="243.44" y2="83" stroke="#000000" stroke-width="1" stroke-miterlimit="3.999327"/>
<line x1="249.44" y1="77" x2="239.44" y2="77" stroke="#000000" stroke-width="1" stroke-miterlimit="3.999327"/>
<line x1="243.44" y1="97" x2="243.44" y2="107" stroke="#000000" stroke-width="1" stroke-miterlimit="3.999327"/>
<line x1="249.44" y1="101" x2="239.44" y2="101" stroke="#000000" stroke-width="1" stroke-miterlimit="3.999327"/>
<line x1="243.44" y1="121" x2="243.44" y2="131" stroke="#000000" stroke-width="1" stroke-miterlimit="3.999327"/>
<line x1="249.44" y1="125" x2="239.44" y2="125" stroke="#000000" stroke-width="1" stroke-miterlimit="3.999327"/>
<line x1="243.44" y1="145" x2="243.44" y2="155" stroke="#000000" stroke-width="1" stroke-miterlimit="3.999327"/>
<line x1="249.44" y1="149" x2="239.44" y2="149" stroke="#000000" stroke-width="1" stroke-miterlimit="3.999327"/>
<line x1="243.44" y1="169" x2="243.44" y2="179" stroke="#000000" stroke-width="1" stroke-miterlimit="3.999327"/>
<line x1="249.44" y1="173" x2="239.44" y2="173" stroke="#000000" stroke-width="1" stroke-miterlimit="3.999327"/>
<line x1="243.44" y1="193" x2="243.44" y2="203" stroke="#000000" stroke-width="1" stroke-miterlimit="3.999327"/>
<line x1="249.44" y1="197" x2="239.44" y2="197" stroke="#000000" stroke-width="1" stroke-miterlimit="3.999327"/>
<line x1="243.44" y1="217" x2="243.44" y2="227" stroke="#000000" stroke-width="1" stroke-miterlimit="3.999327"/>
<line x1="249.44" y1="221" x2="239.44" y2="221" stroke="#000000" stroke-width="1" stroke-miterlimit="3.999327"/>
<line x1="243.44" y1="241" x2="243.44" y2="251" stroke="#000000" stroke-width="1" stroke-miterlimit="3.999327"/>
<line x1="249.44" y1="245" x2="239.44" y2="245" stroke="#000000" stroke-width="1" stroke-miterlimit="3.999327"/>
<line x1="219.44" y1="49" x2="219.44" y2="59" stroke="#000000" stroke-width="1" stroke-miterlimit="3.999327"/>
<line x1="225.44" y1="53" x2="215.44" y2="53" stroke="#000000" stroke-width="1" stroke-miterlimit="3.999327"/>
<line x1="219.44" y1="73" x2="219.44" y2="83" stroke="#000000" stroke-width="1" stroke-miterlimit="3.999327"/>
<line x1="225.44" y1="77" x2="215.44" y2="77" stroke="#000000" stroke-width="1" stroke-miterlimit="3.999327"/>
<line x1="219.44" y1="97" x2="219.44" y2="107" stroke="#000000" stroke-width="1" stroke-miterlimit="3.999327"/>
<line x1="225.44" y1="101" x2="215.44" y2="101" stroke="#000000" stroke-width="1" stroke-miterlimit="3.999327"/>
<line x1="219.44" y1="121" x2="219.44" y2="131" stroke="#000000" stroke-width="1" stroke-miterlimit="3.999327"/>
<line x1="225.44" y1="125" x2="215.44" y2="125" stroke="#000000" stroke-width="1" stroke-miterlimit="3.999327"/>
<line x1="195.44" y1="49" x2="195.44" y2="59" stroke="#000000" stroke-width="1" stroke-miterlimit="3.999327"/>
<line x1="201.44" y1="53" x2="191.44" y2="53" stroke="#000000" stroke-width="1" stroke-miterlimit="3.999327"/>
<line x1="195.44" y1="73" x2="195.44" y2="83" stroke="#000000" stroke-width="1" stroke-miterlimit="3.999327"/>
<line x1="201.44" y1="77" x2="191.44" y2="77" stroke="#000000" stroke-width="1" stroke-miterlimit="3.999327"/>
<line x1="195.44" y1="97" x2="195.44" y2="107" stroke="#000000" stroke-width="1" stroke-miterlimit="3.999327"/>
<line x1="201.44" y1="101" x2="191.44" y2="101" stroke="#000000" stroke-width="1" stroke-miterlimit="3.999327"/>
<line x1="195.44" y1="121" x2="195.44" y2="131" stroke="#000000" stroke-width="1" stroke-miterlimit="3.999327"/>
<line x1="201.44" y1="125" x2="191.44" y2="125" stroke="#000000" stroke-width="1" stroke-miterlimit="3.999327"/>
<line x1="195.44" y1="145" x2="195.44" y2="155" stroke="#000000" stroke-width="1" stroke-miterlimit="3.999327"/>
<line x1="201.44" y1="149" x2="191.44" y2="149" stroke="#000000" stroke-width="1" stroke-miterlimit="3.999327"/>
<line x1="195.44" y1="169" x2="195.44" y2="179" stroke="#000000" stroke-width="1" stroke-miterlimit="3.999327"/>
<line x1="201.44" y1="173" x2="191.44" y2="173" stroke="#000000" stroke-width="1" stroke-miterlimit="3.999327"/>
<line x1="195.44" y1="193" x2="195.44" y2="203" stroke="#000000" stroke-width="1" stroke-miterlimit="3.999327"/>
<line x1="201.44" y1="197" x2="191.44" y2="197" stroke="#000000" stroke-width="1" stroke-miterlimit="3.999327"/>
<line x1="195.44" y1="217" x2="195.44" y2="227" stroke="#000000" stroke-width="1" stroke-miterlimit="3.999327"/>
<line x1="201.44" y1="221" x2="191.44" y2="221" stroke="#000000" stroke-width="1" stroke-miterlimit="3.999327"/>
<line x1="171.44" y1="49" x2="171.44" y2="59" stroke="#000000" stroke-width="1" stroke-miterlimit="3.999327"/>
<line x1="177.44" y1="53" x2="167.44" y2="53" stroke="#000000" stroke-width="1" stroke-miterlimit="3.999327"/>
<line x1="171.44" y1="73" x2="171.44" y2="83" stroke="#000000" stroke-width="1" stroke-miterlimit="3.999327"/>
<line x1="177.44" y1="77" x2="167.44" y2="77" stroke="#000000" stroke-width="1" stroke-miterlimit="3.999327"/>
<line x1="171.44" y1="97" x2="171.44" y2="107" stroke="#000000" stroke-width="1" stroke-miterlimit="3.999327"/>
<line x1="177.44" y1="101" x2="167.44" y2="101" stroke="#000000" stroke-width="1" stroke-miterlimit="3.999327"/>
<line x1="171.44" y1="121" x2="171.44" y2="131" stroke="#000000" stroke-width="1" stroke-miterlimit="3.999327"/>
<line x1="177.44" y1="125" x2="167.44" y2="125" stroke="#000000" stroke-width="1" stroke-miterlimit="3.999327"/>
<line x1="171.44" y1="145" x2="171.44" y2="155" stroke="#000000" stroke-width="1" stroke-miterlimit="3.999327"/>
<line x1="177.44" y1="149" x2="167.44" y2="149" stroke="#000000" stroke-width="1" stroke-miterlimit="3.999327"/>
<line x1="171.44" y1="169" x2="171.44" y2="179" stroke="#000000" stroke-width="1" stroke-miterlimit="3.999327"/>
<line x1="177.44" y1="173" x2="167.44" y2="173" stroke="#000000" stroke-width="1" stroke-miterlimit="3.999327"/>
<line x1="171.44" y1="193" x2="171.44" y2="203" stroke="#000000" stroke-width="1" stroke-miterlimit="3.999327"/>
<line x1="177.44" y1="197" x2="167.44" y2="197" stroke="#000000" stroke-width="1" stroke-miterlimit="3.999327"/>
<line x1="171.44" y1="217" x2="171.44" y2="227" stroke="#000000" stroke-width="1" stroke-miterlimit="3.999327"/>
<line x1="177.44" y1="221" x2="167.44" y2="221" stroke="#000000" stroke-width="1" stroke-miterlimit="3.999327"/>
<line x1="75.44" y1="49" x2="75.44" y2="59" stroke="#000000" stroke-width="1" stroke-miterlimit="3.999327"/>
<line x1="81.44" y1="53" x2="71.44" y2="53" stroke="#000000" stroke-width="1" stroke-miterlimit="3.999327"/>
<line x1="147.44" y1="73" x2="147.44" y2="83" stroke="#000000" stroke-width="1" stroke-miterlimit="3.999327"/>
<line x1="153.44" y1="77" x2="143.44" y2="77" stroke="#000000" stroke-width="1" stroke-miterlimit="3.999327"/>
<line x1="147.44" y1="97" x2="147.44" y2="107" stroke="#000000" stroke-width="1" stroke-miterlimit="3.999327"/>
<line x1="153.44" y1="101" x2="143.44" y2="101" stroke="#000000" stroke-width="1" stroke-miterlimit="3.999327"/>
<line x1="147.44" y1="121" x2="147.44" y2="131" stroke="#000000" stroke-width="1" stroke-miterlimit="3.999327"/>
<line x1="153.44" y1="125" x2="143.44" y2="125" stroke="#000000" stroke-width="1" stroke-miterlimit="3.999327"/>
<line x1="147.44" y1="145" x2="147.44" y2="155" stroke="#000000" stroke-width="1" stroke-miterlimit="3.999327"/>
<line x1="153.44" y1="149" x2="143.44" y2="149" stroke="#000000" stroke-width="1" stroke-miterlimit="3.999327"/>
<line x1="147.44" y1="169" x2="147.44" y2="179" stroke="#000000" stroke-width="1" stroke-miterlimit="3.999327"/>
<line x1="153.44" y1="173" x2="143.44" y2="173" stroke="#000000" stroke-width="1" stroke-miterlimit="3.999327"/>
<line x1="147.44" y1="193" x2="147.44" y2="203" stroke="#000000" stroke-width="1" stroke-miterlimit="3.999327"/>
<line x1="153.44" y1="197" x2="143.44" y2="197" stroke="#000000" stroke-width="1" stroke-miterlimit="3.999327"/>
<line x1="147.44" y1="217" x2="147.44" y2="227" stroke="#000000" stroke-width="1" stroke-miterlimit="3.999327"/>
<line x1="153.44" y1="221" x2="143.44" y2="221" stroke="#000000" stroke-width="1" stroke-miterlimit="3.999327"/>
<line x1="123.44" y1="73" x2="123.44" y2="83" stroke="#000000" stroke-width="1" stroke-miterlimit="3.999327"/>
<line x1="129.44" y1="77" x2="119.44" y2="77" stroke="#000000" stroke-width="1" stroke-miterlimit="3.999327"/>
<line x1="123.44" y1="97" x2="123.44" y2="107" stroke="#000000" stroke-width="1" stroke-miterlimit="3.999327"/>
<line x1="129.44" y1="101" x2="119.44" y2="101" stroke="#000000" stroke-width="1" stroke-miterlimit="3.999327"/>
<line x1="123.44" y1="121" x2="123.44" y2="131" stroke="#000000" stroke-width="1" stroke-miterlimit="3.999327"/>
<line x1="129.44" y1="125" x2="119.44" y2="125" stroke="#000000" stroke-width="1" stroke-miterlimit="3.999327"/>
<line x1="123.44" y1="145" x2="123.44" y2="155" stroke="#000000" stroke-width="1" stroke-miterlimit="3.999327"/>
<line x1="129.44" y1="149" x2="119.44" y2="149" stroke="#000000" stroke-width="1" stroke-miterlimit="3.999327"/>
<line x1="123.44" y1="169" x2="123.44" y2="179" stroke="#000000" stroke-width="1" stroke-miterlimit="3.999327"/>
<line x1="129.44" y1="173" x2="119.44" y2="173" stroke="#000000" stroke-width="1" stroke-miterlimit="3.999327"/>
<line x1="123.44" y1="193" x2="123.44" y2="203" stroke="#000000" stroke-width="1" stroke-miterlimit="3.999327"/>
<line x1="129.44" y1="197" x2="119.44" y2="197" stroke="#000000" stroke-width="1" stroke-miterlimit="3.999327"/>
<line x1="123.44" y1="217" x2="123.44" y2="227" stroke="#000000" stroke-width="1" stroke-miterlimit="3.999327"/>
<line x1="129.44" y1="221" x2="119.44" y2="221" stroke="#000000" stroke-width="1" stroke-miterlimit="3.999327"/>
<line x1="99.44" y1="73" x2="99.44" y2="83" stroke="#000000" stroke-width="1" stroke-miterlimit="3.999327"/>
<line x1="105.44" y1="77" x2="95.44" y2="77" stroke="#000000" stroke-width="1" stroke-miterlimit="3.999327"/>
<line x1="99.44" y1="97" x2="99.44" y2="107" stroke="#000000" stroke-width="1" stroke-miterlimit="3.999327"/>
<line x1="105.44" y1="101" x2="95.44" y2="101" stroke="#000000" stroke-width="1" stroke-miterlimit="3.999327"/>
<line x1="99.44" y1="121" x2="99.44" y2="131" stroke="#000000" stroke-width="1" stroke-miterlimit="3.999327"/>
<line x1="105.44" y1="125" x2="95.44" y2="125" stroke="#000000" stroke-width="1" stroke-miterlimit="3.999327"/>
<line x1="99.44" y1="145" x2="99.44" y2="155" stroke="#000000" stroke-width="1" stroke-miterlimit="3.999327"/>
<line x1="105.44" y1="149" x2="95.44" y2="149" stroke="#000000" stroke-width="1" stroke-miterlimit="3.999327"/>
<line x1="99.44" y1="169" x2="99.44" y2="179" stroke="#000000" stroke-width="1" stroke-miterlimit="3.999327"/>
<line x1="105.44" y1="173" x2="95.44" y2="173" stroke="#000000" stroke-width="1" stroke-miterlimit="3.999327"/>
<line x1="99.44" y1="193" x2="99.44" y2="203" stroke="#000000" stroke-width="1" stroke-miterlimit="3.999327"/>
<line x1="105.44" y1="197" x2="95.44" y2="197" stroke="#000000" stroke-width="1" stroke-miterlimit="3.999327"/>
<line x1="99.44" y1="217" x2="99.44" y2="227" stroke="#000000" stroke-width="1" stroke-miterlimit="3.999327"/>
<line x1="105.44" y1="221" x2="95.44" y2="221" stroke="#000000" stroke-width="1" stroke-miterlimit="3.999327"/>
<line x1="75.44" y1="97" x2="75.44" y2="107" stroke="#000000" stroke-width="1" stroke-miterlimit="3.999327"/>
<line x1="81.44" y1="101" x2="71.44" y2="101" stroke="#000000" stroke-width="1" stroke-miterlimit="3.999327"/>
<line x1="75.44" y1="121" x2="75.44" y2="131" stroke="#000000" stroke-width="1" stroke-miterlimit="3.999327"/>
<line x1="81.44" y1="125" x2="71.44" y2="125" stroke="#000000" stroke-width="1" stroke-miterlimit="3.999327"/>
<line x1="75.44" y1="145" x2="75.44" y2="155" stroke="#000000" stroke-width="1" stroke-miterlimit="3.999327"/>
<line x1="81.44" y1="149" x2="71.44" y2="149" stroke="#000000" stroke-width="1" stroke-miterlimit="3.999327"/>
<line x1="75.44" y1="169" x2="75.44" y2="179" stroke="#000000" stroke-width="1" stroke-miterlimit="3.999327"/>
<line x1="81.44" y1="173" x2="71.44" y2="173" stroke="#000000" stroke-width="1" stroke-miterlimit="3.999327"/>
<line x1="27.44" y1="97" x2="27.44" y2="107" stroke="#000000" stroke-width="1" stroke-miterlimit="3.999327"/>
<line x1="33.44" y1="101" x2="23.44" y2="101" stroke="#000000" stroke-width="1" stroke-miterlimit="3.999327"/>
<line x1="27.44" y1="121" x2="27.44" y2="131" stroke="#000000" stroke-width="1" stroke-miterlimit="3.999327"/>
<line x1="33.44" y1="125" x2="23.44" y2="125" stroke="#000000" stroke-width="1" stroke-miterlimit="3.999327"/>
<line x1="27.44" y1="145" x2="27.44" y2="155" stroke="#000000" stroke-width="1" stroke-miterlimit="3.999327"/>
<line x1="33.44" y1="149" x2="23.44" y2="149" stroke="#000000" stroke-width="1" stroke-miterlimit="3.999327"/>
<line x1="219.44" y1="169" x2="219.44" y2="179" stroke="#000000" stroke-width="1" stroke-miterlimit="3.999327"/>
<line x1="225.44" y1="173" x2="215.44" y2="173" stroke="#000000" stroke-width="1" stroke-miterlimit="3.999327"/>
<line x1="219.44" y1="193" x2="219.44" y2="203" stroke="#000000" stroke-width="1" stroke-miterlimit="3.999327"/>
<line x1="225.44" y1="197" x2="215.44" y2="197" stroke="#000000" stroke-width="1" stroke-miterlimit="3.999327"/>
<line x1="291.44" y1="217" x2="291.44" y2="227" stroke="#000000" stroke-width="1" stroke-miterlimit="3.999327"/>
<line x1="297.44" y1="221" x2="287.44" y2="221" stroke="#000000" stroke-width="1" stroke-miterlimit="3.999327"/>
<line x1="51.44" y1="121" x2="51.44" y2="131" stroke="#000000" stroke-width="1" stroke-miterlimit="3.999327"/>
<line x1="57.44" y1="125" x2="47.44" y2="125" stroke="#000000" stroke-width="1" stroke-miterlimit="3.999327"/>
<line x1="51.44" y1="145" x2="51.44" y2="155" stroke="#000000" stroke-width="1" stroke-miterlimit="3.999327"/>
<line x1="57.44" y1="149" x2="47.44" y2="149" stroke="#000000" stroke-width="1" stroke-miterlimit="3.999327"/>
<line x1="51.44" y1="169" x2="51.44" y2="179" stroke="#000000" stroke-width="1" stroke-miterlimit="3.999327"/>
<line x1="57.44" y1="173" x2="47.44" y2="173" stroke="#000000" stroke-width="1" stroke-miterlimit="3.999327"/>
<line x1="3.44" y1="97" x2="3.44" y2="107" stroke="#000000" stroke-width="1" stroke-miterlimit="3.999327"/>
<line x1="9.44" y1="101" x2="-0.56" y2="101" stroke="#000000" stroke-width="1" stroke-miterlimit="3.999327"/>
<line x1="3.44" y1="121" x2="3.44" y2="131" stroke="#000000" stroke-width="1" stroke-miterlimit="3.999327"/>
<line x1="9.44" y1="125" x2="-0.56" y2="125" stroke="#000000" stroke-width="1" stroke-miterlimit="3.999327"/>
<line x1="3.44" y1="145" x2="3.44" y2="155" stroke="#000000" stroke-width="1" stroke-miterlimit="3.999327"/>
<line x1="9.44" y1="149" x2="-0.56" y2="149" stroke="#000000" stroke-width="1" stroke-miterlimit="3.999327"/>
<line x1="291.44" y1="1" x2="291.44" y2="11" stroke="#000000" stroke-width="1" stroke-miterlimit="3.999327"/>
<line x1="297.44" y1="5" x2="287.44" y2="5" stroke="#000000" stroke-width="1" stroke-miterlimit="3.999327"/>
<line x1="291.44" y1="25" x2="291.44" y2="35" stroke="#000000" stroke-width="1" stroke-miterlimit="3.999327"/>
<line x1="297.44" y1="29" x2="287.44" y2="29" stroke="#000000" stroke-width="1" stroke-miterlimit="3.999327"/>
<line x1="291.44" y1="49" x2="291.44" y2="59" stroke="#000000" stroke-width="1" stroke-miterlimit="3.999327"/>
<line x1="297.44" y1="53" x2="287.44" y2="53" stroke="#000000" stroke-width="1" stroke-miterlimit="3.999327"/>
<line x1="291.44" y1="73" x2="291.44" y2="83" stroke="#000000" stroke-width="1" stroke-miterlimit="3.999327"/>
<line x1="297.44" y1="77" x2="287.44" y2="77" stroke="#000000" stroke-width="1" stroke-miterlimit="3.999327"/>
<line x1="291.44" y1="97" x2="291.44" y2="107" stroke="#000000" stroke-width="1" stroke-miterlimit="3.999327"/>
<line x1="297.44" y1="101" x2="287.44" y2="101" stroke="#000000" stroke-width="1" stroke-miterlimit="3.999327"/>
<line x1="291.44" y1="121" x2="291.44" y2="131" stroke="#000000" stroke-width="1" stroke-miterlimit="3.999327"/>
<line x1="297.44" y1="125" x2="287.44" y2="125" stroke="#000000" stroke-width="1" stroke-miterlimit="3.999327"/>
<line x1="291.44" y1="145" x2="291.44" y2="155" stroke="#000000" stroke-width="1" stroke-miterlimit="3.999327"/>
<line x1="297.44" y1="149" x2="287.44" y2="149" stroke="#000000" stroke-width="1" stroke-miterlimit="3.999327"/>
<line x1="291.44" y1="169" x2="291.44" y2="179" stroke="#000000" stroke-width="1" stroke-miterlimit="3.999327"/>
<line x1="297.44" y1="173" x2="287.44" y2="173" stroke="#000000" stroke-width="1" stroke-miterlimit="3.999327"/>
<line x1="267.44" y1="1" x2="267.44" y2="11" stroke="#000000" stroke-width="1" stroke-miterlimit="3.999327"/>
<line x1="273.44" y1="5" x2="263.44" y2="5" stroke="#000000" stroke-width="1" stroke-miterlimit="3.999327"/>
<line x1="267.44" y1="25" x2="267.44" y2="35" stroke="#000000" stroke-width="1" stroke-miterlimit="3.999327"/>
<line x1="273.44" y1="29" x2="263.44" y2="29" stroke="#000000" stroke-width="1" stroke-miterlimit="3.999327"/>
<line x1="267.44" y1="49" x2="267.44" y2="59" stroke="#000000" stroke-width="1" stroke-miterlimit="3.999327"/>
<line x1="273.44" y1="53" x2="263.44" y2="53" stroke="#000000" stroke-width="1" stroke-miterlimit="3.999327"/>
<line x1="267.44" y1="73" x2="267.44" y2="83" stroke="#000000" stroke-width="1" stroke-miterlimit="3.999327"/>
<line x1="273.44" y1="77" x2="263.44" y2="77" stroke="#000000" stroke-width="1" stroke-miterlimit="3.999327"/>
<line x1="267.44" y1="97" x2="267.44" y2="107" stroke="#000000" stroke-width="1" stroke-miterlimit="3.999327"/>
<line x1="273.44" y1="101" x2="263.44" y2="101" stroke="#000000" stroke-width="1" stroke-miterlimit="3.999327"/>
<line x1="267.44" y1="121" x2="267.44" y2="131" stroke="#000000" stroke-width="1" stroke-miterlimit="3.999327"/>
<line x1="273.44" y1="125" x2="263.44" y2="125" stroke="#000000" stroke-width="1" stroke-miterlimit="3.999327"/>
<line x1="267.44" y1="145" x2="267.44" y2="155" stroke="#000000" stroke-width="1" stroke-miterlimit="3.999327"/>
<line x1="273.44" y1="149" x2="263.44" y2="149" stroke="#000000" stroke-width="1" stroke-miterlimit="3.999327"/>
<line x1="267.44" y1="169" x2="267.44" y2="179" stroke="#000000" stroke-width="1" stroke-miterlimit="3.999327"/>
<line x1="273.44" y1="173" x2="263.44" y2="173" stroke="#000000" stroke-width="1" stroke-miterlimit="3.999327"/>
<line x1="267.44" y1="193" x2="267.44" y2="203" stroke="#000000" stroke-width="1" stroke-miterlimit="3.999327"/>
<line x1="273.44" y1="197" x2="263.44" y2="197" stroke="#000000" stroke-width="1" stroke-miterlimit="3.999327"/>
<line x1="267.44" y1="217" x2="267.44" y2="227" stroke="#000000" stroke-width="1" stroke-miterlimit="3.999327"/>
<line x1="273.44" y1="221" x2="263.44" y2="221" stroke="#000000" stroke-width="1" stroke-miterlimit="3.999327"/>
<line x1="267.44" y1="241" x2="267.44" y2="251" stroke="#000000" stroke-width="1" stroke-miterlimit="3.999327"/>
<line x1="273.44" y1="245" x2="263.44" y2="245" stroke="#000000" stroke-width="1" stroke-miterlimit="3.999327"/>
<line x1="315.44" y1="1" x2="315.44" y2="11" stroke="#000000" stroke-width="1" stroke-miterlimit="3.999327"/>
<line x1="321.44" y1="5" x2="311.44" y2="5" stroke="#000000" stroke-width="1" stroke-miterlimit="3.999327"/>
<line x1="315.44" y1="25" x2="315.44" y2="35" stroke="#000000" stroke-width="1" stroke-miterlimit="3.999327"/>
<line x1="321.44" y1="29" x2="311.44" y2="29" stroke="#000000" stroke-width="1" stroke-miterlimit="3.999327"/>
<line x1="315.44" y1="49" x2="315.44" y2="59" stroke="#000000" stroke-width="1" stroke-miterlimit="3.999327"/>
<line x1="321.44" y1="53" x2="311.44" y2="53" stroke="#000000" stroke-width="1" stroke-miterlimit="3.999327"/>
<line x1="315.44" y1="73" x2="315.44" y2="83" stroke="#000000" stroke-width="1" stroke-miterlimit="3.999327"/>
<line x1="321.44" y1="77" x2="311.44" y2="77" stroke="#000000" stroke-width="1" stroke-miterlimit="3.999327"/>
<line x1="339.44" y1="1" x2="339.44" y2="11" stroke="#000000" stroke-width="1" stroke-miterlimit="3.999327"/>
<line x1="345.44" y1="5" x2="335.44" y2="5" stroke="#000000" stroke-width="1" stroke-miterlimit="3.999327"/>
<line x1="339.44" y1="25" x2="339.44" y2="35" stroke="#000000" stroke-width="1" stroke-miterlimit="3.999327"/>
<line x1="345.44" y1="29" x2="335.44" y2="29" stroke="#000000" stroke-width="1" stroke-miterlimit="3.999327"/>
<line x1="339.44" y1="49" x2="339.44" y2="59" stroke="#000000" stroke-width="1" stroke-miterlimit="3.999327"/>
<line x1="345.44" y1="53" x2="335.44" y2="53" stroke="#000000" stroke-width="1" stroke-miterlimit="3.999327"/>
<line x1="339.44" y1="73" x2="339.44" y2="83" stroke="#000000" stroke-width="1" stroke-miterlimit="3.999327"/>
<line x1="345.44" y1="77" x2="335.44" y2="77" stroke="#000000" stroke-width="1" stroke-miterlimit="3.999327"/>
<line x1="339.44" y1="97" x2="339.44" y2="107" stroke="#000000" stroke-width="1" stroke-miterlimit="3.999327"/>
<line x1="345.44" y1="101" x2="335.44" y2="101" stroke="#000000" stroke-width="1" stroke-miterlimit="3.999327"/>
<line x1="339.44" y1="121" x2="339.44" y2="131" stroke="#000000" stroke-width="1" stroke-miterlimit="3.999327"/>
<line x1="345.44" y1="125" x2="335.44" y2="125" stroke="#000000" stroke-width="1" stroke-miterlimit="3.999327"/>
<line x1="339.44" y1="145" x2="339.44" y2="155" stroke="#000000" stroke-width="1" stroke-miterlimit="3.999327"/>
<line x1="345.44" y1="149" x2="335.44" y2="149" stroke="#000000" stroke-width="1" stroke-miterlimit="3.999327"/>
<line x1="339.44" y1="169" x2="339.44" y2="179" stroke="#000000" stroke-width="1" stroke-miterlimit="3.999327"/>
<line x1="345.44" y1="173" x2="335.44" y2="173" stroke="#000000" stroke-width="1" stroke-miterlimit="3.999327"/>
<line x1="339.44" y1="193" x2="339.44" y2="203" stroke="#000000" stroke-width="1" stroke-miterlimit="3.999327"/>
<line x1="345.44" y1="197" x2="335.44" y2="197" stroke="#000000" stroke-width="1" stroke-miterlimit="3.999327"/>
<line x1="339.44" y1="217" x2="339.44" y2="227" stroke="#000000" stroke-width="1" stroke-miterlimit="3.999327"/>
<line x1="345.44" y1="221" x2="335.44" y2="221" stroke="#000000" stroke-width="1" stroke-miterlimit="3.999327"/>
<line x1="315.44" y1="121" x2="315.44" y2="131" stroke="#000000" stroke-width="1" stroke-miterlimit="3.999327"/>
<line x1="321.44" y1="125" x2="311.44" y2="125" stroke="#000000" stroke-width="1" stroke-miterlimit="3.999327"/>
<line x1="315.44" y1="145" x2="315.44" y2="155" stroke="#000000" stroke-width="1" stroke-miterlimit="3.999327"/>
<line x1="321.44" y1="149" x2="311.44" y2="149" stroke="#000000" stroke-width="1" stroke-miterlimit="3.999327"/>
<line x1="315.44" y1="169" x2="315.44" y2="179" stroke="#000000" stroke-width="1" stroke-miterlimit="3.999327"/>
<line x1="321.44" y1="173" x2="311.44" y2="173" stroke="#000000" stroke-width="1" stroke-miterlimit="3.999327"/>
<line x1="315.44" y1="193" x2="315.44" y2="203" stroke="#000000" stroke-width="1" stroke-miterlimit="3.999327"/>
<line x1="321.44" y1="197" x2="311.44" y2="197" stroke="#000000" stroke-width="1" stroke-miterlimit="3.999327"/>
<line x1="315.44" y1="217" x2="315.44" y2="227" stroke="#000000" stroke-width="1" stroke-miterlimit="3.999327"/>
<line x1="321.44" y1="221" x2="311.44" y2="221" stroke="#000000" stroke-width="1" stroke-miterlimit="3.999327"/>
<line x1="363.44" y1="25" x2="363.44" y2="35" stroke="#000000" stroke-width="1" stroke-miterlimit="3.999327"/>
<line x1="369.44" y1="29" x2="359.44" y2="29" stroke="#000000" stroke-width="1" stroke-miterlimit="3.999327"/>
<line x1="363.44" y1="49" x2="363.44" y2="59" stroke="#000000" stroke-width="1" stroke-miterlimit="3.999327"/>
<line x1="369.44" y1="53" x2="359.44" y2="53" stroke="#000000" stroke-width="1" stroke-miterlimit="3.999327"/>
<line x1="363.44" y1="73" x2="363.44" y2="83" stroke="#000000" stroke-width="1" stroke-miterlimit="3.999327"/>
<line x1="369.44" y1="77" x2="359.44" y2="77" stroke="#000000" stroke-width="1" stroke-miterlimit="3.999327"/>
<line x1="363.44" y1="97" x2="363.44" y2="107" stroke="#000000" stroke-width="1" stroke-miterlimit="3.999327"/>
<line x1="369.44" y1="101" x2="359.44" y2="101" stroke="#000000" stroke-width="1" stroke-miterlimit="3.999327"/>
<line x1="363.44" y1="121" x2="363.44" y2="131" stroke="#000000" stroke-width="1" stroke-miterlimit="3.999327"/>
<line x1="369.44" y1="125" x2="359.44" y2="125" stroke="#000000" stroke-width="1" stroke-miterlimit="3.999327"/>
<line x1="363.44" y1="145" x2="363.44" y2="155" stroke="#000000" stroke-width="1" stroke-miterlimit="3.999327"/>
<line x1="369.44" y1="149" x2="359.44" y2="149" stroke="#000000" stroke-width="1" stroke-miterlimit="3.999327"/>
<line x1="363.44" y1="169" x2="363.44" y2="179" stroke="#000000" stroke-width="1" stroke-miterlimit="3.999327"/>
<line x1="369.44" y1="173" x2="359.44" y2="173" stroke="#000000" stroke-width="1" stroke-miterlimit="3.999327"/>
<line x1="363.44" y1="193" x2="363.44" y2="203" stroke="#000000" stroke-width="1" stroke-miterlimit="3.999327"/>
<line x1="369.44" y1="197" x2="359.44" y2="197" stroke="#000000" stroke-width="1" stroke-miterlimit="3.999327"/>
<line x1="363.44" y1="217" x2="363.44" y2="227" stroke="#000000" stroke-width="1" stroke-miterlimit="3.999327"/>
<line x1="369.44" y1="221" x2="359.44" y2="221" stroke="#000000" stroke-width="1" stroke-miterlimit="3.999327"/>
</g>
</svg>
