<svg width="12" height="12" viewBox="0 0 12 12" fill="none" xmlns="http://www.w3.org/2000/svg">
<g id="form-btn-plus-icon-orange.a8000d8b6ead9760d267.svg" clip-path="url(#clip0_29_13437)">
<path id="Union 6" d="M4.80994 10.6165V7.11649H1.30994C1.04472 7.11649 0.790366 7.01114 0.60283 6.8236C0.415293 6.63606 0.309937 6.38171 0.309937 6.11649C0.309937 5.85128 0.415293 5.59692 0.60283 5.40939C0.790366 5.22185 1.04472 5.11649 1.30994 5.11649H4.80994V1.60449C4.80994 1.33928 4.91529 1.08492 5.10283 0.897385C5.29037 0.709849 5.54472 0.604492 5.80994 0.604492C6.07515 0.604492 6.32951 0.709849 6.51704 0.897385C6.70458 1.08492 6.80994 1.33928 6.80994 1.60449V5.10449H10.3099C10.5752 5.10449 10.8295 5.20985 11.017 5.39739C11.2046 5.58492 11.3099 5.83928 11.3099 6.10449C11.3099 6.36971 11.2046 6.62406 11.017 6.8116C10.8295 6.99914 10.5752 7.10449 10.3099 7.10449H6.80994V10.6045C6.80994 10.8697 6.70458 11.1241 6.51704 11.3116C6.32951 11.4991 6.07515 11.6045 5.80994 11.6045C5.54472 11.6045 5.29037 11.4991 5.10283 11.3116C4.91529 11.1241 4.80994 10.8697 4.80994 10.6045V10.6165Z" fill="#22438A"/>
</g>
<defs>
<clipPath id="clip0_29_13437">
<rect width="11" height="11.011" fill="white" transform="translate(0.309937 0.604492)"/>
</clipPath>
</defs>
</svg>
