<svg width="28" height="24" viewBox="0 0 28 24" fill="none" xmlns="http://www.w3.org/2000/svg">
<g id="image" clip-path="url(#clip0_29_13425)">
<g id="Group 7562">
<path id="Path 3408" d="M13.9515 23.631H1.69153C1.04453 23.631 0.891479 23.477 0.891479 22.831V1.404C0.891479 0.752999 1.04447 0.597 1.68347 0.597C4.71247 0.597 7.74139 0.603004 10.7704 0.590004C10.9443 0.574354 11.1188 0.615107 11.2677 0.706238C11.4166 0.797369 11.5323 0.934032 11.5975 1.096C12.3325 2.543 13.0976 3.976 13.8356 5.419C13.8639 5.49216 13.9156 5.55386 13.9828 5.59441C14.0499 5.63495 14.1285 5.65205 14.2064 5.64301C18.2211 5.63901 22.2354 5.63901 26.2494 5.64301C26.8494 5.64301 27.0155 5.807 27.0155 6.42V22.859C27.0155 23.466 26.8496 23.632 26.2426 23.632L13.9515 23.631ZM13.9515 6.746C10.0635 6.746 6.17548 6.74434 2.28748 6.741C2.06848 6.741 2.00452 6.782 2.00452 7.015C2.01185 12.097 2.01185 17.1787 2.00452 22.26C2.00452 22.491 2.06748 22.535 2.28748 22.535C10.0628 22.529 17.8384 22.529 25.6144 22.535C25.8314 22.535 25.8995 22.496 25.8995 22.262C25.8915 17.18 25.8915 12.0983 25.8995 7.017C25.8995 6.781 25.8304 6.744 25.6144 6.744C21.725 6.74867 17.8364 6.74934 13.9484 6.746H13.9515ZM7.32654 5.638H12.4264C12.6494 5.638 12.6924 5.605 12.5824 5.395C11.9677 4.231 11.3598 3.06434 10.7584 1.895C10.7331 1.83 10.687 1.77517 10.6273 1.73901C10.5677 1.70285 10.4979 1.68738 10.4286 1.695C7.70726 1.701 4.98586 1.701 2.26453 1.695C2.07353 1.695 2.00349 1.725 2.00549 1.939C2.01816 3.087 2.01816 4.23534 2.00549 5.384C2.00549 5.615 2.08657 5.642 2.28357 5.641C3.96057 5.635 5.64258 5.638 7.32458 5.638H7.32654Z" fill="white"/>
<path id="Path 3409" opacity="0.11" d="M13.9485 6.74599H25.6124C25.8284 6.74599 25.8985 6.78298 25.8975 7.01898C25.8902 12.101 25.8902 17.1827 25.8975 22.264C25.8975 22.499 25.8294 22.537 25.6124 22.537C17.837 22.531 10.0615 22.531 2.28546 22.537C2.06546 22.537 2.0025 22.493 2.0025 22.262C2.00984 17.18 2.00984 12.0983 2.0025 7.01698C2.0025 6.78398 2.06746 6.74298 2.28546 6.74298C6.17346 6.75031 10.0615 6.75199 13.9495 6.74799L13.9485 6.74599ZM13.9644 9.38298C12.5759 9.38001 11.2427 9.92598 10.2549 10.9019C9.26723 11.8778 8.70519 13.2045 8.69147 14.593C8.68672 15.2852 8.81872 15.9716 9.0799 16.6127C9.34107 17.2538 9.72631 17.8371 10.2134 18.3289C10.7006 18.8208 11.28 19.2116 11.9185 19.479C12.5571 19.7464 13.2421 19.885 13.9344 19.887C15.3231 19.8908 16.657 19.345 17.6448 18.369C18.6327 17.3929 19.1946 16.0657 19.2076 14.677C19.2119 13.9849 19.0795 13.2987 18.8182 12.6579C18.5568 12.017 18.1717 11.434 17.6846 10.9423C17.1976 10.4506 16.6182 10.0598 15.9798 9.7924C15.3414 9.525 14.6565 9.38621 13.9644 9.38399V9.38298ZM4.29449 14.769V13.277C4.29449 12.886 4.07956 12.65 3.73956 12.65C3.66265 12.6486 3.58613 12.6635 3.51544 12.6938C3.44475 12.7242 3.38134 12.7692 3.32941 12.826C3.27747 12.8828 3.23838 12.9499 3.21442 13.023C3.19045 13.0961 3.18224 13.1735 3.19049 13.25C3.18516 14.2627 3.18516 15.275 3.19049 16.287C3.18221 16.3637 3.19027 16.4414 3.21442 16.5147C3.23856 16.588 3.27812 16.6553 3.33038 16.7121C3.38264 16.7689 3.44659 16.8139 3.51764 16.8441C3.58869 16.8742 3.66533 16.8889 3.74249 16.887C3.8193 16.8878 3.8954 16.8724 3.96588 16.8418C4.03636 16.8113 4.09972 16.7662 4.15167 16.7097C4.20363 16.6531 4.24295 16.5862 4.2674 16.5134C4.29184 16.4406 4.30081 16.3635 4.29352 16.287C4.29752 15.782 4.29449 15.276 4.29449 14.769ZM4.29449 10.855V10.555C4.29295 10.4091 4.23457 10.2695 4.13165 10.166C4.02874 10.0625 3.88939 10.0033 3.74347 10.001C3.60184 10.0001 3.46559 10.0547 3.36359 10.1529C3.26158 10.2512 3.202 10.3854 3.19757 10.527C3.18304 10.7524 3.18304 10.9785 3.19757 11.204C3.20532 11.3414 3.2661 11.4704 3.36725 11.5637C3.4684 11.657 3.60198 11.7073 3.73956 11.704C3.8766 11.7058 4.00912 11.6558 4.1109 11.5641C4.21268 11.4723 4.27606 11.3455 4.28839 11.209C4.29939 11.092 4.29059 10.973 4.29059 10.856L4.29449 10.855Z" fill="black"/>
<path id="Path 3410" d="M7.32552 5.63901H2.2806C2.0806 5.63901 2.0005 5.61302 2.0035 5.38202C2.0175 4.23402 2.0175 3.08568 2.0035 1.93702C2.0035 1.72202 2.07053 1.69201 2.26253 1.69301C4.98387 1.69901 7.70526 1.69901 10.4266 1.69301C10.4959 1.68556 10.5657 1.7011 10.6253 1.73724C10.685 1.77338 10.7312 1.82811 10.7567 1.89301C11.3567 3.06368 11.9646 4.23034 12.5806 5.39301C12.6906 5.60201 12.6476 5.63701 12.4246 5.63601C10.7256 5.63201 9.02552 5.63901 7.32552 5.63901Z" fill="white"/>
<path id="Path 3411" d="M13.9675 9.38301C14.6597 9.3851 15.3448 9.52382 15.9833 9.79123C16.6219 10.0586 17.2015 10.4494 17.6886 10.9413C18.1758 11.4331 18.5611 12.0163 18.8224 12.6573C19.0838 13.2984 19.2161 13.9847 19.2116 14.677C19.1987 16.0657 18.637 17.3929 17.6491 18.369C16.6612 19.345 15.3274 19.8908 13.9386 19.887C13.2464 19.885 12.5613 19.7464 11.9228 19.4791C11.2842 19.2118 10.7047 18.8211 10.2175 18.3294C9.73026 17.8376 9.34501 17.2545 9.08367 16.6135C8.82232 15.9725 8.69003 15.2862 8.69451 14.594C8.70796 13.2054 9.26976 11.8784 10.2575 10.9022C11.2452 9.92612 12.5788 9.38004 13.9675 9.38301ZM9.81365 14.611C9.80697 15.7071 10.2343 16.7612 11.0026 17.543C11.7709 18.3248 12.8175 18.7706 13.9135 18.783C14.4586 18.787 14.9993 18.6834 15.5043 18.4783C16.0094 18.2731 16.4689 17.9704 16.8569 17.5875C17.2448 17.2046 17.5534 16.7489 17.7651 16.2466C17.9768 15.7442 18.0874 15.2051 18.0905 14.66C18.0972 13.5641 17.6696 12.5102 16.9013 11.7287C16.133 10.9473 15.0865 10.5019 13.9906 10.49C13.4457 10.4851 12.9051 10.5878 12.3998 10.7922C11.8946 10.9966 11.4346 11.2987 11.0463 11.6811C10.658 12.0636 10.3489 12.5189 10.1369 13.0209C9.92485 13.523 9.81387 14.062 9.81047 14.607L9.81365 14.611Z" fill="white"/>
<path id="Path 3412" d="M4.29459 14.769V16.288C4.30188 16.3645 4.29291 16.4416 4.26847 16.5144C4.24402 16.5872 4.2047 16.6541 4.15274 16.7107C4.10079 16.7673 4.03743 16.8123 3.96695 16.8428C3.89647 16.8734 3.82037 16.8888 3.74356 16.888C3.6664 16.8899 3.58976 16.8752 3.51871 16.8451C3.44766 16.8149 3.38372 16.7699 3.33145 16.7131C3.27919 16.6563 3.23987 16.589 3.21573 16.5157C3.19159 16.4424 3.18328 16.3647 3.19156 16.288C3.18623 15.2753 3.18623 14.263 3.19156 13.251C3.18332 13.1745 3.19152 13.0972 3.21549 13.0241C3.23945 12.9509 3.27854 12.8838 3.33048 12.827C3.38241 12.7703 3.44582 12.7252 3.51651 12.6949C3.5872 12.6645 3.66372 12.6496 3.74063 12.651C4.08163 12.651 4.29256 12.886 4.29556 13.278C4.29656 13.775 4.29459 14.272 4.29459 14.769Z" fill="white"/>
<path id="Path 3413" d="M4.29044 10.855C4.29044 10.972 4.30044 11.091 4.29044 11.207C4.27833 11.3436 4.21503 11.4705 4.11319 11.5623C4.01136 11.6542 3.87871 11.7041 3.74161 11.702C3.60403 11.7053 3.47045 11.655 3.3693 11.5617C3.26814 11.4684 3.20737 11.3394 3.19962 11.202C3.18484 10.9766 3.18484 10.7504 3.19962 10.525C3.20405 10.3834 3.26363 10.2492 3.36563 10.1509C3.46764 10.0527 3.60388 9.99815 3.74552 9.999C3.89161 10.0011 4.03106 10.0602 4.13419 10.1637C4.23732 10.2672 4.29597 10.4069 4.29752 10.553V10.853L4.29044 10.855Z" fill="white"/>
<path id="Path 3414" d="M9.81043 14.611C9.81331 14.0658 9.92395 13.5266 10.1356 13.0242C10.3473 12.5218 10.6559 12.0661 11.0441 11.6832C11.4322 11.3004 11.8921 10.9979 12.3973 10.7932C12.9026 10.5884 13.4433 10.4854 13.9884 10.49C15.0843 10.5016 16.1311 10.9469 16.8995 11.7284C17.6679 12.5099 18.0954 13.564 18.0885 14.66C18.0854 15.2051 17.9748 15.7442 17.7631 16.2465C17.5514 16.7489 17.2428 17.2045 16.8549 17.5875C16.4669 17.9704 16.0071 18.2731 15.5021 18.4783C14.997 18.6834 14.4566 18.7869 13.9115 18.783C12.8154 18.7706 11.7688 18.3248 11.0004 17.5431C10.2319 16.7613 9.80402 15.7072 9.81043 14.611ZM13.3986 13.426V16.944C13.3986 17.338 13.6064 17.584 13.9354 17.592C14.2644 17.6 14.4996 17.349 14.5006 16.945V13.426C14.8336 13.705 15.1165 13.951 15.4105 14.183C15.4663 14.2335 15.5319 14.272 15.6032 14.2961C15.6744 14.3203 15.7499 14.3295 15.8248 14.3233C15.8998 14.3172 15.9729 14.2957 16.0392 14.2602C16.1055 14.2247 16.1638 14.1759 16.2106 14.117C16.2581 14.0616 16.2938 13.9972 16.3156 13.9276C16.3373 13.8579 16.3446 13.7846 16.337 13.712C16.3295 13.6395 16.307 13.5692 16.2714 13.5056C16.2357 13.442 16.1875 13.3863 16.1295 13.342C15.5295 12.8233 14.9203 12.3123 14.3016 11.809C14.2071 11.7195 14.0818 11.6696 13.9515 11.6696C13.8213 11.6696 13.696 11.7195 13.6015 11.809C12.9795 12.3183 12.3639 12.8357 11.7545 13.361C11.6981 13.4072 11.6519 13.4647 11.6188 13.5297C11.5857 13.5947 11.5664 13.6658 11.5621 13.7386C11.5579 13.8114 11.569 13.8843 11.5944 13.9527C11.6197 14.0211 11.6589 14.0835 11.7096 14.136C11.7586 14.1928 11.8187 14.239 11.8864 14.2716C11.954 14.3042 12.0277 14.3226 12.1027 14.3256C12.1777 14.3286 12.2524 14.3162 12.3224 14.2891C12.3924 14.2619 12.456 14.2207 12.5094 14.168C12.7954 13.938 13.0726 13.699 13.3986 13.426Z" fill="#22438A"/>
<path id="Path 3415" d="M13.3984 13.426C13.0714 13.699 12.7984 13.938 12.5094 14.167C12.456 14.2197 12.3922 14.261 12.3222 14.2881C12.2522 14.3152 12.1775 14.3276 12.1025 14.3246C12.0274 14.3216 11.9538 14.3033 11.8862 14.2706C11.8185 14.238 11.7584 14.1918 11.7094 14.135C11.6589 14.0825 11.6197 14.02 11.5944 13.9517C11.5691 13.8833 11.5584 13.8104 11.5627 13.7377C11.5669 13.6649 11.5861 13.5938 11.6191 13.5288C11.6521 13.4638 11.6981 13.4063 11.7543 13.36C12.3623 12.8333 12.9782 12.316 13.6015 11.808C13.6959 11.7182 13.8211 11.6682 13.9513 11.6682C14.0816 11.6682 14.207 11.7182 14.3014 11.808C14.9174 12.3113 15.5266 12.8223 16.1293 13.341C16.1873 13.3853 16.2357 13.441 16.2714 13.5046C16.3071 13.5683 16.3293 13.6385 16.3368 13.711C16.3444 13.7836 16.3371 13.8569 16.3154 13.9266C16.2936 13.9962 16.2579 14.0607 16.2104 14.116C16.1636 14.1749 16.1053 14.2237 16.039 14.2592C15.9726 14.2947 15.8996 14.3162 15.8246 14.3224C15.7496 14.3285 15.6742 14.3193 15.6029 14.2951C15.5317 14.271 15.4661 14.2325 15.4103 14.182C15.1163 13.949 14.8334 13.703 14.5004 13.425V16.944C14.5004 17.344 14.2754 17.6 13.9364 17.591C13.5974 17.582 13.4003 17.337 13.3993 16.943C13.3973 15.796 13.3984 14.648 13.3984 13.426Z" fill="white"/>
</g>
</g>
<defs>
<clipPath id="clip0_29_13425">
<rect width="26.123" height="23.042" fill="white" transform="translate(0.888489 0.588989)"/>
</clipPath>
</defs>
</svg>
